<svg  viewBox="0 0 255 211" fill="none" xmlns="http://www.w3.org/2000/svg">

<path fill-rule="evenodd" clip-rule="evenodd" d="M211.14 68.575C215.083 68.575 218.28 71.8813 218.28 75.96C218.28 80.0386 215.083 83.345 211.14 83.345H170.34C174.283 83.345 177.48 86.6513 177.48 90.73C177.48 94.8086 174.283 98.115 170.34 98.115H192.78C196.723 98.115 199.92 101.421 199.92 105.5C199.92 109.579 196.723 112.885 192.78 112.885H182.403C177.431 112.885 173.4 116.191 173.4 120.27C173.4 122.989 175.44 125.451 179.52 127.655C183.463 127.655 186.66 130.961 186.66 135.04C186.66 139.119 183.463 142.425 179.52 142.425H94.8599C90.9166 142.425 87.7199 139.119 87.7199 135.04C87.7199 130.961 90.9166 127.655 94.8599 127.655H55.0799C51.1366 127.655 47.9399 124.349 47.9399 120.27C47.9399 116.191 51.1366 112.885 55.0799 112.885H95.8799C99.8233 112.885 103.02 109.579 103.02 105.5C103.02 101.421 99.8233 98.115 95.8799 98.115H70.3799C66.4366 98.115 63.2399 94.8086 63.2399 90.73C63.2399 86.6513 66.4366 83.345 70.3799 83.345H111.18C107.237 83.345 104.04 80.0386 104.04 75.96C104.04 71.8813 107.237 68.575 111.18 68.575H211.14ZM211.14 98.115C215.083 98.115 218.28 101.421 218.28 105.5C218.28 109.579 215.083 112.885 211.14 112.885C207.197 112.885 204 109.579 204 105.5C204 101.421 207.197 98.115 211.14 98.115Z" fill="#FAFAF0"/>
<path d="M122.91 140.315C141.782 140.315 157.08 124.492 157.08 104.973C157.08 85.4534 141.782 69.63 122.91 69.63C104.038 69.63 88.74 85.4534 88.74 104.973C88.74 124.492 104.038 140.315 122.91 140.315Z" fill="#FAFAF0" stroke="#B6963C" stroke-width="2.5"/>
<path fill-rule="evenodd" clip-rule="evenodd" d="M117.435 132.396C119.229 132.739 121.054 132.917 122.91 132.93C137.838 132.93 149.94 120.413 149.94 104.973C149.94 89.532 137.838 77.015 122.91 77.015C119.075 77.015 115.427 77.841 112.122 79.3304C106.38 81.9185 101.675 86.5099 98.8339 92.2512C96.9454 96.0672 95.88 100.391 95.88 104.973C95.88 109.129 96.7571 113.074 98.3302 116.62C99.4533 119.151 100.931 121.479 102.698 123.536" fill="white"/>
<path d="M117.435 132.396C119.229 132.739 121.054 132.917 122.91 132.93C137.838 132.93 149.94 120.413 149.94 104.973C149.94 89.532 137.838 77.015 122.91 77.015C119.075 77.015 115.427 77.841 112.122 79.3304C106.38 81.9185 101.675 86.5099 98.8339 92.2512C96.9454 96.0672 95.88 100.391 95.88 104.973C95.88 109.129 96.7571 113.074 98.3302 116.62C99.4533 119.151 100.931 121.479 102.698 123.536" stroke="#B6963C" stroke-width="2.5" stroke-linecap="round"/>
<path d="M105.873 126.679C108.064 128.521 110.54 130.015 113.221 131.08" stroke="#B6963C" stroke-width="2.5" stroke-linecap="round"/>
<path d="M150.96 132.93L157.08 139.26" stroke="#B6963C" stroke-width="2.5"/>
<path fill-rule="evenodd" clip-rule="evenodd" d="M156.091 138.237C154.16 140.234 154.16 143.471 156.091 145.468L167.398 157.163C169.328 159.16 172.459 159.16 174.389 157.163C176.32 155.166 176.32 151.929 174.389 149.932L163.082 138.237C161.152 136.24 158.021 136.24 156.091 138.237Z" fill="#F2F0D6" stroke="#B6963C" stroke-width="2.5"/>
<path d="M161.16 140.315L172.38 151.92" stroke="white" stroke-width="2.5" stroke-linecap="round"/>
<path fill-rule="evenodd" clip-rule="evenodd" d="M116.28 92.8401C116.28 105.076 125.87 114.995 137.7 114.995C140.024 114.995 142.261 114.612 144.357 113.904C140.937 122.683 132.623 128.88 122.91 128.88C110.145 128.88 99.7961 118.176 99.7961 104.973C99.7961 93.0084 108.293 83.0969 119.386 81.3417C117.415 84.6947 116.28 88.6303 116.28 92.8401Z" fill="#F2F0D6"/>
<path d="M123.42 85.455C122.121 85.455 120.852 85.5871 119.625 85.8391M115.918 87.0122C108.94 90.0451 104.04 97.1807 104.04 105.5" stroke="#E3DBA5" stroke-width="2.5" stroke-linecap="round"/>
<path d="M177.659 105.265H169.32M184.11 97.0601H166.591H184.11ZM191.25 97.0601H188.984H191.25Z" stroke="#E3DBA5" stroke-width="2.5" stroke-linecap="round" stroke-linejoin="round"/>
<path d="M85.8593 128.475H77.52M81.09 119.215H63.5707H81.09ZM57.63 119.215H53.3243H57.63Z" stroke="#E3DBA5" stroke-width="2.5" stroke-linecap="round" stroke-linejoin="round"/>
</svg>
