<svg width="64" height="64" viewBox="0 0 64 64" fill="none" xmlns="http://www.w3.org/2000/svg">
<rect width="64" height="64" rx="32" fill="#F0F6FF"/>
<path d="M41 36.6237V27.376C41 27.2429 40.9646 27.1122 40.8974 26.9973C40.8302 26.8825 40.7337 26.7875 40.6177 26.7223L32.3677 22.0817C32.2554 22.0185 32.1288 21.9854 32 21.9854C31.8712 21.9854 31.7446 22.0185 31.6323 22.0817L23.3823 26.7223C23.2663 26.7875 23.1698 26.8825 23.1026 26.9973C23.0354 27.1122 23 27.2429 23 27.376V36.6237C23 36.7568 23.0354 36.8875 23.1026 37.0023C23.1698 37.1172 23.2663 37.2121 23.3823 37.2774L31.6323 41.918C31.7446 41.9812 31.8712 42.0143 32 42.0143C32.1288 42.0143 32.2554 41.9812 32.3677 41.918L40.6177 37.2774C40.7337 37.2121 40.8302 37.1172 40.8974 37.0023C40.9646 36.8875 41 36.7568 41 36.6237Z" stroke="#005CE8" stroke-width="1.5" stroke-linecap="round" stroke-linejoin="round"/>
<path d="M36.5958 34.2979V29.4229L27.5 24.4062" stroke="#005CE8" stroke-width="1.5" stroke-linecap="round" stroke-linejoin="round"/>
<path d="M40.8962 26.9961L32.0886 31.9998L23.1035 26.9951" stroke="#005CE8" stroke-width="1.5" stroke-linecap="round" stroke-linejoin="round"/>
<path d="M32.089 32L32.001 42.0145" stroke="#005CE8" stroke-width="1.5" stroke-linecap="round" stroke-linejoin="round"/>
</svg>
