<svg width="24" height="24" viewBox="0 0 24 24" fill="none" xmlns="http://www.w3.org/2000/svg">
<rect x="0.35" y="0.35" width="23.3" height="23.3" rx="4.65" fill="currentColor"/>
<rect x="0.35" y="0.35" width="23.3" height="23.3" rx="4.65" stroke="#A8A8A8" stroke-width="0.7"/>
<path d="M14.793 5.33301H9.20634C6.77967 5.33301 5.33301 6.77967 5.33301 9.20634V14.7863C5.33301 17.2197 6.77967 18.6663 9.20634 18.6663H14.7863C17.213 18.6663 18.6597 17.2197 18.6597 14.793V9.20634C18.6663 6.77967 17.2197 5.33301 14.793 5.33301ZM10.6063 14.793C10.6063 15.2197 10.2597 15.5663 9.82634 15.5663C9.39967 15.5663 9.05301 15.2197 9.05301 14.793V12.6197C9.05301 12.193 9.39967 11.8463 9.82634 11.8463C10.2597 11.8463 10.6063 12.193 10.6063 12.6197V14.793ZM14.9463 14.793C14.9463 15.2197 14.5997 15.5663 14.173 15.5663C13.7397 15.5663 13.393 15.2197 13.393 14.793V9.20634C13.393 8.77967 13.7397 8.43301 14.173 8.43301C14.5997 8.43301 14.9463 8.77967 14.9463 9.20634V14.793Z" fill="#545454"/>
</svg>
