<svg width="24" height="24" viewBox="0 0 24 24" fill="none" xmlns="http://www.w3.org/2000/svg">
<path fill-rule="evenodd" clip-rule="evenodd" d="M13.7071 15.7084C13.5182 15.8952 13.2632 16 12.9976 16C12.7319 16 12.477 15.8952 12.2881 15.7084L9.32306 12.7694C9.10806 12.5514 9.00106 12.2694 9.00106 11.9904C9.00106 11.7114 9.10806 11.4344 9.32306 11.2214L12.2781 8.29142C12.4671 8.10485 12.722 8.00024 12.9876 8.00024C13.2531 8.00024 13.508 8.10485 13.6971 8.29142C13.7902 8.38325 13.8642 8.49269 13.9147 8.61338C13.9653 8.73407 13.9913 8.86359 13.9913 8.99442C13.9913 9.12525 13.9653 9.25477 13.9147 9.37546C13.8642 9.49615 13.7902 9.60559 13.6971 9.69742L11.3801 11.9954L13.7071 14.3024C13.7999 14.3945 13.8736 14.504 13.9238 14.6246C13.9741 14.7453 14 14.8747 14 15.0054C14 15.1361 13.9741 15.2656 13.9238 15.3862C13.8736 15.5069 13.7999 15.6164 13.7071 15.7084Z" fill="#42526E"/>
</svg>
