<svg width="8" height="6" viewBox="0 0 8 6" fill="none" xmlns="http://www.w3.org/2000/svg">
<path fill-rule="evenodd" clip-rule="evenodd" d="M0.292068 0.792941C0.105262 0.981833 0.000488281 1.23678 0.000488281 1.50244C0.000488281 1.7681 0.105262 2.02305 0.292068 2.21194L3.23107 5.17694C3.44907 5.39194 3.73107 5.49894 4.01007 5.49894C4.28907 5.49894 4.56607 5.39194 4.77907 5.17694L7.70907 2.22194C7.89563 2.03292 8.00024 1.77803 8.00024 1.51244C8.00024 1.24686 7.89563 0.99196 7.70907 0.802941C7.61724 0.709757 7.5078 0.635759 7.38711 0.585251C7.26642 0.534743 7.1369 0.508733 7.00607 0.508733C6.87524 0.508733 6.74571 0.534743 6.62503 0.585251C6.50434 0.635759 6.3949 0.709757 6.30307 0.802941L4.00507 3.11994L1.69807 0.792941C1.60603 0.70012 1.49652 0.626444 1.37586 0.576165C1.25521 0.525886 1.12578 0.5 0.995069 0.5C0.864353 0.5 0.734931 0.525886 0.614272 0.576165C0.493613 0.626444 0.384105 0.70012 0.292068 0.792941Z" fill="currentColor"/>
</svg>
