<svg width="26" height="26" viewBox="0 0 26 26" fill="none" xmlns="http://www.w3.org/2000/svg">
<path fill-rule="evenodd" clip-rule="evenodd" d="M12.9999 1.08331C6.41867 1.08331 1.08325 6.41873 1.08325 13C1.08325 19.5812 6.41867 24.9166 12.9999 24.9166C19.5812 24.9166 24.9166 19.5812 24.9166 13C24.9166 6.41873 19.5812 1.08331 12.9999 1.08331ZM17.0158 10.5159C17.2132 10.3116 17.3224 10.0379 17.3199 9.75388C17.3174 9.46983 17.2035 9.19812 17.0026 8.99726C16.8018 8.7964 16.5301 8.68247 16.246 8.68C15.962 8.67753 15.6883 8.78673 15.484 8.98406L12.9999 11.4681L10.5158 8.98406C10.4159 8.88059 10.2964 8.79806 10.1642 8.74129C10.032 8.68451 9.88986 8.65463 9.74602 8.65338C9.60218 8.65213 9.45952 8.67954 9.32639 8.73401C9.19325 8.78848 9.07229 8.86892 8.97057 8.97064C8.86886 9.07235 8.78842 9.19331 8.73395 9.32645C8.67947 9.45958 8.65206 9.60224 8.65331 9.74608C8.65456 9.88993 8.68445 10.0321 8.74123 10.1643C8.798 10.2964 8.88053 10.416 8.984 10.5159L11.4681 13L8.984 15.4841C8.88053 15.584 8.798 15.7035 8.74123 15.8357C8.68445 15.9679 8.65456 16.11 8.65331 16.2539C8.65206 16.3977 8.67947 16.5404 8.73395 16.6735C8.78842 16.8067 8.86886 16.9276 8.97057 17.0293C9.07229 17.131 9.19325 17.2115 9.32639 17.266C9.45952 17.3204 9.60218 17.3478 9.74602 17.3466C9.88986 17.3453 10.032 17.3155 10.1642 17.2587C10.2964 17.2019 10.4159 17.1194 10.5158 17.0159L12.9999 14.5318L15.484 17.0159C15.6883 17.2132 15.962 17.3224 16.246 17.32C16.5301 17.3175 16.8018 17.2036 17.0026 17.0027C17.2035 16.8018 17.3174 16.5301 17.3199 16.2461C17.3224 15.962 17.2132 15.6884 17.0158 15.4841L14.5318 13L17.0158 10.5159Z" fill="#DE350B"/>
</svg>
