<svg width="25" height="25" viewBox="0 0 25 25" fill="none" xmlns="http://www.w3.org/2000/svg">
<path d="M4.3633 16.955C3.5053 13.523 3.0763 11.808 3.9773 10.654C4.8783 9.5 6.6473 9.5 10.1843 9.5H14.8143C18.3523 9.5 20.1203 9.5 21.0213 10.654C21.9223 11.808 21.4933 13.524 20.6353 16.955C20.0893 19.138 19.8173 20.229 19.0033 20.865C18.1893 21.5 17.0643 21.5 14.8143 21.5H10.1843C7.9343 21.5 6.8093 21.5 5.9953 20.865C5.1813 20.229 4.9083 19.138 4.3633 16.955Z" stroke="#3A3A3A" stroke-width="1.5"/>
<path d="M20 10L19.29 7.395C19.016 6.39 18.879 5.888 18.598 5.509C18.3178 5.13246 17.9373 4.8424 17.5 4.672C17.06 4.5 16.54 4.5 15.5 4.5M5 10L5.71 7.395C5.984 6.39 6.121 5.888 6.402 5.509C6.68218 5.13246 7.06269 4.8424 7.5 4.672C7.94 4.5 8.46 4.5 9.5 4.5" stroke="#3A3A3A" stroke-width="1.5"/>
<path d="M9.5 4.5C9.5 4.23478 9.60536 3.98043 9.79289 3.79289C9.98043 3.60536 10.2348 3.5 10.5 3.5H14.5C14.7652 3.5 15.0196 3.60536 15.2071 3.79289C15.3946 3.98043 15.5 4.23478 15.5 4.5C15.5 4.76522 15.3946 5.01957 15.2071 5.20711C15.0196 5.39464 14.7652 5.5 14.5 5.5H10.5C10.2348 5.5 9.98043 5.39464 9.79289 5.20711C9.60536 5.01957 9.5 4.76522 9.5 4.5Z" stroke="#3A3A3A" stroke-width="1.5"/>
</svg>
