<svg width="24" height="24" viewBox="0 0 24 24" fill="none" xmlns="http://www.w3.org/2000/svg">
<path d="M6.73537 12.3219C6.55482 12.1299 6.30577 12.0169 6.04238 12.0076C5.77898 11.9982 5.52253 12.0932 5.32881 12.2719C5.13508 12.4506 5.01973 12.6986 5.00785 12.9619C4.99597 13.2252 5.08852 13.4825 5.26537 13.6779L8.87737 17.5969C9.41437 18.1229 10.2144 18.1229 10.7114 17.6269L11.0754 17.2679C12.3899 15.9751 13.7029 14.6808 15.0144 13.3849L15.0544 13.3449C16.2801 12.137 17.4994 10.9226 18.7124 9.70193C18.8937 9.51212 18.9931 9.25866 18.9891 8.99622C18.9852 8.73378 18.8782 8.48342 18.6913 8.29914C18.5044 8.11487 18.2526 8.01146 17.9901 8.01123C17.7276 8.011 17.4756 8.11398 17.2884 8.29793C16.081 9.51226 14.8677 10.7206 13.6484 11.9229L13.6084 11.9629C12.3516 13.2052 11.0933 14.4459 9.83337 15.6849L6.73537 12.3219Z" fill="#0747A6"/>
</svg>
