<svg width="25" height="25" viewBox="0 0 25 25" fill="none" xmlns="http://www.w3.org/2000/svg">
<rect width="24" height="24" transform="translate(0.5 0.5)" fill="white" fill-opacity="0.01"/>
<path fill-rule="evenodd" clip-rule="evenodd" d="M22.5 12.5C22.5 18.0228 18.0228 22.5 12.5 22.5C6.97715 22.5 2.5 18.0228 2.5 12.5C2.5 6.97715 6.97715 2.5 12.5 2.5C18.0228 2.5 22.5 6.97715 22.5 12.5ZM9.8824 11.5689C10.0044 11.6213 10.1148 11.6975 10.207 11.793L11.5 13.086L14.793 9.79302C14.8852 9.69751 14.9956 9.62133 15.1176 9.56892C15.2396 9.51651 15.3708 9.48892 15.5036 9.48777C15.6364 9.48662 15.7681 9.51192 15.891 9.5622C16.0138 9.61248 16.1255 9.68673 16.2194 9.78063C16.3133 9.87452 16.3875 9.98617 16.4378 10.1091C16.4881 10.232 16.5134 10.3636 16.5122 10.4964C16.5111 10.6292 16.4835 10.7604 16.4311 10.8824C16.3787 11.0044 16.3025 11.1148 16.207 11.207L12.207 15.207C12.0195 15.3945 11.7652 15.4998 11.5 15.4998C11.2348 15.4998 10.9805 15.3945 10.793 15.207L8.793 13.207C8.69749 13.1148 8.6213 13.0044 8.5689 12.8824C8.51649 12.7604 8.4889 12.6292 8.48775 12.4964C8.48659 12.3636 8.5119 12.232 8.56218 12.1091C8.61246 11.9862 8.68671 11.8745 8.7806 11.7806C8.8745 11.6867 8.98615 11.6125 9.10904 11.5622C9.23194 11.5119 9.36362 11.4866 9.4964 11.4878C9.62918 11.4889 9.7604 11.5165 9.8824 11.5689Z" fill="#36B37E"/>
</svg>
