<svg width="64" height="64" viewBox="0 0 64 64" fill="none" xmlns="http://www.w3.org/2000/svg">
<rect width="64" height="64" rx="32" fill="#E7F7EF"/>
<path d="M28.25 22.25V25.25" stroke="#0FAF62" stroke-width="1.5" stroke-linecap="round" stroke-linejoin="round"/>
<path d="M31.25 22.25V25.25" stroke="#0FAF62" stroke-width="1.5" stroke-linecap="round" stroke-linejoin="round"/>
<path d="M34.25 22.25V25.25" stroke="#0FAF62" stroke-width="1.5" stroke-linecap="round" stroke-linejoin="round"/>
<path d="M23 40.25H39.5" stroke="#0FAF62" stroke-width="1.5" stroke-linecap="round" stroke-linejoin="round"/>
<path d="M27.809 40.2504C26.3737 39.5915 25.1576 38.5346 24.3052 37.205C23.4527 35.8755 22.9997 34.3293 23 32.75V28.25H39.5V32.75C39.5003 34.3293 39.0473 35.8756 38.1948 37.2051C37.3423 38.5346 36.1262 39.5915 34.6909 40.2504" stroke="#0FAF62" stroke-width="1.5" stroke-linecap="round" stroke-linejoin="round"/>
<path d="M39.5003 28.25C40.296 28.25 41.059 28.5661 41.6216 29.1287C42.1843 29.6913 42.5003 30.4544 42.5003 31.25V32C42.5003 32.7956 42.1843 33.5587 41.6216 34.1213C41.059 34.6839 40.296 35 39.5003 35H39.1836" stroke="#0FAF62" stroke-width="1.25" stroke-linecap="round" stroke-linejoin="round"/>
</svg>
