<svg width="24" height="24" viewBox="0 0 24 24" fill="none" xmlns="http://www.w3.org/2000/svg">
<rect x="0.35" y="0.35" width="23.3" height="23.3" rx="4.65" fill="currentColor"/>
<rect x="0.35" y="0.35" width="23.3" height="23.3" rx="4.65" stroke="#A8A8A8" stroke-width="0.7"/>
<path d="M9.99967 5.33301C8.25301 5.33301 6.83301 6.75301 6.83301 8.49967C6.83301 10.213 8.17301 11.5997 9.91967 11.6597C9.97301 11.653 10.0263 11.653 10.0663 11.6597C10.0797 11.6597 10.0863 11.6597 10.0997 11.6597C10.1063 11.6597 10.1063 11.6597 10.113 11.6597C11.8197 11.5997 13.1597 10.213 13.1663 8.49967C13.1663 6.75301 11.7463 5.33301 9.99967 5.33301Z" fill="#545454"/>
<path d="M13.3866 13.4329C11.5266 12.1929 8.49331 12.1929 6.61997 13.4329C5.77331 13.9996 5.30664 14.7663 5.30664 15.5863C5.30664 16.4063 5.77331 17.1663 6.61331 17.7263C7.54664 18.3529 8.77331 18.6663 9.99997 18.6663C11.2266 18.6663 12.4533 18.3529 13.3866 17.7263C14.2266 17.1596 14.6933 16.3996 14.6933 15.5729C14.6866 14.7529 14.2266 13.9929 13.3866 13.4329Z" fill="#545454"/>
<path d="M17.3263 8.89307C17.4329 10.1864 16.5129 11.3197 15.2396 11.4731C15.2329 11.4731 15.2329 11.4731 15.2263 11.4731H15.2062C15.1662 11.4731 15.1262 11.4731 15.0929 11.4864C14.4462 11.5197 13.8529 11.3131 13.4062 10.9331C14.0929 10.3197 14.4863 9.39974 14.4062 8.39974C14.3596 7.85974 14.1729 7.36641 13.8929 6.94641C14.1463 6.81974 14.4396 6.73974 14.7396 6.71307C16.0463 6.59974 17.2129 7.57307 17.3263 8.89307Z" fill="#545454"/>
<path d="M18.6605 15.0599C18.6071 15.7066 18.1938 16.2666 17.5005 16.6466C16.8338 17.0133 15.9938 17.1866 15.1605 17.1666C15.6405 16.7333 15.9205 16.1933 15.9738 15.6199C16.0405 14.7933 15.6471 13.9999 14.8605 13.3666C14.4138 13.0133 13.8938 12.7333 13.3271 12.5266C14.8005 12.0999 16.6538 12.3866 17.7938 13.3066C18.4071 13.7999 18.7205 14.4199 18.6605 15.0599Z" fill="#545454"/>
</svg>
