<svg width="24" height="24" viewBox="0 0 24 24" fill="none" xmlns="http://www.w3.org/2000/svg">
<rect x="0.35" y="0.35" width="23.3" height="23.3" rx="4.65" fill="currentColor"/>
<rect x="0.35" y="0.35" width="23.3" height="23.3" rx="4.65" stroke="#A8A8A8" stroke-width="0.7"/>
<path d="M8.82634 5.33301H7.55967C6.09967 5.33301 5.33301 6.09967 5.33301 7.55301V8.81967C5.33301 10.273 6.09967 11.0397 7.55301 11.0397H8.81967C10.273 11.0397 11.0397 10.273 11.0397 8.81967V7.55301C11.0463 6.09967 10.2797 5.33301 8.82634 5.33301Z" fill="#545454"/>
<path d="M16.4466 5.33301H15.18C13.7266 5.33301 12.96 6.09967 12.96 7.55301V8.81967C12.96 10.273 13.7266 11.0397 15.18 11.0397H16.4466C17.9 11.0397 18.6666 10.273 18.6666 8.81967V7.55301C18.6666 6.09967 17.9 5.33301 16.4466 5.33301Z" fill="#545454"/>
<path d="M16.4466 12.9531H15.18C13.7266 12.9531 12.96 13.7198 12.96 15.1731V16.4398C12.96 17.8931 13.7266 18.6598 15.18 18.6598H16.4466C17.9 18.6598 18.6666 17.8931 18.6666 16.4398V15.1731C18.6666 13.7198 17.9 12.9531 16.4466 12.9531Z" fill="#545454"/>
<path d="M8.82634 12.9531H7.55967C6.09967 12.9531 5.33301 13.7198 5.33301 15.1731V16.4398C5.33301 17.8998 6.09967 18.6665 7.55301 18.6665H8.81967C10.273 18.6665 11.0397 17.8998 11.0397 16.4465V15.1798C11.0463 13.7198 10.2797 12.9531 8.82634 12.9531Z" fill="#545454"/>
</svg>
