<svg width="250" height="250" viewBox="0 0 250 250" fill="none" xmlns="http://www.w3.org/2000/svg">
<path fill-rule="evenodd" clip-rule="evenodd" d="M160.971 53.3173C182.482 48.5021 202.411 54.2151 213.122 70.5334C223.833 86.8516 221.031 112.745 218.711 124.175C216.391 135.605 210.505 146.074 203.199 155.162C189.631 172.043 171.294 184.961 150.796 191.934C130.297 198.907 108.041 200.337 86.6792 196.809C74.6958 194.83 37.211 185.136 29.1195 155.88C21.0279 126.624 15.9069 101.619 33.4294 91.4621C50.9518 81.305 63.089 88.9444 71.7635 92.7012C112.29 110.252 139.46 58.1326 160.971 53.3173Z" fill="#2684FF "/>
<path fill-rule="evenodd" clip-rule="evenodd" d="M191.261 80.7203C194.712 80.4538 198.431 80.6262 201.243 82.6438C204.055 84.6614 205.332 89.0919 203.024 91.67C205.634 90.6495 208.702 92.3804 210.01 94.8596C211.317 97.3388 211.249 100.309 210.856 103.084C209.881 109.957 207.08 116.562 202.815 122.039C202.619 122.617 202.423 123.194 202.227 123.772C207.268 125.071 226.95 132.715 221.632 151.558C216.314 170.401 193.089 177.573 190.712 179.829C186.568 183.76 180.244 184.028 174.535 183.847C160.499 183.402 146.506 181.618 132.807 178.528C131.642 178.265 130.167 178.105 129.495 179.092C124.636 186.237 114.474 186.876 105.856 186.254C94.7859 185.455 83.7794 183.776 72.9745 181.238C66.8458 179.798 60.3376 177.794 56.5196 172.788C52.0685 166.953 52.5826 158.862 53.3048 151.558C50.3793 153.185 45.5271 154.066 38.7482 154.201C34.757 153.387 32.2674 151.94 31.2794 149.861C26.7613 140.351 25.2119 128.097 30.8382 118.724C31.5141 117.598 32.2939 116.488 33.3944 115.772C34.5612 115.012 35.9837 114.762 37.3705 114.639C42.8406 114.155 48.453 115.432 53.1751 118.235C53.1329 102.887 53.0907 87.5396 53.0486 72.1919C53.0462 71.313 53.0584 70.3804 53.527 69.6368C54.2047 68.5613 55.593 68.228 56.8427 67.9947C68.2101 65.8726 79.7065 64.4415 91.2473 63.7117C95.0182 63.4733 100.179 64.5228 100.196 68.3011C100.262 82.7708 100.327 97.2404 100.393 111.71C100.409 115.154 100.63 114.866 102.244 113.868C101.229 113.973 101.456 112.253 102.224 111.583C105.094 109.081 109.275 108.989 113.082 109.028C121.596 109.115 130.111 109.202 138.625 109.29C146.875 109.374 156.769 110.42 160.504 117.777C160.395 115.59 162.377 113.527 164.566 113.547C166.953 113.569 168.949 111.498 169.646 109.215C170.343 106.932 170.036 104.478 169.722 102.112C165.873 98.3846 164.865 92.0489 167.368 87.3116C169.871 82.5742 175.673 79.8361 180.921 80.9153C184.311 81.6124 187.81 80.9868 191.261 80.7203ZM92.4622 151.698C92.3489 154.744 92.229 157.832 91.3324 160.745L92.4622 151.698ZM88.9345 114.31C89.727 114.542 90.7075 115.245 90.2915 115.958C93.7341 116.302 92.7061 116.142 92.861 112.086C93.0181 107.969 93.0313 103.417 90.3363 100.302C87.9516 97.5448 84.0624 96.6825 80.4304 96.3724C76.1911 96.0105 71.9063 96.1844 67.7103 96.8887C65.6629 97.2323 63.4453 97.8244 62.2572 99.5268C61.5923 100.48 61.3476 101.656 61.1523 102.802C60.3839 107.307 60.1439 111.902 60.4388 116.462C69.2649 112.356 79.5917 111.576 88.9345 114.31ZM165.532 144.555C165.747 144.337 166.075 144.284 166.378 144.242C167.591 144.075 168.804 143.909 170.017 143.742C167.233 142.485 165.546 139.498 165.042 136.486C164.538 133.473 165.03 130.393 165.528 127.38C163.747 129.361 163.875 132.351 164.109 135.005C164.619 140.813 165.316 144.773 165.532 144.555ZM142.631 173.164C142.87 172.388 143.682 171.972 144.276 171.419C145.347 170.424 145.744 168.921 146.093 167.502C147.3 162.599 148.514 157.636 148.498 152.587C148.495 151.517 148.441 150.418 148.795 149.409C149.149 148.399 150.037 147.486 151.107 147.481C152.234 147.476 152.504 145.911 152.403 144.788C152.055 140.914 151.708 137.04 151.36 133.166C151.249 131.929 151.136 130.68 150.76 129.496C149.372 125.118 144.022 122.471 139.7 124.023C139.171 124.213 139.029 124.882 138.969 125.441C138.304 131.637 137.639 137.833 136.973 144.03C136.855 145.13 138.277 145.833 139.35 145.56C140.423 145.288 141.242 144.449 142.17 143.845C143.098 143.241 144.406 142.893 145.258 143.6C146.221 144.4 147.646 143.512 148.483 142.581C149.319 141.65 150.409 140.528 151.599 140.917C150.203 142.251 148.807 143.586 147.412 144.921C146.949 145.364 146.541 146.248 147.126 146.509C148.729 145.941 150.179 144.944 151.284 143.651C151.795 143.634 151.819 144.437 151.534 144.861C150.46 146.46 147.931 146.816 147.28 148.629C145.76 152.861 141.021 155.671 136.579 154.975C135.667 154.833 135.213 156.031 135.103 156.947C134.666 160.598 134.229 164.25 133.792 167.901C133.691 168.741 133.597 169.629 133.943 170.401C134.52 171.69 136.064 172.177 137.432 172.524C139.241 172.982 141.07 173.443 142.919 173.643C143.697 173.727 143.694 173.442 142.631 173.164ZM70.5728 166.47C73.1572 167.335 75.8926 167.629 78.6028 167.916C79.7521 168.039 80.9761 168.148 82.0072 167.626C83.2208 167.011 83.8675 165.679 84.3895 164.422C87.3006 157.416 88.9625 149.893 89.274 142.312C89.3183 141.235 87.9392 140.759 86.8635 140.687C78.2761 140.11 70.0636 143.885 62.2863 147.572C61.9136 147.748 61.5147 147.95 61.3305 148.319C61.1932 148.594 61.2003 148.916 61.2106 149.224C61.3499 153.412 61.5256 157.75 63.3986 161.498C63.9044 162.511 64.5479 163.485 65.4588 164.156C66.0107 164.563 66.6423 164.845 67.2685 165.124C68.3554 165.608 69.4446 166.092 70.5728 166.47ZM126.125 150.97C127.27 144.814 128.076 138.596 128.54 132.352C128.699 130.215 128.815 128.044 128.354 125.952C127.892 123.861 126.778 121.827 124.956 120.7C123.834 120.005 122.52 119.694 121.221 119.462C118.85 119.039 116.438 118.847 114.029 118.89C111.904 118.927 109.674 119.186 107.939 120.414C107.365 120.82 106.844 121.352 106.635 122.023C106.425 122.694 106.602 123.518 107.183 123.912C108.654 124.908 109.254 126.772 109.53 128.527C109.805 130.282 109.872 132.119 110.671 133.706C111.084 134.524 111.675 135.237 112.295 135.912C115.658 139.568 120.043 142.272 124.82 143.635C125.66 143.875 126.728 144.394 126.551 145.249C129.192 146.915 126.081 151.206 126.125 150.97ZM118.845 169.126C119.818 168.535 120.477 167.552 121.058 166.573C123.521 162.42 125.136 157.766 125.776 152.98C116.915 152.94 108.108 149.597 101.453 143.748C101.225 144.662 101.269 145.619 101.3 146.56C101.494 152.439 101.145 158.335 100.259 164.149C100.048 165.535 100.876 166.921 102.015 167.74C103.153 168.558 104.555 168.91 105.932 169.175C109.036 169.773 112.207 170.018 115.366 169.904C116.567 169.861 117.818 169.75 118.845 169.126ZM174.755 118.421C174.238 117.177 173.851 115.773 172.779 114.956C171.708 114.139 169.69 114.539 169.628 115.885C170.688 115.69 171.498 116.999 171.318 118.062C171.137 119.125 170.364 119.97 169.75 120.856C168.902 122.081 168.322 123.467 167.748 124.842C166.382 128.113 165.851 131.728 166.217 135.254C166.433 137.33 167.002 139.462 168.405 141.006C169.809 142.551 172.214 143.323 174.064 142.356C175.652 141.526 176.445 139.696 176.809 137.941C177.173 136.186 177.238 134.349 177.927 132.694C179.196 129.64 182.327 127.796 185.425 126.638C180.769 126.005 176.556 122.761 174.755 118.421ZM161.88 121.724C162.087 122.524 162.373 123.304 162.734 124.048C162.951 123 163.298 121.979 163.766 121.016C163.293 120.962 162.816 120.936 162.339 120.939C162.224 120.94 162.101 120.944 162.004 121.006C161.784 121.146 161.814 121.472 161.88 121.724ZM105.757 120.9C105.464 121.136 105.292 121.644 105.602 121.858C106.076 121.383 106.55 120.909 107.024 120.434C106.926 120.313 106.783 120.228 106.63 120.2C106.442 120.526 106.05 120.664 105.757 120.9Z" fill="white"/>
<path d="M187.833 117.5C188.846 117.5 189.667 116.679 189.667 115.667C189.667 114.654 188.846 113.833 187.833 113.833C186.821 113.833 186 114.654 186 115.667C186 116.679 186.821 117.5 187.833 117.5Z" fill="#FFB61D"/>
<path d="M177.333 115.667C177.886 115.667 178.333 115.219 178.333 114.667C178.333 114.115 177.886 113.667 177.333 113.667C176.781 113.667 176.333 114.115 176.333 114.667C176.333 115.219 176.781 115.667 177.333 115.667Z" fill="#FFB61D"/>
<path fill-rule="evenodd" clip-rule="evenodd" d="M82.6418 89.3592C85.6418 89.3782 88.6417 89.3972 91.6416 89.4163C91.7821 89.4172 91.933 89.4213 92.0462 89.5044C92.2777 89.6743 92.1853 90.0722 91.947 90.2323C91.7088 90.3924 91.3999 90.3856 91.113 90.3757C88.4729 90.284 85.825 90.4212 83.2085 90.785C82.8106 90.8403 82.3909 90.8984 82.0187 90.7472C81.6465 90.5959 81.3618 90.1503 81.5331 89.7869C81.7121 89.4073 82.2221 89.3565 82.6418 89.3592ZM72.6098 89.0646C72.7999 89.2541 72.7089 89.6019 72.4977 89.7676C72.2865 89.9332 72.0036 89.9664 71.7365 89.9934C69.077 90.2627 66.4174 90.532 63.7578 90.8013C63.4432 90.8332 63.1181 90.864 62.8171 90.7671C62.5162 90.6703 62.2439 90.4101 62.2368 90.094C62.2295 89.768 62.5064 89.4911 62.8155 89.387C63.1246 89.283 63.4604 89.3121 63.7855 89.3377C66.5106 89.5521 69.2622 89.4284 71.9571 88.9705C72.1828 88.9321 72.4477 88.9029 72.6098 89.0646ZM72.2373 83.9594C72.436 84.1197 72.3653 84.4635 72.1659 84.623C71.9665 84.7825 71.6951 84.809 71.4405 84.829L62.8994 85.5029C62.5797 85.5282 62.2484 85.5519 61.9468 85.4428C61.6452 85.3337 61.3807 85.0527 61.398 84.7325C61.4155 84.408 61.7151 84.1563 62.0309 84.0797C62.3467 84.0031 62.6773 84.0603 62.9987 84.1078C65.8976 84.5363 68.8453 84.1456 71.7636 83.8803C71.9273 83.8654 72.1094 83.8561 72.2373 83.9594ZM84.1658 82.2671C85.948 82.4948 87.7547 82.5294 89.5443 82.3702C90.2558 82.3069 91.1158 82.2772 91.52 82.8661C91.0402 83.254 90.3809 83.309 89.7651 83.3478C87.7243 83.4765 85.6836 83.6051 83.6428 83.7337C83.1772 83.763 82.5971 83.7278 82.4053 83.3026C82.2332 82.921 82.5361 82.4621 82.9251 82.3076C83.3141 82.153 83.7506 82.2141 84.1658 82.2671ZM68.7695 80.0852C68.7716 80.3935 68.3854 80.5265 68.0804 80.5712L63.5951 81.2286C63.275 81.2755 62.9442 81.3219 62.6316 81.2384C62.319 81.155 62.0267 80.9063 61.9975 80.584C61.9617 80.1895 62.332 79.8566 62.7187 79.7706C63.1054 79.6847 63.506 79.7746 63.8989 79.8252C65.2537 79.9998 66.6204 79.702 67.9855 79.6551C68.3196 79.6436 68.7671 79.751 68.7695 80.0852ZM90.4114 79.0116C90.7584 79.0504 91.1145 79.2574 91.2073 79.5941C90.591 80.0602 89.7764 80.1451 89.0067 80.2133C87.6892 80.33 86.3717 80.4468 85.0542 80.5636C84.59 80.6047 84.1259 80.6459 83.6618 80.687C83.3224 80.7171 82.9694 80.7454 82.6507 80.625C82.332 80.5046 82.0597 80.1883 82.1072 79.8509C82.182 79.3193 82.8798 79.1813 83.4165 79.1928C85.4081 79.2356 87.4247 79.5362 89.376 79.1352C89.718 79.065 90.0643 78.9728 90.4114 79.0116ZM92.1608 73.9825C82.3985 75.2988 72.3894 74.6172 62.7615 76.6996C62.1905 76.8231 61.3935 76.8292 61.2458 76.264C61.2591 75.5979 62.1205 75.3576 62.785 75.3102C72.1511 74.6422 81.5173 73.9742 90.8834 73.3062C91.4329 73.2671 92.204 73.4333 92.1608 73.9825Z" fill="#E7EAEE"/>
<path fill-rule="evenodd" clip-rule="evenodd" d="M57.8206 175.176C57.9226 176.357 56.2946 176.757 55.1091 176.762C48.9481 176.786 42.7931 177.929 37.034 180.118C36.155 180.452 35.2143 180.873 34.7866 181.71C34.2201 182.819 34.8383 184.238 35.8405 184.977C36.8426 185.716 38.1216 185.941 39.3505 186.141C71.293 191.342 103.71 193.622 136.066 192.943L136.587 192.932C140.318 192.845 144.127 192.645 147.545 191.167C144.715 189.184 141.885 187.2 139.055 185.217C143.954 184.238 149.009 184.935 153.981 185.426C165.36 186.549 176.848 186.572 188.231 185.494C187.43 186.775 185.668 186.953 184.157 186.985C169.838 187.293 155.502 186.785 141.24 185.462C143.101 186.687 144.962 187.911 146.822 189.136C147.497 189.579 148.243 190.143 148.281 190.949C148.34 192.161 146.851 192.765 145.655 192.963C141.683 193.619 137.643 193.724 133.619 193.782C102.186 194.242 70.7137 191.993 39.6656 187.068C38.1506 186.828 36.5809 186.559 35.3177 185.689C34.0545 184.819 33.1933 183.164 33.7241 181.725C34.2521 180.294 35.8585 179.622 37.3089 179.148C43.9461 176.98 50.8539 175.642 57.8206 175.176ZM100.196 68.3011C100.262 82.7708 100.327 97.2404 100.393 111.71C100.409 115.154 101.087 119.512 104.418 120.389C109.02 118.264 114.207 117.425 119.245 117.99C122.128 118.314 125.123 119.185 127.075 121.332C129.753 124.277 129.757 128.712 129.469 132.682C128.887 140.729 127.739 148.736 126.037 156.622C127.389 156.537 128.768 157.079 129.699 158.063C128.265 158.719 126.556 158.747 125.101 158.137C126.1 163.553 121.687 168.898 116.402 170.449C111.117 172.001 105.382 170.538 100.412 168.163C99.9461 169.978 102.374 171.044 104.228 171.318C108.934 172.014 113.64 172.71 118.346 173.405C112.534 173.58 106.703 173.104 100.997 171.99C99.9461 173.478 102.326 174.98 104.124 175.271C108.894 176.043 113.664 176.815 118.434 177.587C113.046 177.551 107.661 177.192 102.316 176.512C105.715 179.578 110.355 181.227 114.927 180.993C112.348 181.841 109.483 181.79 106.936 180.85C110.122 185.117 116.641 185.908 121.402 183.521C126.162 181.134 129.27 176.252 130.791 171.148C132.312 166.044 132.459 160.65 132.729 155.332C133.226 145.514 134.177 135.71 135.896 126.031C137.055 119.514 139.899 111.743 146.455 110.822C134.776 110.283 123.086 109.993 111.395 109.951C107.843 109.938 103.43 110.519 102.244 113.868C101.229 113.973 101.456 112.253 102.224 111.583C105.094 109.081 109.275 108.989 113.082 109.028L138.626 109.29C146.875 109.374 156.769 110.42 160.504 117.777C160.395 115.59 162.377 113.527 164.566 113.547C166.953 113.569 168.95 111.498 169.646 109.215C170.343 106.932 170.036 104.478 169.722 102.112C165.873 98.3846 164.865 92.0489 167.368 87.3116C168.076 85.9717 169.122 82.7767 174.964 80.7203C178.859 79.3493 182.708 79.5 186.513 81.1725C193.658 79.7908 198.568 80.2812 201.243 82.6438C205.256 86.1876 205.333 89.0919 203.024 91.67C205.634 90.6495 208.702 92.3804 210.01 94.8596C211.317 97.3388 211.249 100.309 210.856 103.084C209.881 109.957 207.08 116.562 202.815 122.039L202.227 123.772C212.543 126.431 220.888 135.549 222.626 146.059C219.196 138.329 214.553 130.142 206.554 127.398C204.749 129.291 202.893 131.267 202.046 133.741C201.198 136.216 201.656 139.343 203.805 140.834C202.455 141.146 201.105 141.459 199.755 141.772C200.205 142.569 200.654 143.366 201.103 144.163C196.002 148.041 195.415 155.376 195.446 161.784C195.477 168.192 195.361 175.418 190.712 179.829C186.568 183.76 180.244 184.028 174.535 183.847C160.499 183.402 146.506 181.618 132.807 178.528C131.642 178.265 130.167 178.105 129.496 179.092C124.636 186.237 114.474 186.876 105.856 186.254C94.786 185.455 83.7795 183.776 72.9746 181.238C66.8459 179.798 60.3377 177.794 56.5197 172.788C52.0686 166.953 52.5827 158.862 53.3049 151.558C48.9166 153.998 43.7142 154.942 38.7483 154.201C43.9829 150.779 46.5213 144.232 46.569 137.978C46.6167 131.724 44.5292 125.662 42.2068 119.855C37.0898 122.823 34.3975 129.079 34.7978 134.981C35.1982 140.883 38.3296 146.361 42.531 150.525C37.3518 147.257 33.9247 141.368 33.6411 135.251C33.3574 129.133 36.2249 122.952 41.0794 119.219C40.3037 116.566 36.3016 116.242 34.2041 118.042C32.1065 119.841 31.4482 122.763 30.9087 125.474C29.9117 130.482 28.9107 135.608 29.635 140.663C30.3594 145.719 33.1519 150.779 37.8314 152.825C35.6445 154.401 32.7318 152.132 31.2795 149.861C25.3899 140.65 25.212 128.097 30.8383 118.724C31.5142 117.598 32.294 116.488 33.3945 115.772C34.5613 115.012 35.9838 114.762 37.3706 114.639C42.8407 114.155 48.4531 115.432 53.1752 118.235C53.133 102.887 53.0908 87.5396 53.0487 72.1919C53.0463 71.313 53.0585 70.3804 53.5271 69.6368C54.2048 68.5613 55.5931 68.228 56.8428 67.9947C68.2102 65.8726 79.7066 64.4415 91.2474 63.7117C95.0183 63.4733 100.179 64.5228 100.196 68.3011ZM92.4882 64.6364C80.2523 65.2124 68.0607 66.725 56.055 69.1566C55.5441 69.26 55.003 69.3809 54.6316 69.7467C54.1257 70.2451 54.0866 71.0347 54.0799 71.7448C53.9366 87.0269 53.9972 102.311 54.2618 117.591C55.731 117.225 57.2002 116.859 58.6694 116.492C58.0951 113.357 57.5183 110.179 57.7639 107.001C58.0095 103.822 59.1758 100.59 61.5747 98.491C64.1711 96.2191 67.7943 95.5771 71.2359 95.3354C74.5454 95.103 77.875 95.1569 81.1754 95.4961C84.5443 95.8425 88.0933 96.5905 90.5238 98.949C94.0348 102.356 94.0915 107.875 93.9098 112.764C93.4273 125.742 92.9448 138.72 92.4623 151.698C92.349 154.744 92.2291 157.832 91.3325 160.745C90.4359 163.659 88.6564 166.428 85.964 167.858C83.322 169.261 80.1607 169.221 77.1884 168.883C74.3506 168.561 71.5402 167.998 68.7969 167.204C67.1306 166.721 65.4632 166.14 64.0471 165.138C59.361 161.821 58.8069 155.204 58.6931 149.464C56.8938 149.139 55.1347 150.509 54.3918 152.18C53.6488 153.85 53.6817 155.749 53.7279 157.577C53.843 162.136 54.0207 166.923 56.3483 170.846C59.9395 176.897 67.4827 179.133 74.3699 180.578C86.5943 183.143 99.0058 184.816 111.473 185.579C105.909 182.745 100.976 177.895 99.8025 171.762C99.4837 170.096 99.4495 168.39 99.4163 166.695C98.7667 133.535 98.1171 100.376 97.4675 67.2161C97.4264 65.119 94.5833 64.5378 92.4882 64.6364ZM139.921 119.078C139.611 119.833 139.386 120.67 139.592 121.46C139.798 122.249 140.565 122.938 141.37 122.804C144.974 122.204 148.86 123.979 150.765 127.097C152.337 129.67 152.555 132.817 152.732 135.827L154.344 163.242C154.517 166.171 154.602 169.395 152.781 171.697C150.418 174.683 145.982 174.782 142.193 174.412C139.066 174.106 135.777 173.586 133.349 171.591C133.435 172.752 133.097 173.94 132.412 174.881C131.566 176.043 132.931 177.571 134.259 178.121C135.88 178.791 137.643 179.025 139.384 179.251C147.354 180.286 155.329 181.283 163.309 182.244C169.451 182.983 175.692 183.699 181.798 182.707C177.935 181.623 174.238 179.948 170.877 177.757C169.2 176.664 167.578 175.416 166.434 173.773C164.567 171.091 164.174 167.684 163.863 164.431C162.939 154.758 162.251 145.063 161.801 135.357C161.468 128.198 159.173 121.14 155.23 115.155C154.525 114.084 153.663 112.974 152.416 112.676C147.461 111.491 141.854 114.364 139.921 119.078ZM117.197 181.031C117.618 181.103 118.049 181.197 118.396 181.445C118.742 181.694 118.984 182.135 118.877 182.548C118.77 182.961 118.225 183.232 117.881 182.981C117.501 182.703 116.996 182.693 116.543 182.565C116.091 182.437 115.616 182.061 115.697 181.598C115.801 181.011 116.609 180.931 117.197 181.031ZM99.7446 181.206C100.266 181.314 100.877 181.686 100.77 182.208C100.676 182.668 100.106 182.821 99.6406 182.883C99.1187 182.953 98.5616 183.018 98.0878 182.788C97.6139 182.559 97.3066 181.911 97.6175 181.487C97.8271 181.2 98.2195 181.124 98.5743 181.109C98.9663 181.093 99.3604 181.126 99.7446 181.206ZM130.947 175.405C130.452 175.762 130.112 176.288 129.763 176.789C128.171 179.07 126.153 181.053 123.844 182.605C123.901 182.85 124.268 182.788 124.486 182.662C127.159 181.113 129.067 178.554 130.898 176.066C131.048 175.862 131.172 175.521 130.947 175.405ZM154.853 113.774C156.279 115.458 157.717 117.158 158.76 119.103C159.891 121.212 160.527 123.548 161.039 125.885C163.901 138.961 163.137 152.556 164.992 165.812C165.327 168.204 165.769 170.647 167.014 172.717C168.472 175.142 170.892 176.823 173.357 178.212C175.351 179.335 177.432 180.322 179.621 180.987C183.103 182.045 187.286 182.119 189.955 179.645C191.454 178.256 192.242 176.274 192.858 174.326C195.498 165.974 195.788 156.893 193.687 148.389C193.74 153.475 194.401 158.549 194.249 163.633C194.098 168.717 193.055 173.952 190.066 178.067C189.474 178.882 188.788 179.665 187.894 180.128C186.715 180.739 185.316 180.727 183.998 180.566C181.698 180.285 179.448 179.59 177.39 178.524C175.827 177.714 174.381 176.697 172.98 175.631C171.351 174.392 169.751 173.058 168.61 171.36C167.479 169.676 166.848 167.709 166.348 165.744C162.697 151.391 165.308 135.91 160.975 121.748C159.953 118.41 158.18 114.829 154.853 113.774ZM67.7372 176.914C76.1671 178.215 84.597 179.516 93.0268 180.818C92.8133 181.375 92.0426 181.395 91.4507 181.316C84.2413 180.353 77.0319 179.39 69.8225 178.426C69.0075 178.318 68.1925 178.209 67.3775 178.1C66.9906 178.048 66.5103 177.908 66.4614 177.521C66.3925 176.975 67.1936 176.83 67.7372 176.914ZM165.528 127.38C163.747 129.361 163.875 132.351 164.109 135.004C164.619 140.813 165.13 146.621 165.64 152.429C165.664 152.701 165.693 152.988 165.852 153.209C166.113 153.571 166.617 153.634 167.062 153.665C173.123 154.092 179.184 154.519 185.244 154.947C184.791 155.663 183.77 155.674 182.925 155.608C177.219 155.168 171.49 155.025 165.769 155.181C165.671 158.115 166.103 161.065 167.039 163.847C167.445 165.053 169.007 165.31 170.279 165.362C175.126 165.558 179.974 165.754 184.822 165.95C185.045 166.453 184.262 166.766 183.712 166.76C178.729 166.703 173.746 166.645 168.763 166.588C168.081 166.58 167.834 167.547 168.091 168.179C168.763 169.832 170.903 170.188 172.684 170.299L183.824 170.997C184.079 171.013 184.132 171.412 183.946 171.587C183.76 171.761 183.477 171.766 183.223 171.761L170.179 171.484C173.551 175.498 178.282 178.35 183.406 179.459C184.51 179.698 185.68 179.855 186.753 179.501C188.037 179.077 188.983 177.988 189.724 176.857C193.654 170.861 193.393 163.146 192.991 155.988L192.536 147.875C192.695 147.657 193.022 147.581 193.261 147.707C193.353 147.31 192.836 147.073 192.434 147C183.568 145.371 174.47 143.74 165.597 145.331C165.313 145.214 165.316 144.773 165.532 144.555C165.748 144.337 166.075 144.284 166.378 144.242C167.591 144.075 168.804 143.909 170.017 143.742C167.234 142.484 165.546 139.498 165.042 136.486C164.538 133.473 165.031 130.393 165.528 127.38ZM121.952 176.701C122.742 176.848 123.654 177.089 123.962 177.831C123.083 178.43 121.928 178.369 120.867 178.284C120.576 178.261 120.257 178.225 120.052 178.016C119.689 177.647 119.96 176.965 120.426 176.741C120.893 176.516 121.443 176.606 121.952 176.701ZM61.8081 171.281C70.8903 174.135 80.3019 175.939 89.7956 176.647C90.532 176.702 91.5219 177.053 91.3805 177.777C81.3399 176.642 71.3608 174.964 61.5011 172.752C60.8719 172.611 60.0647 172.163 60.299 171.562C60.5049 171.035 61.2675 171.112 61.8081 171.281ZM95.0739 175.686C95.5377 175.685 95.9854 175.844 96.4188 176.009C96.6393 176.093 96.8819 176.201 96.9673 176.421C97.1495 176.889 96.5034 177.224 96.0087 177.314C95.6757 177.374 95.3428 177.435 95.0098 177.495C94.7289 177.546 94.4266 177.595 94.1681 177.474C93.7481 177.277 93.6391 176.671 93.88 176.275C94.1208 175.878 94.6102 175.687 95.0739 175.686ZM137.842 174.685C141.859 175.449 145.974 175.492 150.063 175.533C150.38 175.536 150.465 176.034 150.239 176.256C150.013 176.477 149.66 176.487 149.344 176.481C145.526 176.406 141.704 176.003 137.898 176.303C137.484 176.336 137.053 176.375 136.664 176.229C136.275 176.083 135.943 175.69 136.017 175.281C136.081 174.929 136.425 174.682 136.776 174.614C137.128 174.545 137.49 174.618 137.842 174.685ZM146.918 111.706C142.369 112.385 138.547 116.433 138.132 121.014C137.743 125.292 136.562 129.452 135.722 133.664C133.023 147.191 133.841 161.21 131.455 174.796C132.327 173.209 132.562 171.362 132.781 169.564L138.568 122.175C138.722 120.914 138.879 119.638 139.332 118.451C140.57 115.208 143.77 113.17 146.918 111.706ZM126.236 173.083C126.483 173.162 126.737 173.265 126.902 173.466C127.068 173.667 127.109 173.991 126.929 174.178C126.792 174.319 126.579 174.345 126.384 174.362C125.744 174.418 125.105 174.475 124.466 174.531C124.12 174.562 123.764 174.591 123.435 174.482C123.106 174.373 122.81 174.088 122.8 173.742C122.784 173.155 123.508 172.86 124.093 172.822C124.815 172.775 125.546 172.864 126.236 173.083ZM139.7 124.023C139.171 124.213 139.029 124.882 138.969 125.441L136.973 144.03C136.855 145.13 138.277 145.833 139.35 145.56C140.423 145.288 141.242 144.449 142.17 143.845C143.098 143.241 144.406 142.893 145.258 143.6C146.221 144.4 147.647 143.512 148.483 142.581C149.32 141.65 150.409 140.528 151.599 140.917C150.203 142.251 148.808 143.586 147.412 144.921C146.949 145.364 146.541 146.248 147.126 146.509C148.729 145.941 150.179 144.944 151.284 143.651C151.795 143.634 151.819 144.437 151.534 144.861C150.46 146.46 147.931 146.816 147.28 148.629C145.76 152.861 141.021 155.671 136.579 154.975C135.668 154.833 135.213 156.031 135.104 156.947C134.666 160.598 134.229 164.25 133.792 167.901C133.691 168.741 133.597 169.629 133.943 170.401C134.52 171.69 136.064 172.177 137.432 172.524C140.002 173.175 142.615 173.831 145.265 173.737C147.914 173.644 150.654 172.696 152.332 170.643C151.868 170.04 150.833 170.813 150.156 170.464C149.494 170.123 149.845 168.986 150.556 168.762C151.267 168.538 152.017 168.894 152.677 169.239C153.092 168.43 153.518 167.564 153.433 166.659C153.348 165.754 152.517 164.859 151.631 165.062C151.049 165.196 150.811 164.187 151.281 163.817C151.75 163.448 152.425 163.568 153.006 163.706C153.038 161.521 153.071 159.337 153.103 157.153C153.109 156.707 153.111 156.239 152.9 155.846C152.688 155.454 152.187 155.179 151.785 155.372C151.238 155.636 150.763 154.704 151.13 154.219C151.496 153.734 152.188 153.672 152.795 153.65C152.842 151.71 152.716 149.766 152.421 147.848C150.134 148.994 149.734 152.017 149.504 154.564C149.061 159.449 148.172 164.293 146.849 169.016C146.553 170.074 146.22 171.156 145.527 172.009C144.835 172.862 143.694 173.442 142.631 173.164C142.87 172.388 143.682 171.972 144.276 171.419C145.347 170.424 145.744 168.921 146.093 167.502C147.3 162.599 148.514 157.636 148.499 152.587L148.496 152.248C148.488 151.287 148.478 150.312 148.795 149.409C149.149 148.399 150.037 147.486 151.107 147.481C152.235 147.476 152.504 145.911 152.403 144.788C152.055 140.914 151.708 137.04 151.36 133.166C151.249 131.929 151.136 130.68 150.76 129.496C149.372 125.118 144.022 122.471 139.7 124.023ZM156.721 171.268C157.251 171.411 157.765 171.956 157.545 172.458C157.335 172.939 156.674 172.965 156.152 172.916C155.897 172.892 155.625 172.861 155.425 172.7C155.076 172.417 155.125 171.817 155.452 171.509C155.78 171.201 156.286 171.152 156.721 171.268ZM93.0104 170.731C93.3592 170.807 93.7226 170.908 93.9733 171.162C94.224 171.416 94.3069 171.869 94.0578 172.124C93.8542 172.333 93.5256 172.337 93.2342 172.327C92.8152 172.312 92.3963 172.297 91.9773 172.282C91.7346 172.274 91.4753 172.26 91.2805 172.115C90.8642 171.805 91.0468 171.08 91.4939 170.817C91.9409 170.554 92.5034 170.621 93.0104 170.731ZM60.7272 166.93C63.0728 168.021 65.6497 168.497 68.1981 168.941C73.3568 169.839 78.531 170.649 83.7177 171.368C84.4435 171.469 85.2473 171.612 85.6896 172.196C83.6811 172.333 81.6736 171.999 79.6882 171.665C73.1433 170.566 66.5984 169.467 60.0535 168.368C59.3674 168.253 58.4816 167.872 58.6152 167.189C58.7736 166.38 59.9795 166.582 60.7272 166.93ZM101.453 143.748C101.225 144.662 101.269 145.619 101.3 146.56C101.494 152.439 101.145 158.335 100.259 164.149C100.048 165.535 100.876 166.921 102.015 167.74C103.153 168.558 104.555 168.91 105.932 169.175C109.036 169.773 112.207 170.018 115.366 169.904C116.567 169.861 117.818 169.75 118.845 169.126C119.818 168.535 120.477 167.552 121.058 166.573C123.521 162.42 125.136 157.766 125.776 152.98C116.916 152.94 108.108 149.597 101.453 143.748ZM124.626 167.054C125.231 167.254 125.836 167.454 126.441 167.653C126.643 167.72 126.859 167.797 126.979 167.972C127.181 168.269 126.985 168.703 126.672 168.879C126.359 169.055 125.979 169.046 125.62 169.031C124.967 169.005 124.246 168.95 123.79 168.482C123.334 168.014 123.491 167.003 124.143 166.961C124.308 166.95 124.469 167.003 124.626 167.054ZM156.336 167.142C156.696 167.199 157.075 167.266 157.353 167.502C157.63 167.738 157.744 168.206 157.488 168.466C157.385 168.571 157.242 168.625 157.104 168.673C156.568 168.859 155.974 169.008 155.444 168.805C154.915 168.602 154.553 167.902 154.886 167.443C155.192 167.021 155.821 167.06 156.336 167.142ZM62.2864 147.572C61.9137 147.748 61.5148 147.95 61.3306 148.319C61.1933 148.594 61.2004 148.916 61.2107 149.224C61.35 153.412 61.5257 157.75 63.3987 161.498C63.9045 162.51 64.548 163.485 65.4589 164.156C66.0108 164.563 66.6424 164.845 67.2686 165.124C68.3555 165.608 69.4447 166.092 70.5729 166.47C73.1573 167.335 75.8927 167.629 78.6029 167.916C79.7522 168.039 80.9762 168.148 82.0073 167.626C83.2209 167.011 83.8676 165.679 84.3896 164.422C87.3007 157.416 88.9627 149.893 89.2741 142.312C89.3184 141.235 87.9393 140.759 86.8636 140.687C78.2762 140.11 70.0637 143.885 62.2864 147.572ZM90.6076 142.008C90.3873 142.298 90.3599 142.685 90.3381 143.049C89.8243 151.622 87.6905 160.095 84.0828 167.889C87.52 166.149 90.0811 162.771 90.8279 158.992C91.0846 157.693 91.1372 156.363 91.189 155.039C91.3524 150.866 91.5157 146.693 91.6791 142.52C91.6877 142.3 91.6894 142.058 91.5494 141.888C91.3179 141.607 90.828 141.718 90.6076 142.008ZM92.0313 162.889C92.4674 162.913 92.8774 163.094 93.3013 163.199C93.681 163.294 93.7956 163.834 93.5836 164.163C93.3717 164.492 92.963 164.635 92.5756 164.689C92.1711 164.746 91.7362 164.725 91.3884 164.511C91.0406 164.297 90.8149 163.85 90.9538 163.466C91.1024 163.055 91.5951 162.865 92.0313 162.889ZM156.586 161.756C156.994 161.84 157.344 162.093 157.679 162.339C157.862 162.473 158.055 162.623 158.115 162.841C158.191 163.119 158.008 163.419 157.755 163.557C157.502 163.696 157.198 163.706 156.911 163.683C156.502 163.65 156.08 163.549 155.772 163.279C155.463 163.009 155.307 162.534 155.499 162.172C155.694 161.804 156.178 161.671 156.586 161.756ZM59.5685 148.791C59.457 148.99 59.4795 149.234 59.5052 149.46L60.1111 154.795C60.4399 157.691 60.8706 160.811 62.8942 162.907C63.2316 162.747 63.0412 162.24 62.8285 161.933C61.1893 159.567 60.8736 156.56 60.6078 153.694C60.4519 152.014 60.2961 150.335 60.1403 148.655C59.9836 148.489 59.68 148.592 59.5685 148.791ZM167.477 159.72C173.037 159.857 178.597 159.994 184.156 160.131C185.007 160.152 185.861 160.174 186.702 160.3C186.527 160.908 185.728 161.022 185.095 161.016C179.519 160.964 173.926 160.619 168.38 161.198C167.906 161.248 167.394 161.297 166.983 161.056C166.572 160.815 166.387 160.155 166.766 159.864C166.962 159.714 167.23 159.714 167.477 159.72ZM152.202 158.627C152.325 158.667 152.45 158.71 152.55 158.791C152.882 159.062 152.758 159.64 152.418 159.901C152.078 160.161 151.62 160.192 151.192 160.202C150.746 160.213 150.226 160.178 149.972 159.811C149.653 159.351 150.032 158.67 150.56 158.483C151.088 158.297 151.67 158.453 152.202 158.627ZM156.267 157.504C156.786 157.56 157.29 157.741 157.725 158.029C158.058 158.249 157.991 158.801 157.689 159.06C157.386 159.319 156.954 159.356 156.556 159.341C156.153 159.327 155.733 159.266 155.407 159.028C155.081 158.791 154.887 158.333 155.062 157.97C155.261 157.555 155.81 157.454 156.267 157.504ZM100.259 144.816C99.9566 149.179 99.8209 153.555 99.8527 157.929C99.8541 158.113 99.9799 158.376 100.138 158.28C100.473 154.603 100.637 150.911 100.63 147.22C100.628 146.402 100.612 145.554 100.259 144.816ZM94.316 156.01C94.793 156.046 95.2138 156.323 95.6026 156.602C95.7223 156.688 95.8455 156.779 95.9124 156.911C96.0511 157.182 95.8849 157.532 95.6245 157.691C95.3641 157.85 95.0417 157.863 94.7369 157.848C94.0436 157.816 93.172 157.439 93.2496 156.749C93.303 156.274 93.839 155.974 94.316 156.01ZM157.422 153.071C157.886 153.261 158.364 153.759 158.124 154.2C157.962 154.498 157.566 154.563 157.226 154.566C156.832 154.57 156.437 154.538 156.049 154.47C155.502 154.375 155.418 153.515 155.843 153.157C156.267 152.8 156.909 152.86 157.422 153.071ZM211.522 144.533C211.714 144.853 211.717 145.247 211.715 145.62C211.698 148.261 211.682 150.901 211.666 153.542C211.664 153.862 211.621 154.251 211.33 154.386C211.078 154.502 210.768 154.339 210.628 154.099C210.488 153.86 210.476 153.57 210.471 153.293C210.43 150.935 210.693 148.522 210.025 146.261C209.827 145.589 209.59 144.75 210.108 144.279C210.514 143.911 211.241 144.063 211.522 144.533ZM143.637 144.227C141.635 145.469 139.53 146.746 137.181 146.915C136.753 146.946 136.561 147.456 136.476 147.876C136.097 149.767 135.888 151.691 135.852 153.618C135.85 153.736 135.851 153.863 135.919 153.959C136.027 154.112 136.248 154.118 136.435 154.109C138.268 154.013 140.126 153.821 141.828 153.135C143.53 152.449 145.079 151.206 145.773 149.507C146.466 147.807 146.133 145.64 144.716 144.473C144.411 144.222 143.973 144.019 143.637 144.227ZM128.314 151.659C128.957 151.828 129.6 151.997 130.243 152.166C130.483 152.229 130.751 152.313 130.866 152.533C131.001 152.792 130.843 153.127 130.599 153.287C130.354 153.448 130.049 153.478 129.757 153.504C129.295 153.545 128.819 153.585 128.376 153.448C127.932 153.312 127.524 152.954 127.473 152.493C127.422 152.031 127.865 151.541 128.314 151.659ZM39.109 116.472C41.5158 117.447 43.3273 119.556 44.4509 121.897C45.5745 124.238 46.0861 126.819 46.532 129.377C47.27 133.611 47.8576 137.932 47.3195 142.196C46.7814 146.46 44.999 150.712 41.6947 153.46C44.1017 153.588 46.9756 153.493 48.2823 151.468C48.8687 150.559 50.1308 150.156 51.1351 150.558C50.5037 150.012 50.9803 148.996 51.4489 148.306C53.3688 145.476 54.6861 142.223 55.1568 138.836C56.0696 132.269 53.7748 125.613 50.3697 119.923C48.1604 116.232 43.0072 114.653 39.109 116.472ZM96.1748 150.493C96.6714 150.688 96.5557 151.509 96.0915 151.773C95.6274 152.036 95.0488 151.918 94.5316 151.786C94.2904 151.725 94.0343 151.653 93.8705 151.466C93.4881 151.028 93.927 150.288 94.4932 150.158C95.0594 150.027 95.634 150.28 96.1748 150.493ZM114.029 118.89C111.904 118.927 109.674 119.186 107.939 120.414C107.365 120.82 106.844 121.352 106.635 122.023C106.425 122.694 106.602 123.518 107.184 123.912C108.655 124.908 109.254 126.772 109.53 128.527C109.805 130.282 109.872 132.119 110.671 133.706C111.084 134.524 111.675 135.237 112.295 135.912C115.658 139.568 120.044 142.272 124.82 143.635C125.66 143.875 126.728 144.394 126.551 145.249C119.679 143.807 113.412 139.661 109.4 133.899C108.181 137.643 105.776 140.992 102.617 143.344C108.779 148.588 116.753 151.66 124.841 151.906C125.207 151.917 125.621 151.903 125.869 151.633C126.031 151.455 126.081 151.206 126.125 150.97C127.27 144.814 128.077 138.596 128.541 132.352C128.699 130.215 128.816 128.044 128.354 125.952C127.892 123.861 126.778 121.827 124.957 120.7C123.834 120.005 122.52 119.694 121.221 119.462C118.85 119.039 116.438 118.847 114.029 118.89ZM156.253 148.848C156.81 148.849 157.513 149.011 157.611 149.56C157.708 150.106 157.085 150.514 156.534 150.584C156.131 150.635 155.694 150.586 155.374 150.336C155.054 150.085 154.906 149.594 155.128 149.254C155.355 148.905 155.836 148.848 156.253 148.848ZM197.421 137.871C196.398 141.832 195.801 145.89 195.206 149.938C195.177 150.139 195.16 150.377 195.312 150.513C196.906 148.532 198.368 146.446 199.686 144.271C199.816 144.057 199.944 143.776 199.798 143.572C199.468 143.11 199.137 142.649 198.807 142.187C198.562 141.845 198.31 141.393 198.525 141.031C198.7 140.737 199.093 140.675 199.434 140.643L202.234 140.386C202.204 140.212 202.099 140.063 201.996 139.92C201.246 138.876 200.428 137.779 199.227 137.321C198.562 137.067 197.599 137.181 197.421 137.871ZM67.7104 96.8886C65.663 97.2323 63.4454 97.8244 62.2573 99.5268C61.5924 100.48 61.3477 101.656 61.1524 102.802C60.384 107.307 60.144 111.902 60.4389 116.462C69.2651 112.356 79.5918 111.576 88.9346 114.31C89.7271 114.542 90.7076 115.245 90.2916 115.958C83.2832 113.366 75.4771 112.979 68.2469 114.866C65.9073 115.477 63.6337 116.316 61.3075 116.976C57.8505 117.956 54.28 118.536 50.6904 118.699C57.228 127.576 58.074 140.286 52.7705 149.95C56.0702 149.326 59.1707 147.939 62.2132 146.518C66.7558 144.395 71.2787 142.156 76.1041 140.793C80.9295 139.431 86.1466 138.985 90.933 140.479C91.4929 140.654 91.8015 139.846 91.8238 139.26L92.8611 112.086C93.0182 107.969 93.0314 103.417 90.3364 100.302C87.9517 97.5448 84.0625 96.6825 80.4305 96.3724C76.1912 96.0105 71.9064 96.1844 67.7104 96.8886ZM130.944 147.325C131.078 147.412 131.216 147.523 131.247 147.679C131.311 147.998 130.923 148.201 130.611 148.289C130.157 148.418 129.69 148.547 129.221 148.498C128.751 148.448 128.274 148.179 128.12 147.733C127.966 147.287 128.276 146.702 128.747 146.694C129.52 146.679 130.296 146.902 130.944 147.325ZM197.517 130.226C195.81 131.183 193.77 131.533 191.841 131.199C192.088 131.887 193.17 132.127 193.175 132.858C193.178 133.303 192.759 133.616 192.521 133.992C192.337 134.281 192.258 134.622 192.185 134.957C191.498 138.103 191.103 141.314 191.008 144.533C190.992 145.088 191.13 145.82 191.681 145.881C192.824 146.006 193.9 146.647 194.555 147.592C195.091 144.216 195.627 140.841 196.164 137.465C196.288 136.682 196.393 135.807 195.934 135.161C195.303 134.271 195.852 133.052 196.406 132.112L197.517 130.226ZM95.8611 144.815C96.4438 144.931 97.1068 145.435 96.8861 145.986C96.7501 146.326 96.3394 146.464 95.9738 146.483C95.6082 146.503 95.2278 146.448 94.8854 146.578C94.4825 146.731 94.0081 146.374 93.959 145.946C93.9098 145.518 94.2073 145.102 94.5951 144.914C94.9828 144.726 95.4386 144.731 95.8611 144.815ZM156.246 144.294C156.613 144.345 157 144.425 157.268 144.682C157.535 144.94 157.609 145.429 157.324 145.667C157.23 145.745 157.111 145.787 156.995 145.826C156.491 145.999 155.951 146.167 155.433 146.039C154.915 145.912 154.465 145.362 154.644 144.86C154.851 144.28 155.636 144.21 156.246 144.294ZM189.687 137.355C189.298 137.448 189.014 137.773 188.758 138.08L187.213 139.93C186.911 140.292 187.442 140.796 187.911 140.835C188.381 140.874 188.929 140.764 189.263 141.096C189.613 141.444 189.469 142.051 189.182 142.452C188.896 142.854 188.489 143.182 188.316 143.644C188.057 144.335 188.486 145.201 189.192 145.414C189.576 145.529 190.114 145.351 190.117 144.951C190.137 142.609 190.274 140.268 190.527 137.939C190.571 137.542 190.076 137.261 189.687 137.355ZM111.298 138.518C111.594 138.714 111.786 139.029 111.983 139.325C113.678 141.862 116.513 143.607 119.542 143.975C120.243 144.061 121.069 144.146 121.421 144.758C120.761 145.412 119.685 145.332 118.78 145.122C115.573 144.375 112.634 142.522 110.578 139.95C110.25 139.54 109.951 138.916 110.317 138.539C110.564 138.284 111.002 138.321 111.298 138.518ZM188.021 127.304C185.756 127.86 183.494 128.646 181.658 130.084C179.823 131.523 178.457 133.709 178.472 136.041C178.49 138.999 177.037 141.93 174.671 143.706L178.654 144.175C179.12 144.23 179.643 144.269 180.008 143.974C180.542 143.542 180.405 142.713 180.27 142.04C180.135 141.367 180.165 140.477 180.806 140.229C181.601 139.921 182.26 141.025 182.139 141.869C182.019 142.714 181.529 143.526 181.682 144.365C183.568 144.633 185.46 144.858 187.356 145.042C186.979 144.732 186.938 144.145 187.129 143.696C187.319 143.247 187.69 142.903 188.05 142.574C188.434 142.223 187.881 141.605 187.364 141.549C186.847 141.493 186.239 141.618 185.874 141.247C185.421 140.786 185.761 140.013 186.148 139.495C186.898 138.489 187.828 137.277 187.345 136.119C186.168 133.295 186.427 129.915 188.021 127.304ZM101.16 119.588C100.844 127.318 100.888 135.062 101.29 142.788C104.242 141.186 106.4 138.367 107.738 135.285C108.554 133.405 109.1 131.333 108.774 129.31C108.531 127.801 107.816 126.407 106.986 125.124C105.512 122.848 103.589 120.794 101.16 119.588ZM169.628 115.885C170.688 115.69 171.499 116.999 171.318 118.062C171.137 119.125 170.364 119.97 169.751 120.856C168.902 122.081 168.322 123.467 167.748 124.842C166.382 128.113 165.851 131.728 166.217 135.254C166.433 137.33 167.002 139.462 168.405 141.006C169.809 142.551 172.215 143.323 174.064 142.356C175.653 141.526 176.445 139.696 176.809 137.941C177.174 136.186 177.238 134.349 177.927 132.694C179.196 129.64 182.327 127.796 185.425 126.638C180.769 126.005 176.556 122.761 174.755 118.421C174.239 117.177 173.851 115.773 172.78 114.956C171.708 114.139 169.691 114.539 169.628 115.885ZM130.271 140.785C130.599 140.848 130.92 140.943 131.229 141.069C131.738 141.276 132.286 141.85 131.958 142.291C131.779 142.533 131.435 142.562 131.135 142.57C130.587 142.584 129.996 142.585 129.548 142.269C129.101 141.952 128.946 141.187 129.397 140.876C129.645 140.705 129.976 140.729 130.271 140.785ZM154.955 139.48C155.399 139.518 155.84 139.58 156.277 139.665C156.493 139.707 156.726 139.765 156.862 139.939C157.068 140.201 156.938 140.613 156.678 140.822C156.417 141.03 156.071 141.089 155.741 141.141C155.238 141.219 154.7 141.294 154.236 141.084C153.771 140.875 153.454 140.261 153.738 139.837C153.986 139.468 154.512 139.443 154.955 139.48ZM28.2327 137.096C27.8572 137.092 27.7273 137.593 27.7387 137.969C27.7714 139.047 27.9897 140.12 28.3812 141.125C28.4901 141.236 28.6167 141.004 28.6014 140.85L28.2327 137.096ZM100.38 139.873C100.145 140 100.056 140.337 100.197 140.563L100.202 140.571L100.197 140.577C100.191 140.584 100.184 140.593 100.177 140.604C100.083 140.747 100.215 140.973 100.386 140.961C100.501 140.61 100.499 140.222 100.38 139.873ZM95.4995 138.346C96.0076 138.459 96.5591 138.88 96.4327 139.385C96.349 139.72 95.997 139.916 95.6605 139.991C95.3239 140.065 94.9682 140.06 94.6468 140.185C94.2381 140.344 93.7458 140.014 93.6616 139.584C93.5774 139.154 93.841 138.704 94.2214 138.486C94.6019 138.268 95.0713 138.252 95.4995 138.346ZM98.4398 67.1465C98.4693 90.4157 99.0039 113.684 100.043 136.93L100.152 139.334L100.169 138.561C100.199 136.754 100.172 134.946 100.146 133.139C99.8356 111.958 99.5254 90.7776 99.2152 69.5968C99.2022 68.71 99.1324 67.7006 98.4398 67.1465ZM131.722 134.944C132.007 135.029 132.293 135.158 132.478 135.392C132.663 135.625 132.716 135.983 132.533 136.218C132.356 136.445 132.035 136.488 131.748 136.513L130.524 136.622C130.324 136.64 130.109 136.654 129.935 136.554C129.794 136.473 129.701 136.324 129.658 136.168C129.53 135.696 129.849 135.185 130.29 134.975C130.731 134.765 131.254 134.804 131.722 134.944ZM33.11 116.729C31.8372 117.98 31.1752 119.708 30.5635 121.385C28.8591 126.056 27.2393 131.014 28.0803 135.914C28.3404 135.962 28.4643 135.608 28.4836 135.345C28.8293 130.617 29.7741 125.933 31.2881 121.441C31.8658 119.727 32.5607 117.986 33.844 116.712C33.8264 116.401 33.3318 116.511 33.11 116.729ZM189.587 126.947C189.365 127.002 189.221 127.211 189.105 127.408C188.01 129.267 187.494 131.461 187.647 133.613C187.71 134.502 187.996 135.525 188.826 135.849C189.5 135.201 190.175 134.554 190.85 133.906C190.957 133.803 191.066 133.696 191.126 133.56C191.274 133.22 191.062 132.839 190.868 132.523C189.906 130.958 189.184 128.975 189.985 127.323C190.085 127.117 189.809 126.893 189.587 126.947ZM203.605 124.942C203.497 124.998 203.414 125.091 203.333 125.182C201.342 127.434 199.419 129.747 197.567 132.115C197.18 132.61 196.777 133.168 196.815 133.794C196.848 134.352 197.24 134.837 197.715 135.13C198.19 135.423 198.744 135.557 199.287 135.686C199.432 135.721 199.59 135.754 199.726 135.694C199.852 135.638 199.932 135.515 200.004 135.398C201.138 133.57 202.288 131.706 202.823 129.623C202.937 129.178 203.322 128.868 203.63 128.528C204.235 127.86 204.59 126.97 204.61 126.07C204.617 125.765 204.581 125.443 204.404 125.194C204.228 124.945 203.875 124.801 203.605 124.942ZM155.103 133.858C155.377 133.926 155.68 134.03 155.803 134.284C156.02 134.733 155.511 135.2 155.035 135.348C154.666 135.462 154.254 135.501 153.901 135.347C153.547 135.192 153.278 134.802 153.358 134.424C153.501 133.753 154.437 133.693 155.103 133.858ZM95.9538 132.878C96.0833 132.994 96.2034 133.131 96.2525 133.298C96.3514 133.633 96.1169 134.004 95.7954 134.142C95.4738 134.28 95.0983 134.226 94.7743 134.094C94.433 133.955 94.1007 133.689 94.0573 133.323C94.0077 132.905 94.3868 132.519 94.8039 132.459C95.2209 132.398 95.6399 132.597 95.9538 132.878ZM132.862 129.199C133.195 129.335 133.23 129.838 133 130.115C132.771 130.391 132.388 130.483 132.03 130.513C131.672 130.543 131.301 130.53 130.967 130.661C130.453 130.863 129.894 130.241 130.016 129.703C130.138 129.165 130.717 128.83 131.268 128.804C131.82 128.779 132.351 128.991 132.862 129.199ZM154.532 128.389C155.004 128.412 155.471 128.536 155.892 128.75C156.074 128.843 156.263 128.971 156.315 129.17C156.422 129.578 155.91 129.858 155.496 129.938C155.128 130.008 154.755 130.05 154.382 130.063C153.92 130.079 153.363 129.99 153.18 129.567C153.037 129.238 153.211 128.834 153.503 128.626C153.795 128.418 154.174 128.372 154.532 128.389ZM184.952 98.253C182.199 98.6972 179.434 99.0653 176.661 99.3569C174.652 99.5681 172.76 100.708 171.634 102.385C171.403 102.729 171.243 103.279 171.601 103.49C172.611 102.324 173.983 101.476 175.478 101.092C176.013 100.955 176.597 100.881 177.101 101.105C177.605 101.33 177.965 101.948 177.737 102.45C177.387 103.221 176.27 103.005 175.425 102.954C173.074 102.81 171.041 105.501 171.821 107.724C172.368 105.602 175.397 104.681 177.095 106.066C178.793 107.451 178.585 110.493 176.769 111.719C176.169 112.124 175.399 112.407 175.125 113.077C174.89 113.652 175.116 114.301 175.341 114.879C175.695 115.787 176.048 116.695 176.402 117.603C177.143 119.507 177.93 121.48 179.43 122.866C180.584 123.932 182.08 124.567 183.606 124.938C189.108 126.279 195.302 124.145 198.81 119.7C199.091 119.343 199.733 119.681 199.783 120.132C199.833 120.583 199.525 120.989 199.22 121.325C197.649 123.054 195.669 124.409 193.488 125.247C192.457 125.643 191.232 126.071 190.916 127.129C190.653 128.005 191.205 128.973 191.998 129.429C192.791 129.885 193.757 129.923 194.666 129.824C196.479 129.626 198.233 128.916 199.674 127.798C200.11 127.459 200.533 127.063 200.727 126.546C200.911 126.055 200.869 125.513 200.825 124.992L200.786 124.543C200.616 122.599 200.396 120.631 199.603 118.853C199.221 117.997 198.711 117.195 198.43 116.302C198.084 115.2 198.105 114.018 197.872 112.886C197.64 111.755 197.05 110.579 195.973 110.162C196.258 109.44 196.967 108.985 197.427 108.358C197.887 107.732 197.954 106.638 197.231 106.355C196.885 106.22 196.491 106.336 196.161 106.508C194.771 107.229 194.021 108.996 194.468 110.497C194.759 111.476 193.211 112.134 192.378 111.542C191.544 110.95 191.339 109.823 191.175 108.815C190.538 104.904 189.259 100.689 185.92 98.5575C185.628 98.3712 185.294 98.1978 184.952 98.253ZM95.6619 125.99C96.1009 126.132 96.5388 126.527 96.4474 126.979C96.361 127.407 95.8688 127.607 95.4387 127.681C94.8286 127.785 94.033 127.665 93.8615 127.071C93.6983 126.505 94.2907 125.962 94.8764 125.9C95.1404 125.872 95.4094 125.908 95.6619 125.99ZM166.074 117.845C165.665 118.233 165.466 118.787 165.28 119.319C164.86 120.521 164.435 121.757 164.483 123.028C164.514 123.847 164.039 124.584 163.701 125.329C163.362 126.075 163.178 127.03 163.709 127.653C164.978 126.586 165.283 124.79 165.562 123.156C165.895 121.202 166.349 119.176 167.613 117.649C167.17 117.299 166.484 117.457 166.074 117.845ZM132.635 123.291C132.961 123.396 133.331 123.606 133.335 123.949C133.34 124.366 132.826 124.558 132.416 124.633C132.21 124.671 132.004 124.709 131.798 124.746C131.274 124.842 130.712 124.934 130.224 124.718C129.737 124.502 129.412 123.844 129.731 123.417C129.936 123.14 130.315 123.065 130.659 123.043C131.325 123.002 131.999 123.086 132.635 123.291ZM84.9452 117.264C85.5191 117.538 86.161 118.079 85.9485 118.678C80.0367 117.39 73.721 118.027 68.1861 120.471C65.6955 121.571 63.3576 123.025 60.78 123.902C59.8982 124.202 58.9355 124.432 58.0447 124.16C57.1538 123.888 56.4109 122.943 56.6714 122.049C56.916 121.209 57.8508 120.81 58.6789 120.53C62.7607 119.148 66.9136 117.976 71.1156 117.02C75.7004 115.978 80.7035 115.235 84.9452 117.264ZM169.83 117.193C169.408 117.191 169.053 117.501 168.776 117.819C168.102 118.59 167.624 119.516 167.268 120.476C166.826 121.668 166.564 122.928 166.495 124.198C167.717 122.095 169.024 120.042 170.411 118.044C170.652 117.697 170.252 117.195 169.83 117.193ZM162.34 120.939C162.224 120.94 162.102 120.944 162.004 121.006C161.784 121.146 161.814 121.472 161.88 121.724C162.087 122.524 162.373 123.304 162.734 124.048C162.951 123 163.298 121.979 163.766 121.016C163.293 120.962 162.816 120.936 162.34 120.939ZM69.7036 118.237C66.2044 119.312 62.7051 120.388 59.2059 121.463C58.7879 121.592 58.3029 121.79 58.2138 122.218C58.4983 122.633 59.0402 122.81 59.5429 122.785C60.0456 122.761 60.5227 122.568 60.9886 122.378C64.5386 120.927 68.0886 119.477 71.6387 118.026C71.0046 117.849 70.3329 118.044 69.7036 118.237ZM106.63 120.2C106.442 120.526 106.051 120.664 105.757 120.9C105.464 121.136 105.292 121.644 105.602 121.858C106.076 121.383 106.55 120.909 107.024 120.434C106.926 120.313 106.783 120.228 106.63 120.2ZM143.55 119.947C146.094 120.212 148.66 120.348 151.208 120.128C151.867 120.071 152.656 120.045 153.047 120.578C152.553 121.081 151.777 121.142 151.073 121.172C148.428 121.285 145.784 121.399 143.139 121.512C142.623 121.534 141.97 121.468 141.802 120.98C141.67 120.595 141.97 120.171 142.346 120.017C142.722 119.862 143.146 119.905 143.55 119.947ZM182.874 117.168C183.489 117.917 183.714 118.97 183.458 119.905C183.395 120.135 183.302 120.362 183.155 120.55C182.768 121.044 182.054 121.19 181.443 121.044C180.833 120.897 180.311 120.509 179.845 120.088C179.365 119.655 178.915 119.161 178.684 118.557C178.454 117.953 178.481 117.217 178.89 116.716C179.226 116.303 179.771 116.105 180.302 116.066C181.269 115.995 182.258 116.42 182.874 117.168ZM97.1293 118.909C97.3724 119.105 97.3316 119.513 97.1241 119.746C96.9166 119.98 96.6002 120.08 96.297 120.155C95.9391 120.245 95.5626 120.314 95.2037 120.229C94.8448 120.144 94.5082 119.865 94.464 119.499C94.4 118.968 94.9562 118.552 95.4849 118.468C96.0621 118.377 96.6748 118.541 97.1293 118.909ZM180.058 117.345C179.788 117.693 179.965 118.323 180.402 118.383C180.907 118.452 181.299 118.982 181.218 119.484C181.154 119.879 181.635 120.209 182.017 120.09C182.399 119.972 182.62 119.544 182.611 119.144C182.603 118.744 182.412 118.372 182.196 118.036C181.958 117.665 181.666 117.305 181.264 117.124C180.862 116.944 180.327 116.996 180.058 117.345ZM178.714 81.5126C175.047 82.1843 171.415 83.7859 169.05 86.6675C166.685 89.5491 165.867 93.8617 167.716 97.0987C168.369 98.2426 169.367 99.2402 170.621 99.6429C171.875 100.045 173.392 99.7492 174.229 98.7318C175.178 97.5777 177.095 98.6846 178.524 98.2465C180.5 97.6406 182.554 97.289 184.619 97.2031C185.109 97.1828 185.614 97.1797 186.071 97.3569C186.567 97.5493 186.959 97.9348 187.336 98.3104C188.643 99.6128 189.977 100.953 190.751 102.628C191.978 105.285 191.674 108.524 193.225 111.006C193.406 109.449 193.587 107.893 193.768 106.337C193.835 105.759 193.91 105.159 194.222 104.669C194.535 104.178 195.159 103.834 195.705 104.033C196.669 104.383 197.673 104.759 198.364 105.516C199.056 106.273 199.312 107.535 198.647 108.316C198.005 109.07 198.734 110.16 199.075 111.091C199.666 112.703 198.971 114.545 199.436 116.198C199.821 117.567 200.933 118.589 201.996 119.535C202.307 119.811 202.669 120.106 203.083 120.068C203.43 120.037 203.709 119.778 203.946 119.523C205.358 118 206.325 116.07 206.699 114.027C206.85 113.203 206.564 112.003 205.734 112.115C205.96 110.138 207.778 108.791 208.846 107.111C209.997 105.299 210.269 103.071 210.322 100.925C210.374 98.7683 210.164 96.4242 208.727 94.8152C207 92.8822 203.644 92.7377 201.758 94.5152C201.287 94.9583 200.668 95.5439 200.107 95.2233C200.546 94.4345 200.986 93.6457 201.426 92.8569C202.142 91.5715 202.874 90.2393 203.02 88.7749C203.307 85.8854 201.108 83.1495 198.387 82.1334C195.667 81.1173 192.596 81.5386 189.868 82.5324C189.184 82.7815 188.376 83.3165 188.561 84.0203C188.669 84.4279 189.082 84.6739 189.294 85.0384C189.426 85.2655 189.412 85.3383 189.263 85.5221C189.173 85.6332 189.01 85.9547 188.864 85.892C187.318 84.1004 185.644 82.2247 183.377 81.5472C181.873 81.0981 180.258 81.23 178.714 81.5126ZM161.145 118.462C160.952 118.347 160.582 118.272 160.618 118.494C160.723 119.036 161.211 119.44 161.738 119.606C162.266 119.772 162.831 119.744 163.383 119.714C163.599 119.703 163.829 119.686 164.001 119.555C164.145 119.445 164.224 119.272 164.297 119.106C164.423 118.822 164.549 118.538 164.674 118.255C163.649 117.587 162.198 119.086 161.145 118.462ZM131.528 116.608C131.96 116.64 132.388 116.716 132.804 116.832C133.165 116.934 133.58 117.145 133.598 117.519C133.621 118.012 132.98 118.213 132.489 118.256C131.988 118.299 131.488 118.342 130.988 118.386C130.623 118.417 130.211 118.433 129.943 118.184C129.583 117.85 129.728 117.201 130.118 116.902C130.508 116.602 131.038 116.571 131.528 116.608ZM143.228 116.501C145.621 116.821 148.046 116.898 150.455 116.731C150.737 116.711 151.045 116.695 151.278 116.856C151.51 117.018 151.568 117.434 151.314 117.56C151.237 117.598 151.148 117.602 151.063 117.605C148.151 117.715 145.24 117.825 142.328 117.935C142.063 117.945 141.77 117.946 141.566 117.776C141.201 117.472 141.41 116.821 141.83 116.596C142.249 116.371 142.757 116.438 143.228 116.501ZM166.461 114.129C165.531 114.18 164.585 114.266 163.727 114.626C162.869 114.987 162.099 115.665 161.842 116.56C161.79 116.742 161.771 116.965 161.91 117.093C162.019 117.192 162.182 117.193 162.329 117.188C163.873 117.127 165.411 116.897 166.905 116.503C167.648 116.308 168.544 115.835 168.443 115.074C168.39 114.673 168.044 114.359 167.662 114.226C167.28 114.094 166.865 114.108 166.461 114.129ZM59.2225 114.017C59.0743 114.802 59.038 115.607 59.1152 116.402C59.3072 116.609 59.56 116.204 59.5437 115.922C59.5067 115.278 59.3987 114.638 59.2225 114.017ZM108.943 113.058C114.296 113.3 119.648 113.542 125 113.784C125.5 113.806 126.164 113.998 126.134 114.497C125.495 114.907 124.671 114.822 123.917 114.734C119.146 114.178 114.319 114.102 109.533 114.505C109.12 114.54 108.681 114.574 108.312 114.384C107.943 114.195 107.705 113.69 107.945 113.351C108.154 113.055 108.581 113.042 108.943 113.058ZM95.9645 112.497C96.2 112.532 96.4452 112.594 96.6163 112.759C97.0074 113.138 96.7659 113.859 96.2956 114.133C95.8252 114.408 95.2427 114.369 94.7001 114.322C94.1047 114.271 93.9115 113.378 94.3026 112.926C94.6937 112.474 95.3736 112.407 95.9645 112.497ZM114.789 110.517C123.513 110.969 132.236 111.422 140.959 111.874C141.426 111.899 142.044 112.078 142.02 112.546C140.581 112.805 139.092 112.776 137.664 112.461L138.932 113.552C138.328 113.933 137.684 114.326 136.97 114.342C136.256 114.358 135.478 113.831 135.498 113.117C135.86 112.951 136.221 112.784 136.582 112.617C129.536 112.013 122.456 111.793 115.386 111.958C114.978 111.967 114.542 111.971 114.198 111.752C113.853 111.533 113.679 111.001 113.964 110.71C114.168 110.501 114.498 110.502 114.789 110.517ZM171.273 111.683C170.959 111.701 170.692 111.909 170.448 112.109C170.159 112.345 169.871 112.581 169.582 112.818C169.279 113.065 168.952 113.361 168.934 113.751C168.924 113.963 169.086 114.215 169.292 114.167C169.35 114.154 169.4 114.119 169.448 114.085C170.136 113.599 170.824 113.114 171.512 112.629C171.653 112.53 171.803 112.418 171.848 112.252C171.931 111.949 171.587 111.666 171.273 111.683ZM181.973 109.142C182.001 109.849 181.649 110.512 181.525 111.209C181.4 111.906 181.638 112.794 182.327 112.957C182.53 113.005 182.589 113.296 182.474 113.471C182.359 113.645 182.143 113.72 181.937 113.758C181.299 113.874 180.543 113.669 180.249 113.09C180.102 112.8 180.091 112.463 180.083 112.139C180.06 111.269 180.038 110.4 180.016 109.53C180 108.936 180.067 108.204 180.611 107.964C181.259 107.678 181.946 108.434 181.973 109.142ZM172.485 113.086C172.359 113.144 172.273 113.28 172.275 113.419L172.243 113.427C172.313 113.582 172.564 113.606 172.662 113.468C172.761 113.329 172.654 113.1 172.485 113.086ZM171.281 108.542C170.993 108.549 170.67 108.601 170.499 108.834C170.317 109.083 170.391 109.449 170.578 109.694C170.766 109.939 171.042 110.097 171.299 110.267C172.385 110.983 173.251 112.026 173.756 113.224C174.1 112.772 174.443 112.32 174.787 111.868C175.043 111.53 175.314 111.144 175.26 110.723C175.221 110.419 175.017 110.164 174.8 109.947C173.882 109.029 172.579 108.509 171.281 108.542ZM60.6477 101.547C60.2442 101.58 60.0351 102.033 59.9083 102.418C59.715 103.003 59.5218 103.589 59.3286 104.175C59.1174 104.815 58.9048 105.462 58.8469 106.133C58.8085 106.578 58.8389 107.025 58.8693 107.471C58.9642 108.862 59.0591 110.254 59.154 111.645C59.1724 111.914 59.3771 112.285 59.5995 112.133C59.5071 108.579 59.8601 105.014 60.6477 101.547ZM174.754 106.663C174.388 106.803 173.999 107.048 173.946 107.436C173.893 107.824 174.464 108.185 174.686 107.861C174.969 107.449 175.676 107.664 175.91 108.106C176.144 108.548 176.075 109.08 176.072 109.58C176.068 110.08 176.183 110.654 176.619 110.899C176.692 110.23 176.766 109.561 176.839 108.892C176.929 108.066 176.924 107.042 176.198 106.638C175.763 106.396 175.219 106.486 174.754 106.663ZM186.513 106.285C187.107 106.312 187.742 106.519 188.067 107.017C188.392 107.515 188.22 108.332 187.647 108.492C186.829 108.721 186.065 107.569 185.266 107.855C184.766 108.034 184.457 108.737 183.936 108.636C183.613 108.574 183.434 108.186 183.498 107.864C183.563 107.541 183.804 107.282 184.062 107.078C184.749 106.533 185.637 106.246 186.513 106.285ZM95.4934 105.697C96.0664 105.789 96.6273 106.417 96.3253 106.912C96.2405 107.051 96.1026 107.15 95.9584 107.226C95.6011 107.414 95.1603 107.478 94.7914 107.314C94.4225 107.15 94.1629 106.724 94.2628 106.333C94.3883 105.842 94.9925 105.616 95.4934 105.697ZM187.445 102.435C187.839 102.81 188.146 103.516 187.705 103.834C187.238 104.17 186.679 103.602 186.232 103.239C185.733 102.834 185.056 102.655 184.422 102.76C184.016 102.828 183.634 103.004 183.227 103.063C182.82 103.122 182.346 103.029 182.124 102.683C181.891 102.32 182.039 101.806 182.36 101.517C182.68 101.228 183.125 101.122 183.555 101.083C184.964 100.954 186.419 101.46 187.445 102.435ZM95.4736 101.286C95.8255 101.492 96.015 101.978 95.8192 102.336C95.5605 102.809 94.8822 102.802 94.3592 102.672C94.1708 102.626 93.9727 102.564 93.848 102.415C93.5504 102.06 93.8841 101.503 94.2995 101.298C94.6653 101.118 95.1218 101.079 95.4736 101.286Z" fill="#00160A"/>
<path fill-rule="evenodd" clip-rule="evenodd" d="M48.2506 148.828C48.2987 148.962 48.3431 149.111 48.2881 149.242C48.1895 149.476 47.8684 149.486 47.6138 149.483C45.8234 149.469 44.1589 151.007 44.0317 152.793C44.0183 152.982 43.759 153.068 43.5912 152.981C43.4235 152.893 43.3371 152.704 43.2791 152.524C42.952 151.51 43.1628 150.372 43.6842 149.442C44.2057 148.512 45.0126 147.77 45.8891 147.163C46.2292 146.927 46.6526 146.701 47.0373 146.853C47.2915 146.954 47.4576 147.196 47.596 147.432C47.8567 147.876 48.0761 148.344 48.2506 148.828ZM47.2107 148.625C47.0531 148.143 46.4135 147.97 45.9358 148.14C45.4581 148.31 45.1097 148.716 44.7846 149.106C44.4764 149.475 44.154 149.878 44.1177 150.357C44.9415 149.485 46.0362 148.871 47.2107 148.625Z" fill="#FFB61D"/>
</svg>
