<svg width="44" height="44" viewBox="0 0 44 44" fill="none" xmlns="http://www.w3.org/2000/svg">
<g clip-path="url(#clip0_4353_456)">
<path fill-rule="evenodd" clip-rule="evenodd" d="M15.3164 1.10995C17.49 0.38981 19.8142 0 22.2293 0C24.6443 0 26.9682 0.389746 29.1416 1.10976V8.10395L23.6784 13.5672V2.35664C22.7007 2.24251 21.7603 2.24206 20.7796 2.35375V22.7207L29.2628 14.2376V19.0294L20.7796 27.5126V41.4177C21.7543 41.523 22.6947 41.5146 23.6784 41.3942V31.6161L29.1416 26.1529V42.8187C26.9682 43.5387 24.6443 43.9285 22.2293 43.9285C19.8142 43.9285 17.49 43.5386 15.3164 42.8185V1.10995Z" fill="#CFB968"/>
<path fill-rule="evenodd" clip-rule="evenodd" d="M12.4169 41.6207V26.5961L12.3266 26.5058L12.3912 26.4832L1.27258 15.3648C0.886633 16.5916 0.605428 17.8647 0.439453 19.1739L6.95376 25.6882V37.7478C8.55837 39.3009 10.3991 40.6116 12.4169 41.6207ZM6.95376 6.18057V16.4908L12.4169 21.954V2.30762C10.3991 3.31673 8.55837 4.6274 6.95376 6.18057Z" fill="#CFB968"/>
<path fill-rule="evenodd" clip-rule="evenodd" d="M32.041 2.30762V28.2774L37.5042 22.8142V22.761L43.5603 16.7049C43.2657 15.5059 42.8726 14.3455 42.3901 13.233L37.5042 18.1189V6.18062C35.8996 4.62744 34.0589 3.31675 32.041 2.30762ZM37.5042 37.7476V27.4564L32.041 32.9195V41.6205C34.0589 40.6114 35.8996 39.3007 37.5042 37.7476Z" fill="#CFB968"/>
</g>
<defs>
<clipPath id="clip0_4353_456">
<rect width="43.1373" height="44" fill="white" transform="translate(0.431641)"/>
</clipPath>
</defs>
</svg>
