<svg width="32" height="32" viewBox="0 0 32 32" fill="none" xmlns="http://www.w3.org/2000/svg">
<path fill-rule="evenodd" clip-rule="evenodd" d="M29.3332 16.0013C29.3332 23.3651 23.3636 29.3346 15.9998 29.3346C8.63604 29.3346 2.6665 23.3651 2.6665 16.0013C2.6665 8.63751 8.63604 2.66797 15.9998 2.66797C23.3636 2.66797 29.3332 8.63751 29.3332 16.0013ZM12.5097 14.7599C12.6724 14.8297 12.8195 14.9313 12.9425 15.0587L14.6665 16.7827L19.0572 12.392C19.1802 12.2647 19.3273 12.1631 19.49 12.0932C19.6526 12.0233 19.8276 11.9865 20.0046 11.985C20.1817 11.9835 20.3572 12.0172 20.5211 12.0842C20.685 12.1513 20.8338 12.2503 20.959 12.3755C21.0842 12.5007 21.1832 12.6495 21.2503 12.8134C21.3173 12.9773 21.351 13.1528 21.3495 13.3299C21.348 13.5069 21.3112 13.6819 21.2413 13.8445C21.1714 14.0072 21.0698 14.1543 20.9425 14.2773L15.6092 19.6107C15.3591 19.8606 15.0201 20.001 14.6665 20.001C14.3129 20.001 13.9739 19.8606 13.7238 19.6107L11.0572 16.944C10.9298 16.821 10.8282 16.6739 10.7584 16.5112C10.6885 16.3485 10.6517 16.1736 10.6502 15.9965C10.6486 15.8195 10.6824 15.6439 10.7494 15.4801C10.8164 15.3162 10.9155 15.1673 11.0406 15.0421C11.1658 14.9169 11.3147 14.8179 11.4786 14.7509C11.6424 14.6839 11.818 14.6501 11.995 14.6517C12.1721 14.6532 12.347 14.69 12.5097 14.7599Z" fill="#36B37E"/>
</svg>
