<svg width="17" height="13" viewBox="0 0 17 13" fill="none" xmlns="http://www.w3.org/2000/svg">
<path d="M0.25 1C0.25 0.801088 0.329018 0.610322 0.46967 0.46967C0.610322 0.329018 0.801088 0.25 1 0.25H16C16.1989 0.25 16.3897 0.329018 16.5303 0.46967C16.671 0.610322 16.75 0.801088 16.75 1C16.75 1.19891 16.671 1.38968 16.5303 1.53033C16.3897 1.67098 16.1989 1.75 16 1.75H1C0.801088 1.75 0.610322 1.67098 0.46967 1.53033C0.329018 1.38968 0.25 1.19891 0.25 1ZM0.25 6.5C0.25 6.30109 0.329018 6.11032 0.46967 5.96967C0.610322 5.82902 0.801088 5.75 1 5.75H16C16.1989 5.75 16.3897 5.82902 16.5303 5.96967C16.671 6.11032 16.75 6.30109 16.75 6.5C16.75 6.69891 16.671 6.88968 16.5303 7.03033C16.3897 7.17098 16.1989 7.25 16 7.25H1C0.801088 7.25 0.610322 7.17098 0.46967 7.03033C0.329018 6.88968 0.25 6.69891 0.25 6.5ZM0.25 12C0.25 11.8011 0.329018 11.6103 0.46967 11.4697C0.610322 11.329 0.801088 11.25 1 11.25H16C16.1989 11.25 16.3897 11.329 16.5303 11.4697C16.671 11.6103 16.75 11.8011 16.75 12C16.75 12.1989 16.671 12.3897 16.5303 12.5303C16.3897 12.671 16.1989 12.75 16 12.75H1C0.801088 12.75 0.610322 12.671 0.46967 12.5303C0.329018 12.3897 0.25 12.1989 0.25 12Z" fill="#3A3A3A"/>
</svg>
