<svg width="25" height="25" viewBox="0 0 25 25" fill="none" xmlns="http://www.w3.org/2000/svg">
<rect width="24" height="24" transform="translate(0.425293 0.5)" fill="white" fill-opacity="0.01"/>
<path fill-rule="evenodd" clip-rule="evenodd" d="M12.4253 22.5C6.90229 22.5 2.42529 18.023 2.42529 12.5C2.42529 6.977 6.90229 2.5 12.4253 2.5C17.9483 2.5 22.4253 6.977 22.4253 12.5C22.4253 18.023 17.9483 22.5 12.4253 22.5ZM13.4253 8.5C13.4253 9.05228 12.9776 9.5 12.4253 9.5C11.873 9.5 11.4253 9.05228 11.4253 8.5C11.4253 7.94772 11.873 7.5 12.4253 7.5C12.9776 7.5 13.4253 7.94772 13.4253 8.5ZM12.4253 10.5C12.9776 10.5 13.4253 10.9477 13.4253 11.5V16.5C13.4253 17.0523 12.9776 17.5 12.4253 17.5C11.873 17.5 11.4253 17.0523 11.4253 16.5V11.5C11.4253 10.9477 11.873 10.5 12.4253 10.5Z" fill="white"/>
</svg>
