<svg width="136" height="136" viewBox="0 0 136 136" fill="none" xmlns="http://www.w3.org/2000/svg">
<path d="M113.333 9.91626C120.375 9.91626 126.083 15.6248 126.083 22.6663C126.083 29.7079 120.375 35.4163 113.333 35.4163C106.292 35.4161 100.583 29.7078 100.583 22.6663C100.583 15.6249 106.292 9.91644 113.333 9.91626Z" stroke="#808080" stroke-width="5.66667"/>
<path d="M39.667 14.1663H84.1504C85.9469 14.1663 87.2481 15.7682 86.874 17.552L86.8701 17.5696L86.8672 17.5872C86.1635 21.1695 86.2368 24.9012 87.0459 28.6975L87.0479 28.7063C89.176 38.5331 97.0601 46.5372 106.828 48.8469L107.294 48.9524L107.304 48.9543C111.133 49.7704 114.846 49.7712 118.365 49.1428L118.386 49.1389L118.405 49.135C120.246 48.7786 121.834 50.1375 121.834 51.8499V79.1067C121.834 93.1818 110.466 104.55 96.3906 104.55H87.834C85.1065 104.55 82.6398 105.837 81.0449 107.936L81.0381 107.945L72.5381 119.221L72.5342 119.227C71.1208 121.111 69.4507 121.833 68.001 121.833C66.5512 121.833 64.8812 121.111 63.4678 119.227L63.4629 119.221L54.9629 107.945C54.1695 106.871 53.04 106.057 51.9561 105.515C50.854 104.964 49.5112 104.55 48.167 104.55H39.667C25.592 104.55 14.1671 93.1251 14.167 79.05V39.6663C14.1672 25.5913 25.5921 14.1664 39.667 14.1663ZM45.334 53.8333C40.5774 53.8333 36.834 57.6703 36.834 62.3333C36.834 66.9962 40.5774 70.8333 45.334 70.8333C50.0906 70.8333 53.834 66.9962 53.834 62.3333C53.834 57.6518 50.0155 53.8333 45.334 53.8333ZM68.001 53.8333C63.2444 53.8333 59.501 57.6703 59.501 62.3333C59.501 66.9962 63.2444 70.8333 68.001 70.8333C72.7574 70.8331 76.501 66.9961 76.501 62.3333C76.501 57.6519 72.6823 53.8334 68.001 53.8333ZM90.667 53.8333C85.9106 53.8334 82.167 57.6704 82.167 62.3333C82.167 66.9961 85.9106 70.8331 90.667 70.8333C95.4236 70.8333 99.167 66.9962 99.167 62.3333C99.167 57.6518 95.3485 53.8333 90.667 53.8333Z" stroke="#808080" stroke-width="5.66667"/>
</svg>
