<svg width="24" height="24" viewBox="0 0 24 24" fill="none" xmlns="http://www.w3.org/2000/svg">
<rect x="0.35" y="0.35" width="23.3" height="23.3" rx="4.65" fill="currentColor"/>
<rect x="0.35" y="0.35" width="23.3" height="23.3" rx="4.65" stroke="#A8A8A8" stroke-width="0.7"/>
<path d="M17.3068 9.97359C16.8602 9.48026 16.1868 9.19359 15.2535 9.09359V8.58693C15.2535 7.67359 14.8668 6.79359 14.1868 6.18026C13.5002 5.55359 12.6068 5.26026 11.6802 5.34693C10.0868 5.50026 8.74682 7.04026 8.74682 8.70693V9.09359C7.81349 9.19359 7.14016 9.48026 6.69349 9.97359C6.04682 10.6936 6.06682 11.6536 6.14016 12.3203L6.60682 16.0336C6.74682 17.3336 7.27349 18.6669 10.1402 18.6669H13.8602C16.7268 18.6669 17.2535 17.3336 17.3935 16.0403L17.8602 12.3136C17.9335 11.6536 17.9468 10.6936 17.3068 9.97359ZM11.7735 6.27359C12.4402 6.21359 13.0735 6.42026 13.5668 6.86693C14.0535 7.30693 14.3268 7.93359 14.3268 8.58693V9.05359H9.67349V8.70693C9.67349 7.52026 10.6535 6.38026 11.7735 6.27359ZM9.61349 12.7669H9.60682C9.24016 12.7669 8.94016 12.4669 8.94016 12.1003C8.94016 11.7336 9.24016 11.4336 9.60682 11.4336C9.98016 11.4336 10.2802 11.7336 10.2802 12.1003C10.2802 12.4669 9.98016 12.7669 9.61349 12.7669ZM14.2802 12.7669H14.2735C13.9068 12.7669 13.6068 12.4669 13.6068 12.1003C13.6068 11.7336 13.9068 11.4336 14.2735 11.4336C14.6468 11.4336 14.9468 11.7336 14.9468 12.1003C14.9468 12.4669 14.6468 12.7669 14.2802 12.7669Z" fill="#545454"/>
</svg>
