<svg width="32" height="32" viewBox="0 0 32 32" fill="none" xmlns="http://www.w3.org/2000/svg">
<path d="M16 3C8.824 3 3 8.824 3 16C3 23.176 8.824 29 16 29C23.176 29 29 23.176 29 16C29 8.824 23.176 3 16 3ZM9.5 17.95C8.421 17.95 7.55 17.079 7.55 16C7.55 14.921 8.421 14.05 9.5 14.05C10.579 14.05 11.45 14.921 11.45 16C11.45 17.079 10.579 17.95 9.5 17.95ZM16 17.95C14.921 17.95 14.05 17.079 14.05 16C14.05 14.921 14.921 14.05 16 14.05C17.079 14.05 17.95 14.921 17.95 16C17.95 17.079 17.079 17.95 16 17.95ZM22.5 17.95C21.421 17.95 20.55 17.079 20.55 16C20.55 14.921 21.421 14.05 22.5 14.05C23.579 14.05 24.45 14.921 24.45 16C24.45 17.079 23.579 17.95 22.5 17.95Z" fill="#FFF0B3"/>
<circle cx="9.54639" cy="16" r="2" fill="#42526E"/>
<circle cx="16" cy="16" r="2" fill="#42526E"/>
<circle cx="22.4541" cy="16" r="2" fill="#42526E"/>
</svg>
