<svg width="24" height="24" viewBox="0 0 24 24" fill="none" xmlns="http://www.w3.org/2000/svg">
<rect x="0.35" y="0.35" width="23.3" height="23.3" rx="4.65" fill="currentColor"/>
<rect x="0.35" y="0.35" width="23.3" height="23.3" rx="4.65" stroke="#A8A8A8" stroke-width="0.7"/>
<path d="M14.0005 19.1667C13.8205 19.1667 13.6538 19.0667 13.5671 18.9133C13.4805 18.76 13.4805 18.5667 13.5738 18.4133L14.2738 17.2467C14.4138 17.0067 14.7205 16.9333 14.9605 17.0733C15.2005 17.2133 15.2738 17.52 15.1338 17.76L14.9538 18.06C16.7938 17.6267 18.1738 15.9733 18.1738 14C18.1738 13.7267 18.4005 13.5 18.6738 13.5C18.9471 13.5 19.1738 13.7267 19.1738 14C19.1671 16.8467 16.8471 19.1667 14.0005 19.1667Z" fill="#63493F"/>
<path d="M5.33301 10.4997C5.05967 10.4997 4.83301 10.273 4.83301 9.99967C4.83301 7.15301 7.15301 4.83301 9.99967 4.83301C10.1797 4.83301 10.3463 4.93301 10.433 5.08634C10.5197 5.23967 10.5197 5.43301 10.4263 5.58634L9.72634 6.75967C9.58634 6.99301 9.27967 7.07301 9.03967 6.92634C8.80634 6.78634 8.72634 6.47967 8.87301 6.23967L9.05301 5.93967C7.20634 6.37301 5.83301 8.02634 5.83301 9.99967C5.83301 10.273 5.60634 10.4997 5.33301 10.4997Z" fill="#63493F"/>
<path d="M11.1136 13.2333L9.0203 12.1066C8.8003 11.9866 8.53363 11.9866 8.31363 12.1066L6.2203 13.2333C6.06697 13.3133 5.97363 13.4799 5.97363 13.6599C5.97363 13.8399 6.06697 14.0066 6.2203 14.0866L8.31363 15.2133C8.42697 15.2733 8.54697 15.2999 8.66697 15.2999C8.78697 15.2999 8.90697 15.2733 9.0203 15.2133L11.1136 14.0866C11.267 14.0066 11.3603 13.8399 11.3603 13.6599C11.3603 13.4799 11.2603 13.3199 11.1136 13.2333Z" fill="#63493F"/>
<path d="M7.96634 15.6068L6.01967 14.6334C5.87301 14.5601 5.69967 14.5668 5.55301 14.6534C5.41967 14.7401 5.33301 14.8934 5.33301 15.0601V16.9001C5.33301 17.2201 5.50634 17.5068 5.79301 17.6468L7.73967 18.6201C7.80634 18.6468 7.87967 18.6668 7.95301 18.6668C8.03967 18.6668 8.12634 18.6401 8.20634 18.5934C8.34634 18.5068 8.43301 18.3534 8.43301 18.1868V16.3468C8.43301 16.0334 8.25301 15.7468 7.96634 15.6068Z" fill="#63493F"/>
<path d="M11.7737 14.6534C11.6337 14.5668 11.4604 14.5601 11.3071 14.6334L9.36039 15.6068C9.07372 15.7468 8.90039 16.0334 8.90039 16.3534V18.1934C8.90039 18.3601 8.98706 18.5134 9.12706 18.6001C9.20706 18.6401 9.29372 18.6668 9.38039 18.6668C9.45372 18.6668 9.52706 18.6468 9.59372 18.6134L11.5404 17.6401C11.8271 17.5001 12.0004 17.2134 12.0004 16.8934V15.0534C12.0004 14.8934 11.9137 14.7401 11.7737 14.6534Z" fill="#63493F"/>
<path d="M17.7796 6.55358L15.6863 5.42691C15.4663 5.30691 15.1996 5.30691 14.9796 5.42691L12.8863 6.55358C12.733 6.63358 12.6396 6.80025 12.6396 6.98025C12.6396 7.16025 12.733 7.32691 12.8863 7.40691L14.9796 8.53358C15.093 8.59358 15.213 8.62025 15.333 8.62025C15.453 8.62025 15.573 8.59358 15.6863 8.53358L17.7796 7.40691C17.933 7.32691 18.0263 7.16025 18.0263 6.98025C18.0263 6.79358 17.9263 6.63358 17.7796 6.55358Z" fill="#63493F"/>
<path d="M14.6333 8.92023L12.6867 7.9469C12.54 7.87357 12.3667 7.88023 12.22 7.9669C12.0867 8.05357 12 8.2069 12 8.37357V10.2136C12 10.5336 12.1733 10.8202 12.46 10.9602L14.4067 11.9336C14.4733 11.9669 14.5467 11.9869 14.62 11.9869C14.7067 11.9869 14.7933 11.9602 14.8733 11.9136C15.0133 11.8269 15.1 11.6736 15.1 11.5069V9.6669C15.1 9.3469 14.92 9.06023 14.6333 8.92023Z" fill="#63493F"/>
<path d="M18.4397 7.9669C18.2997 7.88023 18.1264 7.87357 17.9731 7.9469L16.0264 8.92023C15.7397 9.06023 15.5664 9.3469 15.5664 9.6669V11.5069C15.5664 11.6736 15.6531 11.8269 15.7931 11.9136C15.8731 11.9602 15.9597 11.9869 16.0464 11.9869C16.1197 11.9869 16.1931 11.9669 16.2597 11.9336L18.2064 10.9602C18.4931 10.8136 18.6664 10.5269 18.6664 10.2136V8.37357C18.6664 8.2069 18.5797 8.05357 18.4397 7.9669Z" fill="#63493F"/>
</svg>
