<svg width="25" height="25" viewBox="0 0 25 25" fill="none" xmlns="http://www.w3.org/2000/svg">
<path d="M19.1541 18.0951L22.0836 21.0231C22.2202 21.1646 22.2958 21.354 22.2941 21.5507C22.2924 21.7473 22.2135 21.9354 22.0745 22.0745C21.9354 22.2135 21.7473 22.2924 21.5507 22.2941C21.354 22.2958 21.1646 22.2202 21.0231 22.0836L18.0936 19.1541C16.1793 20.7943 13.704 21.6292 11.1873 21.4838C8.67065 21.3383 6.30812 20.2237 4.5955 18.3739C2.88287 16.524 1.95329 14.0828 2.00181 11.5624C2.05032 9.04193 3.07317 6.63825 4.85571 4.85571C6.63825 3.07317 9.04193 2.05032 11.5624 2.00181C14.0828 1.95329 16.524 2.88287 18.3739 4.5955C20.2237 6.30812 21.3383 8.67065 21.4838 11.1873C21.6292 13.704 20.7943 16.1793 19.1541 18.0936V18.0951ZM11.7501 20.0001C13.9382 20.0001 16.0366 19.1309 17.5838 17.5838C19.1309 16.0366 20.0001 13.9382 20.0001 11.7501C20.0001 9.56209 19.1309 7.46367 17.5838 5.91649C16.0366 4.36932 13.9382 3.50012 11.7501 3.50012C9.56209 3.50012 7.46367 4.36932 5.91649 5.91649C4.36932 7.46367 3.50012 9.56209 3.50012 11.7501C3.50012 13.9382 4.36932 16.0366 5.91649 17.5838C7.46367 19.1309 9.56209 20.0001 11.7501 20.0001Z" fill="#3A3A3A"/>
</svg>
