<svg width="258" height="250" viewBox="0 0 258 250" fill="none" xmlns="http://www.w3.org/2000/svg">
<path d="M256.271 121.337C253.504 92.6492 239.096 64.031 226.665 48.2235C173.985 -18.7677 68.2524 -18.6395 17.8969 65.5055C3.69196 89.2355 -5.22417 142 5.32667 181.025C18.8264 230.975 72.024 250.426 131.184 249.993C186.459 249.566 229.923 225.531 246.196 192.329C256.378 171.532 259.038 150.024 256.271 121.337Z" fill="#2684FF"/>
<path d="M17.8969 65.5055C3.69196 89.2355 -5.22417 142 5.32667 181.025C7.54832 189.404 11.1269 197.362 15.9203 204.584L74.6844 170.677L124.714 141.755L242.307 73.8714C237.413 63.7212 231.868 54.8425 226.665 48.2288C173.985 -18.7677 68.2524 -18.6395 17.8969 65.5055Z" fill="#2684FF"/>
<g opacity="0.2">
<path opacity="0.2" d="M17.9877 105.807C18.5877 105.416 19.087 104.889 19.4453 104.269C19.8036 103.649 20.0107 102.953 20.0498 102.238V98.0715C20.0498 96.7573 19.1256 96.2231 17.9877 96.8802L4.38115 104.739C3.75611 107.944 3.20052 111.261 2.71973 114.622L17.9877 105.807Z" fill="black"/>
<path opacity="0.2" d="M13.1367 74.9985L17.9874 72.1939C18.5874 71.8029 19.0867 71.2761 19.445 70.6561C19.8033 70.036 20.0104 69.3403 20.0495 68.6253V64.4584C20.0813 64.1899 20.034 63.918 19.9135 63.6761C19.793 63.4341 19.6044 63.2325 19.3711 63.0961C18.876 63.8903 18.3845 64.6935 17.8966 65.5055C16.0934 68.5565 14.503 71.7284 13.1367 74.9985Z" fill="black"/>
<path opacity="0.2" d="M38.7051 38.3458L42.8186 35.9685C43.4167 35.5786 43.9146 35.0533 44.2719 34.4352C44.6292 33.8171 44.836 33.1235 44.8753 32.4106C42.7669 34.2946 40.7102 36.273 38.7051 38.3458Z" fill="black"/>
<path opacity="0.2" d="M20.0497 146.082V141.915C20.0497 140.601 19.1255 140.067 17.9876 140.724L0.892578 150.607C1.00655 153.47 1.19886 156.326 1.46954 159.176L17.9876 149.64C18.5861 149.25 19.0846 148.725 19.4428 148.107C19.801 147.489 20.0089 146.795 20.0497 146.082Z" fill="black"/>
<path opacity="0.2" d="M69.6895 83.8506V79.6837C69.6895 78.3695 68.7653 77.8353 67.6274 78.4924L48.5558 89.5026C47.9565 89.8939 47.458 90.4209 47.1006 91.041C46.7433 91.661 46.5372 92.3566 46.499 93.0712V97.2381C46.499 98.5523 47.4179 99.0865 48.5558 98.4295L67.6274 87.4192C68.2274 87.0282 68.7267 86.5014 69.085 85.8813C69.4432 85.2613 69.6504 84.5656 69.6895 83.8506Z" fill="black"/>
<path opacity="0.2" d="M5.8125 182.708C6.21851 184.081 6.64588 185.438 7.11065 186.768V184.161C7.11065 183.162 6.57109 182.617 5.8125 182.708Z" fill="black"/>
<path opacity="0.2" d="M5.94635 133.896C6.54559 133.505 7.04412 132.978 7.40148 132.358C7.75885 131.738 7.96496 131.042 8.0031 130.328V126.161C8.0031 124.847 7.08424 124.312 5.94635 124.969L1.30932 127.657C1.06714 130.712 0.901537 133.784 0.8125 136.872L5.94635 133.896Z" fill="black"/>
<path opacity="0.2" d="M73.3541 62.2254L92.4204 51.2151C93.0203 50.8241 93.5197 50.2973 93.8779 49.6773C94.2362 49.0572 94.4433 48.3615 94.4825 47.6465V43.4743C94.4825 42.1654 93.5583 41.6312 92.4204 42.2883L73.3541 53.2986C72.7541 53.6895 72.2548 54.2164 71.8965 54.8364C71.5383 55.4564 71.3311 56.1521 71.292 56.8671V61.0341C71.292 62.3482 72.2162 62.8825 73.3541 62.2254Z" fill="black"/>
<path opacity="0.2" d="M86.1163 131.546L105.188 120.535C105.787 120.145 106.285 119.619 106.642 119C107 118.381 107.206 117.686 107.245 116.972V112.8C107.245 111.486 106.326 110.957 105.188 111.614L86.1163 122.624C85.5175 123.015 85.0192 123.541 84.6618 124.16C84.3044 124.779 84.0981 125.474 84.0596 126.188V130.36C84.0596 131.674 84.9784 132.203 86.1163 131.546Z" fill="black"/>
<path opacity="0.2" d="M36.4981 50.542L55.5644 39.5103C56.1643 39.1193 56.6637 38.5925 57.022 37.9725C57.3802 37.3525 57.5873 36.6567 57.6265 35.9417V31.7748C57.6265 30.4606 56.7023 29.9264 55.5644 30.5835L36.4981 41.6151C35.8972 42.0055 35.3968 42.5321 35.0376 43.1522C34.6783 43.7722 34.4704 44.4682 34.4307 45.1837V49.3506C34.4307 50.6648 35.3602 51.199 36.4981 50.542Z" fill="black"/>
<path opacity="0.2" d="M71.292 82.9531C71.292 84.2673 72.2162 84.8015 73.3541 84.1444L92.4204 73.1342C93.0203 72.7432 93.5197 72.2163 93.8779 71.5963C94.2362 70.9763 94.4433 70.2806 94.4825 69.5656V65.3987C94.4825 64.0845 93.5583 63.5503 92.4204 64.2073L73.3541 75.2176C72.7541 75.6086 72.2548 76.1354 71.8965 76.7555C71.5383 77.3755 71.3311 78.0712 71.292 78.7862V82.9531Z" fill="black"/>
<path opacity="0.2" d="M42.8023 136.653L23.7467 147.663C23.1467 148.054 22.6474 148.581 22.2891 149.201C21.9308 149.821 21.7237 150.517 21.6846 151.232V155.399C21.6846 156.713 22.6088 157.247 23.7467 156.59L42.8183 145.58C43.4175 145.188 43.9161 144.661 44.2734 144.041C44.6308 143.421 44.8369 142.726 44.8751 142.011V137.844C44.859 136.53 43.9402 135.996 42.8023 136.653Z" fill="black"/>
<path opacity="0.2" d="M119.158 0.335999C113.436 0.759309 107.751 1.58223 102.144 2.79875L98.1637 5.0959C97.5637 5.48687 97.0644 6.01372 96.7061 6.63374C96.3478 7.25375 96.1407 7.94947 96.1016 8.66448V12.8367C96.1016 14.1509 97.0258 14.6798 98.1637 14.0227L117.235 3.01244C118.187 2.39034 118.872 1.43618 119.158 0.335999Z" fill="black"/>
<path opacity="0.2" d="M57.6265 123.65V119.483C57.6265 118.169 56.7023 117.635 55.5644 118.292L36.4981 129.302C35.8972 129.692 35.3968 130.219 35.0376 130.839C34.6783 131.459 34.4704 132.155 34.4307 132.871V137.038C34.4307 138.352 35.3549 138.886 36.4928 138.229L55.5591 127.219C56.16 126.828 56.6604 126.302 57.0196 125.682C57.3788 125.061 57.5867 124.365 57.6265 123.65Z" fill="black"/>
<path opacity="0.2" d="M82.4356 153.192V149.025C82.4356 147.711 81.5167 147.177 80.3789 147.834L61.3072 158.844C60.7073 159.235 60.2079 159.762 59.8497 160.382C59.4914 161.002 59.2843 161.698 59.2451 162.413V166.58C59.2451 167.894 60.1693 168.428 61.3072 167.771L80.3735 156.761C80.9737 156.37 81.4733 155.844 81.8316 155.223C82.1899 154.603 82.3969 153.907 82.4356 153.192Z" fill="black"/>
<path opacity="0.2" d="M147.781 107.009L166.853 95.9987C167.453 95.6078 167.952 95.0809 168.311 94.4609C168.669 93.8409 168.876 93.1451 168.915 92.4301V88.2632C168.915 86.949 167.991 86.4148 166.853 87.0719L147.781 98.0822C147.182 98.4734 146.684 99.0005 146.326 99.6205C145.969 100.241 145.763 100.936 145.725 101.651V105.818C145.725 107.132 146.643 107.666 147.781 107.009Z" fill="black"/>
<path opacity="0.2" d="M160.549 110.562L179.621 99.5513C180.22 99.1601 180.719 98.633 181.076 98.013C181.434 97.393 181.64 96.6974 181.678 95.9827V91.8158C181.678 90.5017 180.759 89.9674 179.621 90.6245L160.549 101.635C159.949 102.026 159.45 102.553 159.092 103.173C158.734 103.793 158.526 104.488 158.487 105.203V109.37C158.487 110.69 159.438 111.224 160.549 110.562Z" fill="black"/>
<path opacity="0.2" d="M145.725 48.1647V52.3316C145.725 53.6458 146.643 54.18 147.781 53.5229L166.853 42.5126C167.453 42.1217 167.952 41.5948 168.311 40.9748C168.669 40.3548 168.876 39.6591 168.915 38.944V34.7771C168.915 33.4629 167.991 32.9287 166.853 33.5858L147.781 44.5961C147.182 44.9873 146.684 45.5144 146.326 46.1344C145.969 46.7545 145.763 47.45 145.725 48.1647Z" fill="black"/>
<path opacity="0.2" d="M158.659 8.52557C158.059 8.91654 157.559 9.44339 157.201 10.0634C156.843 10.6834 156.636 11.3791 156.597 12.0942V16.2664C156.597 17.5753 157.521 18.1095 158.659 17.4524L173.804 8.68584C170.638 7.4322 167.42 6.31034 164.151 5.32025L158.659 8.52557Z" fill="black"/>
<path opacity="0.2" d="M154.807 29.5258L135.741 40.5361C135.141 40.927 134.642 41.4539 134.283 42.0739C133.925 42.6939 133.718 43.3896 133.679 44.1046V48.2716C133.679 49.5857 134.603 50.12 135.741 49.4629L154.807 38.4419C155.407 38.0509 155.906 37.5241 156.265 36.9041C156.623 36.2841 156.83 35.5883 156.869 34.8733V30.7064C156.869 29.4029 155.945 28.8687 154.807 29.5258Z" fill="black"/>
<path opacity="0.2" d="M181.678 47.9777C181.678 46.6635 180.759 46.1293 179.621 46.7864L160.549 57.7967C159.949 58.1876 159.45 58.7145 159.092 59.3345C158.734 59.9545 158.526 60.6502 158.487 61.3652V65.5322C158.487 66.8463 159.411 67.3806 160.549 66.7235L179.621 55.7132C180.22 55.3219 180.719 54.7949 181.076 54.1749C181.434 53.5548 181.64 52.8592 181.678 52.1446V47.9777Z" fill="black"/>
<path opacity="0.2" d="M229.239 62.0331L210.189 73.038C209.589 73.429 209.09 73.9558 208.731 74.5758C208.373 75.1959 208.166 75.8916 208.127 76.6066V80.7789C208.127 82.093 209.046 82.6219 210.184 81.9648L229.255 70.9546C229.855 70.5636 230.355 70.0367 230.713 69.4167C231.071 68.7967 231.278 68.101 231.317 67.386V63.219C231.301 61.9049 230.377 61.376 229.239 62.0331Z" fill="black"/>
<path opacity="0.2" d="M228.967 51.2632L222.214 55.1737C221.615 55.5646 221.115 56.0915 220.757 56.7115C220.399 57.3315 220.191 58.0272 220.152 58.7423V62.9092C220.152 64.2234 221.077 64.7576 222.214 64.1005L233.326 57.6898C231.87 55.3998 230.416 53.2576 228.967 51.2632Z" fill="black"/>
<path opacity="0.2" d="M132.06 80.7468V76.5799C132.06 75.2657 131.135 74.7315 129.998 75.3886L110.926 86.3988C110.327 86.7907 109.829 87.3179 109.472 87.9378C109.115 88.5577 108.908 89.253 108.869 89.9674V94.1343C108.869 95.4485 109.793 95.9827 110.926 95.3256L129.998 84.3154C130.597 83.9244 131.097 83.3975 131.455 82.7775C131.813 82.1575 132.02 81.4618 132.06 80.7468Z" fill="black"/>
<path opacity="0.2" d="M204.43 32.4854L185.358 43.4956C184.759 43.8869 184.261 44.4139 183.903 45.034C183.546 45.654 183.34 46.3496 183.302 47.0642V51.2311C183.302 52.5453 184.221 53.0795 185.358 52.4224L204.43 41.4122C205.03 41.0212 205.529 40.4943 205.888 39.8743C206.246 39.2543 206.453 38.5586 206.492 37.8436V33.6767C206.492 32.3625 205.568 31.8283 204.43 32.4854Z" fill="black"/>
<path opacity="0.2" d="M117.235 115.674L98.1637 126.684C97.5637 127.075 97.0644 127.602 96.7061 128.222C96.3478 128.842 96.1407 129.538 96.1016 130.253V134.42C96.1016 135.734 97.0258 136.268 98.1637 135.611L117.235 124.601C117.835 124.21 118.335 123.683 118.693 123.063C119.051 122.443 119.258 121.747 119.297 121.032V116.865C119.292 115.551 118.368 115.017 117.235 115.674Z" fill="black"/>
<path opacity="0.2" d="M17.817 195.46C18.4162 195.069 18.9148 194.541 19.2721 193.921C19.6295 193.301 19.8356 192.606 19.8737 191.891V187.724C19.8737 186.41 18.9549 185.876 17.817 186.533L8.98633 191.629C9.98875 194.013 11.1102 196.346 12.3466 198.617L17.817 195.46Z" fill="black"/>
<path opacity="0.2" d="M195.344 73.0487V77.2156C195.344 78.5298 196.268 79.064 197.406 78.4069L216.472 67.3966C217.072 67.0056 217.571 66.4788 217.93 65.8588C218.288 65.2388 218.495 64.543 218.534 63.828V59.6611C218.534 58.3469 217.61 57.8127 216.472 58.4698L197.406 69.4801C196.806 69.871 196.307 70.3979 195.948 71.0179C195.59 71.6379 195.383 72.3336 195.344 73.0487Z" fill="black"/>
</g>
<path opacity="0.15" d="M85.4434 206.897C85.2305 206.775 85.0111 206.665 84.7863 206.566L84.8664 206.518L47.4711 186.058V172.291L39.0518 177.147V190.914L73.744 209.894C73.8188 210.845 74.4812 211.791 75.742 212.517C78.4131 214.067 82.7563 214.067 85.4381 212.517C86.7843 211.748 87.4521 210.722 87.4521 209.702C87.4521 208.682 86.7843 207.667 85.4434 206.897Z" fill="black"/>
<path opacity="0.15" d="M74.4654 213.522C74.2512 213.399 74.03 213.288 73.803 213.191L73.8831 213.142L36.4877 192.682V178.942L28.0791 183.75V197.517L62.7713 216.497C62.8461 217.448 63.5032 218.394 64.7693 219.12C67.4404 220.67 71.7836 220.67 74.4654 219.12C75.8116 218.346 76.4794 217.325 76.4794 216.305C76.4794 215.285 75.8116 214.291 74.4654 213.522Z" fill="black"/>
<path opacity="0.15" d="M201.738 237.855C198.021 235.619 194.006 233.918 189.814 232.802C184.44 231.263 178.061 230.131 173.51 228.266C167.569 225.846 164.909 222.262 164.733 218.287C164.631 216.038 165.587 213.383 170.385 211.006C171.789 210.303 173.28 209.787 174.819 209.472C176.968 209.077 179.17 209.061 181.325 209.424C191.006 210.856 195.573 214.585 199.297 218.308C203.02 222.032 207.155 223.902 214.522 226.856C217.674 228.111 221.029 229.303 224.026 230.595L224.095 230.627C225.599 231.202 227.065 231.875 228.481 232.641C230.436 233.87 232.194 235.179 233.065 236.707C233.935 238.235 233.871 240.008 232.258 241.894C231.725 242.531 231.042 243.027 230.271 243.337C229.292 243.73 228.272 244.013 227.231 244.181C225.184 244.552 223.102 244.693 221.023 244.603C219.376 244.517 217.74 244.294 216.13 243.935C210.992 242.835 206.108 240.773 201.738 237.855Z" fill="black"/>
<path d="M45.9489 170.282L48.6948 171.885L43.1924 181.388L40.4465 179.786C39.7413 179.38 39.3086 178.509 39.3086 177.27C39.381 175.921 39.7704 174.608 40.4452 173.437C41.12 172.267 42.0611 171.272 43.1924 170.533C44.2715 169.929 45.2438 169.86 45.9489 170.282Z" fill="#455A64"/>
<path d="M42.0547 178.872C42.1281 177.523 42.5185 176.21 43.1942 175.039C43.8699 173.869 44.8119 172.874 45.9438 172.136C48.0807 170.896 49.8329 171.901 49.8329 174.38C49.7595 175.729 49.3691 177.042 48.6934 178.213C48.0177 179.383 47.0757 180.378 45.9438 181.116C43.7962 182.355 42.0547 181.351 42.0547 178.872Z" fill="#263238"/>
<g opacity="0.3">
<path opacity="0.3" d="M43.1924 178.215C43.244 177.261 43.52 176.331 43.998 175.503C44.4761 174.676 45.1426 173.972 45.9436 173.45C47.4608 172.574 48.6948 173.284 48.6948 175.053C48.6433 176.007 48.3672 176.936 47.8892 177.764C47.4112 178.592 46.7446 179.296 45.9436 179.818C44.4264 180.678 43.1924 179.967 43.1924 178.215Z" fill="black"/>
</g>
<g opacity="0.3">
<path opacity="0.3" d="M46.7503 173.915C46.6987 174.869 46.4227 175.798 45.9446 176.626C45.4666 177.454 44.8 178.158 43.9991 178.68C43.7783 178.804 43.5433 178.901 43.2992 178.968C43.2286 178.724 43.1926 178.47 43.1924 178.215C43.244 177.261 43.52 176.331 43.998 175.504C44.4761 174.676 45.1426 173.972 45.9436 173.45C46.1658 173.325 46.4027 173.228 46.6488 173.161C46.7149 173.407 46.749 173.66 46.7503 173.915Z" fill="black"/>
</g>
<path d="M43.9986 180.01L76.2281 198.638C76.3768 198.724 76.5005 198.847 76.5868 198.995C76.6731 199.143 76.7188 199.311 76.7196 199.483V210.509H84.4978V200.93V198.446C84.4983 197.221 84.1762 196.018 83.5638 194.957C82.9514 193.897 82.0703 193.016 81.0094 192.404L47.8877 173.263C47.5763 173.118 47.2319 173.059 46.89 173.092C46.5482 173.125 46.2213 173.248 45.9432 173.45C45.1422 173.972 44.4756 174.676 43.9976 175.504C43.5195 176.331 43.2435 177.261 43.1919 178.215C43.1529 178.56 43.2077 178.909 43.3506 179.225C43.4936 179.541 43.7193 179.812 44.0039 180.01H43.9986Z" fill="#455A64"/>
<path d="M84.498 198.815C84.4958 198.275 84.4295 197.737 84.3003 197.212C84.327 197.42 84.4125 198.906 81.5544 199.856C78.4666 200.882 76.7197 199.856 76.7197 199.856V210.514H84.498V201.299V198.815Z" fill="#37474F"/>
<g opacity="0.3">
<path opacity="0.3" d="M43.9986 180.01L76.2281 198.638C76.3768 198.724 76.5005 198.847 76.5868 198.995C76.6731 199.143 76.7188 199.311 76.7196 199.482V210.509H79.6044V202.276V201.208C79.6026 199.981 79.2777 198.776 78.6626 197.715C78.0474 196.653 77.1635 195.772 76.0999 195.161L43.614 176.383C43.3626 176.963 43.2196 177.584 43.1919 178.215C43.1529 178.56 43.2077 178.909 43.3506 179.225C43.4936 179.541 43.7193 179.812 44.0039 180.01H43.9986Z" fill="black"/>
</g>
<path d="M86.1119 206.075V209.253C86.1119 210.071 85.5777 210.893 84.5092 211.513C83.3018 212.127 81.9665 212.447 80.6121 212.447C79.2577 212.447 77.9224 212.127 76.715 211.513C75.6465 210.893 75.1123 210.071 75.1123 209.259V206.053H76.7524C76.7598 206.267 76.811 206.477 76.9029 206.67C76.9948 206.863 77.1254 207.035 77.2866 207.175L77.4201 207.303C77.5689 207.43 77.7279 207.545 77.8956 207.645C78.7486 208.08 79.6923 208.306 80.6495 208.306C81.6067 208.306 82.5504 208.08 83.4034 207.645C83.572 207.546 83.7311 207.432 83.8789 207.303L84.0124 207.175C84.1733 207.035 84.3037 206.863 84.3956 206.67C84.4875 206.477 84.5389 206.267 84.5466 206.053L86.1119 206.075Z" fill="#263238"/>
<path d="M86.1119 206.075C86.1119 206.887 85.5777 207.709 84.5092 208.329C83.3011 208.94 81.9661 209.259 80.6121 209.259C79.2581 209.259 77.9231 208.94 76.715 208.329C75.6465 207.709 75.1123 206.887 75.1123 206.075C75.1123 205.263 75.6465 204.445 76.715 203.826V206.091C76.7224 206.304 76.7737 206.514 76.8656 206.707C76.9575 206.9 77.088 207.072 77.2492 207.213L77.3827 207.341C77.5315 207.468 77.6905 207.582 77.8582 207.683C78.7112 208.117 79.6549 208.344 80.6121 208.344C81.5693 208.344 82.513 208.117 83.366 207.683C83.5346 207.584 83.6937 207.469 83.8415 207.341L83.975 207.213C84.1359 207.072 84.2663 206.9 84.3582 206.707C84.4501 206.514 84.5015 206.304 84.5092 206.091V203.842C85.5777 204.445 86.1119 205.263 86.1119 206.075Z" fill="#455A64"/>
<path d="M34.7195 176.767L37.4653 178.37L31.9682 187.874L29.217 186.271C28.5118 185.865 28.0791 184.994 28.0791 183.755C28.1525 182.406 28.5429 181.092 29.2186 179.922C29.8943 178.752 30.8363 177.757 31.9682 177.019C33.042 176.415 34.0196 176.356 34.7195 176.767Z" fill="#455A64"/>
<path d="M30.8252 185.352C30.8986 184.003 31.289 182.69 31.9647 181.519C32.6404 180.349 33.5824 179.354 34.7143 178.616C36.8512 177.376 38.6034 178.381 38.6034 180.86C38.53 182.209 38.1396 183.522 37.4639 184.693C36.7882 185.863 35.8462 186.858 34.7143 187.596C32.5668 188.841 30.8252 187.836 30.8252 185.352Z" fill="#263238"/>
<g opacity="0.3">
<path opacity="0.3" d="M31.9678 184.701C32.0192 183.747 32.2946 182.818 32.7716 181.99C33.2487 181.162 33.914 180.458 34.7137 179.935C36.2362 179.059 37.4649 179.77 37.4649 181.538C37.4142 182.493 37.1385 183.422 36.6604 184.25C36.1823 185.079 35.5152 185.782 34.7137 186.303C33.1965 187.163 31.9678 186.453 31.9678 184.701Z" fill="black"/>
</g>
<g opacity="0.3">
<path opacity="0.3" d="M35.4998 180.4C35.4491 181.355 35.1734 182.284 34.6953 183.113C34.2172 183.941 33.5502 184.644 32.7486 185.165C32.5283 185.29 32.2932 185.387 32.0488 185.454C31.9826 185.208 31.9485 184.955 31.9473 184.701C31.9987 183.747 32.2741 182.818 32.7511 181.99C33.2282 181.162 33.8935 180.458 34.6932 179.935C34.9158 179.811 35.1525 179.714 35.3983 179.647C35.4645 179.893 35.4986 180.146 35.4998 180.4Z" fill="black"/>
</g>
<path d="M32.7746 186.485L65.004 205.118C65.1514 205.205 65.2738 205.328 65.359 205.476C65.4443 205.624 65.4895 205.792 65.4902 205.963V216.62H73.2684V207.416V204.932C73.2684 203.707 72.946 202.504 72.3336 201.443C71.7213 200.383 70.8406 199.502 69.78 198.889L36.6583 179.748C36.346 179.604 36.0007 179.545 35.658 179.578C35.3154 179.61 34.9876 179.734 34.7084 179.935C33.9087 180.458 33.2434 181.162 32.7664 181.99C32.2893 182.818 32.0139 183.747 31.9625 184.701C31.927 185.042 31.983 185.387 32.1248 185.699C32.2665 186.012 32.489 186.281 32.7692 186.48L32.7746 186.485Z" fill="#455A64"/>
<path d="M73.2685 204.932C73.2663 204.391 73.2 203.853 73.0708 203.329C73.1029 203.543 73.183 205.022 70.3249 205.973C67.2371 206.999 65.4902 205.973 65.4902 205.973V216.631H73.2685V207.416V204.932Z" fill="#37474F"/>
<g opacity="0.3">
<path opacity="0.3" d="M32.7751 186.485L65.0045 205.118C65.1519 205.205 65.2743 205.328 65.3595 205.476C65.4448 205.624 65.49 205.792 65.4907 205.963V216.62H68.3755V208.767V207.699C68.3764 206.473 68.0539 205.268 67.4404 204.206C66.827 203.144 65.9444 202.263 64.8817 201.651L32.3904 182.868C32.1365 183.447 31.9933 184.069 31.9684 184.701C31.9329 185.042 31.9889 185.387 32.1306 185.699C32.2724 186.012 32.4948 186.281 32.7751 186.48V186.485Z" fill="black"/>
</g>
<path d="M74.8877 212.56V215.739C74.8877 216.556 74.3535 217.379 73.2851 217.999C72.0767 218.612 70.7406 218.932 69.3853 218.932C68.03 218.932 66.6938 218.612 65.4855 217.999C64.417 217.379 63.8828 216.556 63.8828 215.744V212.539H65.5229C65.5293 212.753 65.5802 212.963 65.6721 213.156C65.7641 213.349 65.8952 213.521 66.0571 213.661C66.0971 213.706 66.1399 213.749 66.1853 213.789C66.3327 213.918 66.4919 214.032 66.6608 214.131C67.5147 214.565 68.4592 214.792 69.4173 214.792C70.3754 214.792 71.32 214.565 72.1739 214.131C72.3419 214.031 72.501 213.916 72.6494 213.789C72.6974 213.746 72.7348 213.703 72.7776 213.661C72.9368 213.519 73.0661 213.346 73.1578 213.154C73.2496 212.961 73.3019 212.752 73.3118 212.539L74.8877 212.56Z" fill="#263238"/>
<path d="M74.8877 212.56C74.8877 213.372 74.3535 214.195 73.2851 214.815C72.076 215.426 70.7401 215.744 69.3853 215.744C68.0304 215.744 66.6946 215.426 65.4855 214.815C64.417 214.195 63.8828 213.372 63.8828 212.56C63.8828 211.748 64.417 210.931 65.4855 210.311V212.576C65.4919 212.79 65.5428 213 65.6347 213.193C65.7267 213.386 65.8578 213.558 66.0197 213.698C66.0597 213.743 66.1025 213.786 66.1479 213.826C66.2953 213.955 66.4545 214.069 66.6234 214.168C67.4773 214.603 68.4218 214.829 69.3799 214.829C70.338 214.829 71.2826 214.603 72.1365 214.168C72.3045 214.068 72.4636 213.954 72.612 213.826C72.66 213.784 72.6974 213.741 72.7402 213.698C72.8994 213.556 73.0287 213.384 73.1204 213.191C73.2122 212.998 73.2645 212.789 73.2744 212.576V210.327C74.3482 210.931 74.8877 211.748 74.8877 212.56Z" fill="#455A64"/>
<path d="M123.886 54.4044C123.886 37.8436 118.068 26.2029 108.671 20.7753C99.2744 15.3476 86.2875 16.1329 71.9383 24.4186C43.2507 40.9794 20.0068 81.2596 20.0068 114.387C20.0068 130.947 25.8245 142.588 35.2214 148.01C44.6183 153.433 57.6052 152.653 71.9544 144.372C100.631 127.812 123.886 87.5314 123.886 54.4044Z" fill="#407BFF"/>
<path opacity="0.95" d="M123.886 54.4044C123.886 37.8436 118.068 26.2029 108.671 20.7753C99.2744 15.3476 86.2875 16.1329 71.9383 24.4186C43.2507 40.9794 20.0068 81.2596 20.0068 114.387C20.0068 130.947 25.8245 142.588 35.2214 148.01C44.6183 153.433 57.6052 152.653 71.9544 144.372C100.631 127.812 123.886 87.5314 123.886 54.4044Z" fill="white"/>
<g opacity="0.2">
<path opacity="0.2" d="M42.8015 136.653L30.0283 144.025C31.5738 145.575 33.316 146.914 35.2103 148.01C35.7872 148.347 36.3748 148.657 36.9785 148.94L42.8015 145.58C43.4008 145.188 43.8993 144.661 44.2566 144.041C44.614 143.421 44.8201 142.726 44.8583 142.011V137.844C44.8583 136.53 43.9394 135.996 42.8015 136.653Z" fill="#407BFF"/>
<path opacity="0.2" d="M71.291 61.0341C71.291 62.3482 72.2152 62.8825 73.3531 62.2254L92.4194 51.2151C93.0193 50.8241 93.5187 50.2973 93.877 49.6773C94.2352 49.0572 94.4423 48.3615 94.4815 47.6465V43.4743C94.4815 42.1654 93.5573 41.6312 92.4194 42.2883L73.3531 53.2986C72.7532 53.6895 72.2538 54.2164 71.8956 54.8364C71.5373 55.4564 71.3302 56.1521 71.291 56.8671V61.0341Z" fill="#407BFF"/>
<path opacity="0.2" d="M92.4194 64.2073L73.3531 75.2176C72.7532 75.6086 72.2538 76.1354 71.8956 76.7555C71.5373 77.3755 71.3302 78.0712 71.291 78.7862V82.9531C71.291 84.2673 72.2152 84.8015 73.3531 84.1444L92.4194 73.1342C93.0193 72.7432 93.5187 72.2163 93.877 71.5963C94.2352 70.9763 94.4423 70.2806 94.4815 69.5656V65.3987C94.4815 64.0845 93.5573 63.5503 92.4194 64.2073Z" fill="#407BFF"/>
<path opacity="0.2" d="M57.6263 35.9631V34.9908C54.9264 37.4606 52.3552 40.0674 49.9229 42.8011L55.5642 39.5103C56.1613 39.1215 56.659 38.598 57.0171 37.982C57.3752 37.3659 57.5839 36.6744 57.6263 35.9631Z" fill="#407BFF"/>
<path opacity="0.2" d="M104.841 111.812L86.1163 122.624C85.5175 123.015 85.0192 123.541 84.6618 124.16C84.3044 124.779 84.0981 125.474 84.0596 126.188V130.36C84.0596 131.674 84.9784 132.203 86.1163 131.546L91.9927 128.148C96.7426 123.087 101.042 117.621 104.841 111.812Z" fill="#407BFF"/>
<path opacity="0.2" d="M110.925 86.3988C110.326 86.7907 109.828 87.3179 109.471 87.9378C109.114 88.5577 108.907 89.253 108.868 89.9674V94.1343C108.868 95.4485 109.792 95.9827 110.925 95.3257L115.065 92.9377C116.685 89.2121 118.112 85.4051 119.339 81.5321L110.925 86.3988Z" fill="#407BFF"/>
<path opacity="0.2" d="M57.6265 123.65V119.483C57.6265 118.169 56.7023 117.635 55.5644 118.292L36.4981 129.302C35.8972 129.692 35.3968 130.219 35.0376 130.839C34.6783 131.459 34.4704 132.155 34.4307 132.871V137.038C34.4307 138.352 35.3549 138.886 36.4928 138.229L55.5591 127.219C56.16 126.828 56.6604 126.302 57.0196 125.682C57.3788 125.061 57.5867 124.365 57.6265 123.65Z" fill="#407BFF"/>
<path opacity="0.2" d="M67.6108 78.5084L48.5392 89.5187C47.9399 89.9099 47.4414 90.437 47.084 91.057C46.7267 91.677 46.5206 92.3726 46.4824 93.0873V97.2542C46.4824 98.5683 47.4013 99.1026 48.5392 98.4455L67.6108 87.4352C68.2158 87.0445 68.7196 86.5159 69.0809 85.8928C69.4421 85.2697 69.6505 84.5698 69.6889 83.8506V79.6837C69.6889 78.3855 68.7487 77.8513 67.6108 78.5084Z" fill="#407BFF"/>
</g>
<path opacity="0.2" d="M157.013 133.314L54.4426 150.986C47.1452 152.188 40.5957 151.12 35.2107 148.016C25.8138 142.583 20.0068 130.947 20.0068 114.387C20.0068 81.265 43.2668 40.9794 71.9544 24.4133C86.2982 16.1329 99.285 15.3315 108.682 20.7752C114.056 23.8791 118.255 29.0129 120.868 35.9364L157.013 133.314Z" fill="#407BFF"/>
<path opacity="0.2" d="M157.013 133.314L54.4426 150.986C47.1452 152.188 40.5957 151.12 35.2107 148.016C25.8138 142.583 20.0068 130.947 20.0068 114.387C20.0068 81.265 43.2668 40.9794 71.9544 24.4133C86.2982 16.1329 99.285 15.3315 108.682 20.7752C114.056 23.8791 118.255 29.0129 120.868 35.9364L157.013 133.314Z" fill="white"/>
<path d="M226.152 130.435L220.943 118.089C218.454 111.726 219.389 103.131 219.389 103.131C222.386 103.077 225.196 104.092 227.14 107.613C229.085 111.133 232.921 123.639 233.797 126.358C234.577 128.697 235.009 131.138 235.079 133.602C235.25 136.744 234.448 142.524 234.24 145.649C234.144 147.097 234.16 148.486 234.165 149.923C234.171 151.36 233.781 152.915 233.578 154.426C233.458 155.141 233.152 155.812 232.691 156.371C232.402 156.729 231.943 156.846 231.67 157.183C231.398 157.52 231.403 158.016 230.987 158.326C230.57 158.636 229.918 158.62 229.528 158.962C229.153 159.367 228.753 159.749 228.332 160.105C227.921 160.31 227.566 160.612 227.301 160.987C227.071 161.355 226.921 162.114 226.392 162.157C225.864 162.199 225.602 161.66 225.484 161.179C225.329 160.225 225.482 159.246 225.922 158.385C226.371 157.487 226.606 156.499 227.162 155.66C227.62 154.83 227.888 153.909 227.947 152.963C228.016 152.327 227.819 151.568 227.108 152.065C226.27 152.647 225.463 153.7 224.33 153.716C223.545 153.716 223.395 153.134 223.743 152.551C224.32 151.593 224.825 150.593 225.255 149.56C225.693 148.491 226.018 147.423 226.489 146.381C226.743 145.837 227.034 145.31 227.359 144.805C228.241 143.389 227.894 141.744 227.739 140.184C227.514 138.02 226.627 133.196 226.152 130.435Z" fill="#FFA8A7"/>
<path d="M218.881 102.639C223.107 102.954 225.468 103.82 227.722 107.981C229.977 112.143 232.984 122.176 233.641 124.243C234.494 126.738 235.032 129.329 235.244 131.957C235.364 133.463 235.375 134.975 235.276 136.482C235.276 136.482 234.704 137.588 231.323 137.588C227.941 137.588 226.942 136.995 226.942 136.995L225.874 130.541L218.929 115.22L218.881 102.639Z" fill="#455A64"/>
<path d="M169.588 215.878C169.247 215.728 168.963 216.594 169.054 217.074C169.3 218.469 170.657 220.317 173.018 221.711C175.379 223.106 180.636 224.051 182.175 224.484C183.713 224.917 186.091 226.541 187.517 227.273C190.135 228.608 192.271 228.453 193.457 227.86C193.665 227.729 193.843 227.556 193.981 227.353C194.119 227.15 194.213 226.921 194.259 226.68C194.569 225.611 194.547 225.381 194.43 225.349L169.588 215.878Z" fill="#263238"/>
<path d="M195.108 222.214C194.975 223.542 194.645 224.844 194.131 226.076C193.825 226.372 193.46 226.601 193.059 226.746C192.659 226.892 192.232 226.951 191.807 226.92C189.82 226.92 188.067 226.22 186.24 225.152C185.066 224.414 183.798 223.839 182.469 223.442C180.866 223.02 177.292 222.251 175.711 221.765C174.233 221.311 172.864 220.558 171.688 219.553C170.807 218.736 169.551 217.154 169.487 216.236C169.754 214.238 170.31 213.18 171.624 212.891C172.938 212.603 174.675 212.982 176.998 213.543C177.693 213.714 178.558 213.949 178.938 214.029C180.359 214.318 181.673 214.633 182.736 214.9C183.619 215.195 184.558 215.288 185.482 215.173C185.904 215.131 186.297 214.942 186.593 214.638C186.967 214.227 187.186 213.522 187.624 213.618C187.624 213.618 194.959 217.448 195.568 217.715C196.246 217.988 195.44 218.869 195.108 222.214Z" fill="#37474F"/>
<path d="M169.487 216.214C169.605 214.825 170.091 213.009 171.726 212.79C174.172 212.459 176.566 213.458 178.916 214.008L176.064 213.351C172.773 212.662 169.984 211.892 169.487 216.214Z" fill="white"/>
<path d="M178.339 213.741C178.042 213.846 177.77 214.013 177.543 214.232C177.298 214.47 177.081 214.735 176.897 215.023C176.667 215.386 177.127 215.621 177.468 215.226C177.732 214.891 178.035 214.59 178.371 214.328C178.61 214.15 178.902 214.058 179.199 214.067L179.605 214.152C179.6 213.826 178.702 213.666 178.339 213.741Z" fill="#FAFAFA"/>
<path d="M181.972 214.462C181.846 214.406 181.709 214.378 181.571 214.378C181.433 214.378 181.297 214.406 181.171 214.462C180.845 214.596 180.564 214.818 180.359 215.103C180.098 215.439 179.865 215.797 179.664 216.171C179.552 216.417 180.156 216.604 180.311 216.348C180.511 216.015 180.729 215.692 180.962 215.381C181.085 215.226 181.614 214.654 182.031 214.724L182.223 214.772C182.255 214.686 182.154 214.585 182.079 214.537L181.972 214.462Z" fill="#FAFAFA"/>
<path d="M184.05 215.066C183.863 215.044 183.675 215.085 183.515 215.183C183.31 215.331 183.129 215.512 182.981 215.717C182.735 216.072 182.543 216.461 182.41 216.871C182.297 217.197 182.944 217.304 183.013 217.09C183.181 216.51 183.5 215.984 183.937 215.568C184.133 215.388 184.369 215.26 184.627 215.194C184.627 215.13 184.546 215.092 184.482 215.082C184.418 215.071 184.146 215.066 184.05 215.066Z" fill="#FAFAFA"/>
<path d="M198.436 209.531C198.436 209.531 196.134 216.524 195.429 218.116C195.204 218.65 194.141 218.517 193.554 218.575C192.847 218.605 192.15 218.751 191.492 219.008C189.771 219.884 188.687 219.868 188.639 217.341C188.639 216.807 188.393 216.529 187.763 216.444C187.281 216.454 186.802 216.37 186.352 216.198C186.299 216.134 186.352 216.038 186.443 215.985C186.728 215.803 186.971 215.563 187.155 215.28C187.34 214.997 187.461 214.678 187.512 214.344C188.227 211.353 188.58 208.773 189.387 205.097L198.436 209.531Z" fill="#FFA8A7"/>
<path d="M204.003 140.36C204.003 140.36 200.483 144.575 198.356 152.466C196.429 159.792 194.962 167.233 193.965 174.743C193.458 178.103 193.084 180.496 192.17 186.613C191.412 191.704 188.067 210.653 188.067 210.653C188.067 210.653 190.519 212.79 192.582 213.559C194.505 214.286 196.284 214.574 196.989 214.286C196.989 214.286 199.355 208.206 202.283 200.246C203.696 196.6 204.823 192.849 205.654 189.028C206.039 187.057 205.948 183.552 205.91 181.784L221.648 157.477C222.919 155.971 223.914 154.253 224.587 152.402C226.654 147.209 224.015 139.719 224.015 139.719L204.003 140.36Z" fill="#263238"/>
<path d="M198.356 152.466C195.846 161.847 194.483 171.901 193.078 181.517C191.636 190.951 189.739 201.219 188.067 210.648C189.542 201.171 191.438 190.935 192.811 181.479C194.296 171.863 195.643 161.804 198.356 152.466Z" fill="white"/>
<path d="M219.49 147.188H200.162C199.442 148.904 198.838 150.668 198.357 152.466C196.562 159.213 195.185 166.064 194.232 172.98C194.703 176.142 195.231 179.39 195.728 181.623C197.026 187.5 197.833 191.688 198.864 194.119C199.895 196.55 202.358 199.995 202.369 199.995C203.742 196.416 204.84 192.737 205.654 188.99C206.039 187.019 205.948 183.515 205.91 181.746L217.343 164.117L218.23 158.641C221.152 153.876 220.826 150.308 219.49 147.188Z" fill="black"/>
<path d="M226.247 220.547C225.254 218.944 224.714 215.904 222.535 209.691L214.035 216.636L219.073 224.65C219.232 225.06 219.354 225.483 219.436 225.916C220.521 227.492 226.247 220.547 226.247 220.547Z" fill="#FFA8A7"/>
<path d="M229.245 223.934C229.245 223.843 229.282 223.095 229.245 223.004C229.031 222.197 228.534 221.973 227.893 221.524C227.251 221.09 226.66 220.584 226.13 220.018C225.917 219.719 225.874 219.564 225.543 219.43C225.111 219.295 224.655 219.256 224.207 219.315C223.759 219.374 223.328 219.53 222.946 219.772C221.109 220.734 220.548 221.909 220.655 223.159C220.735 224.115 220.815 225.392 219.965 225.964C219.613 226.204 219.057 224.671 219.057 224.671C218.523 225.542 219.271 226.754 219.65 228.528C219.871 229.508 219.889 230.522 219.704 231.509C219.517 233.064 219.303 233.058 218.475 233.165C217.764 233.261 215.745 233.128 214.516 233.982C214.048 234.256 213.678 234.668 213.455 235.162C213.233 235.656 213.171 236.208 213.277 236.739C213.496 237.337 215.339 240.238 222.06 239.154C224.009 238.838 228.107 235.772 228.048 235.489C228.013 235.196 228.013 234.9 228.048 234.607C228.048 233.918 228.096 233.229 228.128 232.545C228.103 231.888 228.142 231.229 228.246 230.579C228.37 230.052 228.452 229.517 228.492 228.977C228.62 227.593 228.753 226.215 228.882 224.837C228.951 224.415 229.298 224.35 229.245 223.934Z" fill="#37474F"/>
<path d="M230.094 223.661C230.756 224.302 230.35 226.167 229.464 228.4C229.068 229.388 228.336 231.098 228.55 232.909C228.764 234.72 228.801 235.58 228.336 236.429C227.605 237.759 223.694 239.463 221.392 239.998C222.784 238.044 223.595 235.736 223.731 233.341C223.967 229.34 224.266 226.76 226.103 224.981C228.417 222.748 230.094 223.661 230.094 223.661Z" fill="black"/>
<path d="M213.293 236.739C213.293 236.739 214.64 239.266 219.843 239.18C221.894 239.148 222.99 238.149 223.048 235.04C223.112 231.301 223.412 227.497 224.624 225.638C225.837 223.779 227.771 222.871 229.272 223.004C229.623 223.11 229.92 223.345 230.105 223.661C230.105 223.661 228.604 223.17 226.27 225.104C224.544 226.535 224.079 229.522 224.106 233.229C224.106 234.832 224.213 236.637 223.748 237.85C223.533 238.383 223.196 238.858 222.765 239.239C222.333 239.619 221.82 239.893 221.264 240.04C218.433 240.831 214.565 239.506 213.587 238.331C213.42 238.105 213.307 237.845 213.256 237.569C213.205 237.293 213.218 237.009 213.293 236.739Z" fill="#263238"/>
<path d="M219.543 232.487C219.332 232.635 219.182 232.856 219.121 233.106C219.098 233.426 219.161 233.747 219.305 234.034C219.449 234.32 219.668 234.563 219.938 234.736C220.253 234.933 220.526 234.864 220.029 234.201C219.711 233.686 219.543 233.092 219.543 232.487Z" fill="#FAFAFA"/>
<path d="M219.806 230.542C219.806 230.542 219.64 230.649 219.603 231.172C219.689 231.834 220.032 232.435 220.559 232.844C221.093 233.112 220.81 232.481 220.559 232.171C220.189 231.692 219.931 231.135 219.806 230.542Z" fill="#FAFAFA"/>
<path d="M219.639 228.4C219.639 228.4 219.458 228.448 219.639 229.164C219.892 229.616 220.292 229.968 220.772 230.163C221.124 230.205 221.306 230.029 220.863 229.714C220.531 229.468 219.703 228.747 219.639 228.4Z" fill="#FAFAFA"/>
<path d="M216.21 140.36C217.129 141.301 219.416 144.458 219.79 149.314C219.931 152.505 218.929 155.642 216.963 158.161C216.226 168.93 215.526 189.263 215.526 189.263C218.027 192.794 218.662 195.059 220.308 200.311C221.307 203.516 224.768 216.155 224.768 216.155C219.704 216.919 216.627 221.369 216.627 221.369C216.627 221.369 209.607 210.06 204.938 202.191C201.519 196.432 200.344 193.953 199.201 190.689C198.132 187.687 197.384 184.054 196.359 177.045C195.333 170.036 194.329 160.81 193.826 153.908C193.324 147.006 193.613 139.799 193.613 139.799L216.21 140.36Z" fill="#263238"/>
<path d="M216.626 221.369C214.206 217.539 209.425 209.82 207.08 205.947C204.008 200.749 200.584 195.652 198.799 189.824C197.374 183.94 196.304 177.977 195.594 171.965C194.841 165.966 194.242 159.945 193.842 153.908C194.088 156.921 194.378 159.931 194.713 162.937C195.669 171.943 196.849 180.972 199.072 189.754C200.813 195.551 204.211 200.668 207.245 205.856L216.642 221.348L216.626 221.369Z" fill="white"/>
<path d="M225.34 148.801C224.516 148.535 223.794 148.022 223.272 147.332C223.024 146.852 222.844 146.339 222.738 145.809C222.524 144.924 222.232 144.059 221.867 143.224L221.333 143.459C221.68 144.267 221.959 145.104 222.166 145.959C222.286 146.546 222.489 147.113 222.77 147.642C223.394 148.483 224.279 149.096 225.286 149.383C225.308 149.191 225.329 149.025 225.34 148.801Z" fill="black"/>
<path d="M211.509 154.971C211.634 154.972 211.76 154.959 211.883 154.934C212.727 154.747 213.384 154.181 214.693 152.509C215.686 151.232 215.585 150.318 215.419 148.801C215.355 148.24 214.768 145.264 214.735 144.479L214.175 144.789C214.212 145.596 214.778 148.299 214.837 148.865C215.008 150.372 215.083 151.061 214.233 152.145C213.021 153.694 212.444 154.213 211.755 154.368C211.065 154.523 208.133 154.026 207.342 153.481C206.888 153.166 206.129 149.276 205.68 145.847L205.104 145.927C205.328 147.658 206.129 153.353 207.011 153.94C207.796 154.501 210.334 155.003 211.509 154.971Z" fill="black"/>
<path d="M205.862 99.4979L206.925 107.287L217.508 106.747L216.365 98.312L205.862 99.4979Z" fill="#FFA8A7"/>
<path d="M201.642 84.919C200.83 85.9501 198.34 88.7601 197.902 89.4973L200.274 90.9343L201.642 84.919Z" fill="#F28F8F"/>
<path d="M201.642 84.919C200.498 86.5264 199.249 88.0559 197.902 89.4973C198.963 87.8287 200.219 86.2919 201.642 84.919Z" fill="white"/>
<path d="M207.519 77.0927C204.249 76.7401 202.129 79.0586 201.178 86.0195C201.14 86.292 200.74 86.7193 200.435 87.7611C199.121 92.2272 199.853 96.4795 200.611 97.6121C202.508 99.1346 204.613 99.7062 207.663 99.4445C209.987 99.2468 215.917 98.5416 218.93 95.4004C222.466 91.709 224.272 86.137 221.74 83.2523C218.203 79.1868 209.335 77.285 207.519 77.0927Z" fill="#FFA8A7"/>
<path d="M207.518 77.0927C202.604 76.6814 201.925 82.686 201.22 86.292C199.879 88.8295 199.676 91.8799 199.884 94.7059C199.934 95.7129 200.181 96.7003 200.611 97.6121C200.141 96.7131 199.849 95.7317 199.751 94.722C199.452 91.8585 199.639 88.7654 200.985 86.1744C201.631 82.5524 202.588 76.4463 207.518 77.0927Z" fill="white"/>
<path d="M200.621 97.6121C201.038 98.2372 204.035 99.7757 205.915 99.8932L205.739 98.4295C204.004 98.3847 202.283 98.1098 200.621 97.6121Z" fill="#F28F8F"/>
<path d="M206.882 89.289C206.914 89.4007 206.977 89.5011 207.064 89.5785C207.151 89.6559 207.258 89.707 207.373 89.7261C207.487 89.7451 207.605 89.7312 207.712 89.686C207.819 89.6407 207.911 89.5661 207.978 89.4706C208.322 88.9664 208.721 88.5023 209.169 88.087C209.737 87.6189 210.458 87.3756 211.194 87.4032C213.939 87.6115 213.266 91.2282 211.92 92.4889C209.714 94.5457 208.544 92.7667 208.544 92.7667C208.544 92.7667 206.941 96.2659 209.265 98.3119C209.265 98.3119 213.25 100.032 216.381 99.0598C218.721 96.5383 220.286 94.9464 221.862 92.7774C225.601 87.6382 225.601 82.5525 223.203 81.0994C223.336 79.2777 222.353 76.5318 218.603 74.9505C215.035 73.4387 212.647 73.5882 210.056 73.7325C207.465 73.8767 204.302 75.0573 201.903 73.054C201.61 73.7775 201.493 74.5606 201.563 75.3382C201.632 76.1159 201.887 76.8657 202.304 77.5254C201.917 77.3391 201.471 77.3144 201.065 77.4566C200.66 77.5989 200.327 77.8965 200.141 78.284C199.954 78.6715 199.93 79.1172 200.072 79.5229C200.214 79.9287 200.512 80.2613 200.899 80.4476C200.643 80.5941 200.445 80.8245 200.339 81.0999C200.233 81.3754 200.225 81.6789 200.317 81.9595C200.423 82.2348 200.606 82.4741 200.843 82.6492C201.081 82.8243 201.363 82.9278 201.658 82.9478C202.194 82.9792 202.732 82.9451 203.26 82.8463C204.014 84.9511 206.391 85.6883 207.807 85.6028C207.769 85.6028 207.582 85.8913 207.556 85.9287C207.475 86.0462 207.401 86.1691 207.331 86.292C207.196 86.5433 207.083 86.8061 206.995 87.0773C206.82 87.6237 206.753 88.1988 206.797 88.7708C206.795 88.9472 206.824 89.1225 206.882 89.289Z" fill="#455A64"/>
<path d="M201.914 73.054C201.635 73.7778 201.529 74.5572 201.606 75.3292C201.683 76.1012 201.941 76.8444 202.358 77.4987L202.448 77.6376L202.293 77.5682C201.92 77.4032 201.497 77.39 201.114 77.5315C200.731 77.6729 200.419 77.9579 200.242 78.326C200.066 78.6941 200.04 79.1164 200.169 79.5034C200.299 79.8905 200.574 80.2119 200.936 80.3995L201.033 80.4476L200.936 80.4957C199.596 81.3505 200.579 83.0546 202.005 82.9424C202.434 82.945 202.863 82.9128 203.287 82.8463C202.655 82.9929 202.001 83.0201 201.359 82.9264C200.173 82.6646 199.756 81.0246 200.883 80.3995V80.4957C200.483 80.3044 200.175 79.962 200.027 79.5437C199.879 79.1254 199.904 78.6656 200.095 78.2653C200.286 77.8651 200.629 77.5572 201.047 77.4094C201.465 77.2616 201.925 77.2861 202.325 77.4774L202.267 77.5522C201.847 76.8873 201.596 76.1307 201.534 75.3472C201.471 74.5637 201.6 73.7768 201.909 73.054H201.914Z" fill="white"/>
<path d="M221.82 103.82C224.566 105.358 226.654 110.487 226.451 114.766C226.323 117.48 225.383 124.473 224.56 130.659C224.304 132.609 225.095 135.9 225.436 139.853C225.704 142.786 225.741 145.906 225.741 145.906C225.741 145.906 222.06 150.457 211.963 151.05C199.067 151.814 193.357 148.694 193.357 148.694C193.357 148.694 193.282 138.191 193.592 129.868C194.051 117.533 194.078 113.927 196.006 109.723C196.642 108.483 197.31 105.722 199.409 105.171C201.076 104.739 204.912 103.82 206.434 103.569C208.924 104.21 215.388 104.263 216.99 102.901L216.964 102.543C219.736 102.548 220.126 102.874 221.82 103.82Z" fill="#FAFBFC"/>
<path d="M152.739 135.381C153.161 135.478 153.728 135.259 154.342 134.719C155.589 133.53 156.425 131.975 156.73 130.28C156.842 129.473 156.73 128.88 156.404 128.581L153.877 126.161C153.526 125.878 153.099 125.706 152.649 125.668C152.2 125.63 151.749 125.727 151.356 125.947C149.219 127.048 147.52 130.221 147.766 132.614C147.878 133.688 152.494 135.323 152.739 135.381Z" fill="#455A64"/>
<path d="M156.597 130.034C156.672 129.693 156.634 129.338 156.489 129.021C156.344 128.703 156.1 128.442 155.793 128.277C155.486 128.111 155.133 128.05 154.789 128.103C154.444 128.156 154.126 128.32 153.883 128.57C153.12 129.1 152.493 129.803 152.052 130.62C151.611 131.438 151.369 132.348 151.345 133.277C151.268 133.618 151.305 133.976 151.45 134.294C151.595 134.613 151.84 134.876 152.149 135.042C152.457 135.208 152.811 135.268 153.157 135.214C153.503 135.159 153.822 134.993 154.064 134.74C154.828 134.212 155.456 133.51 155.896 132.692C156.337 131.874 156.577 130.963 156.597 130.034Z" fill="#263238"/>
<path d="M169.845 142.727C170.029 142.799 170.228 142.823 170.423 142.796C170.619 142.769 170.804 142.692 170.961 142.572C171.403 142.264 171.766 141.856 172.021 141.382C172.277 140.908 172.417 140.381 172.43 139.842C172.444 139.645 172.406 139.449 172.321 139.271C172.236 139.093 172.106 138.94 171.944 138.827L155.854 129.649C155.615 129.525 155.349 129.463 155.08 129.469C154.811 129.474 154.548 129.547 154.315 129.681C153.721 130.005 153.234 130.495 152.914 131.09C152.593 131.686 152.453 132.362 152.509 133.036C152.527 133.304 152.611 133.564 152.755 133.79C152.899 134.017 153.097 134.204 153.332 134.334L169.845 142.727Z" fill="#455A64"/>
<path d="M172.431 139.842C172.444 139.645 172.407 139.449 172.321 139.271C172.236 139.093 172.107 138.94 171.945 138.827C171.767 138.742 171.569 138.708 171.373 138.729C171.177 138.75 170.99 138.824 170.834 138.945C170.376 139.252 170.001 139.666 169.739 140.151C169.477 140.636 169.338 141.177 169.333 141.728C169.319 141.928 169.362 142.127 169.456 142.304C169.551 142.481 169.693 142.627 169.867 142.727C170.05 142.799 170.25 142.823 170.445 142.796C170.641 142.769 170.826 142.692 170.983 142.572C171.421 142.262 171.78 141.853 172.031 141.379C172.283 140.905 172.42 140.379 172.431 139.842Z" fill="#263238"/>
<path d="M190.022 137.46C191.475 136.973 192.549 135.291 194.633 130.953C197.24 125.557 198.645 124.339 200.557 118.815C202.16 114.771 200.023 107.314 199.051 105.759C195.797 106.918 193.527 107.992 191.331 112.554C189.36 116.657 185.412 124.937 183.612 128.581C183.612 128.581 173.136 130.841 170.32 131.028C169.228 131.124 168.13 130.919 167.147 130.435C166.559 130.133 165.906 129.979 165.245 129.986C164.986 129.977 164.727 130.015 164.481 130.098C164.022 130.321 163.614 130.637 163.285 131.028C162.583 131.607 161.846 132.142 161.078 132.63C160.229 133.266 159.23 133.699 158.37 134.345C157.632 134.879 156.82 135.344 156.356 136.167C156.269 136.3 156.211 136.449 156.185 136.605C156.171 136.741 156.186 136.878 156.231 137.007C156.275 137.136 156.347 137.254 156.441 137.353C156.633 137.551 156.872 137.696 157.136 137.775C157.509 137.839 157.87 137.964 158.204 138.143C158.551 138.4 158.578 138.907 158.893 139.212C159.385 139.677 160.191 139.607 160.752 139.992C161.185 140.291 161.425 140.836 161.89 141.06C162.143 141.172 162.415 141.238 162.692 141.253C163.183 141.301 163.669 141.45 164.161 141.45C164.748 141.45 165.005 141.172 165.491 140.916C167.168 139.981 168.076 138.859 171.041 138.662C173.023 138.533 188.569 137.946 190.022 137.46Z" fill="#FFA8A7"/>
<path d="M199.366 105.171C195.824 106.015 193.73 107.308 191.401 111.582C189.264 115.541 183.388 128.191 183.388 128.191L177.511 129.842C177.043 130.527 176.72 131.301 176.564 132.116C176.408 132.932 176.421 133.77 176.603 134.58C177.164 137.326 178.382 138.56 178.382 138.56C178.382 138.56 181.379 138.475 186.486 138.298C191.593 138.122 191.962 136.941 193.084 134.719C194.206 132.497 201.097 119.088 201.097 119.088C201.097 119.088 203.886 109.173 199.366 105.171Z" fill="#455A64"/>
<path d="M206.449 103.617C204.067 104.055 201.716 104.685 199.376 105.273C197.613 105.621 195.962 106.397 194.568 107.533C192.303 109.568 191.101 112.447 189.76 115.118C187.624 119.467 185.62 123.869 183.564 128.25V128.303H183.505L177.628 129.938C174.776 130.37 171.752 131.327 168.856 131.06C167.857 130.969 167.019 130.322 166.068 130.135C165.596 130.037 165.108 130.037 164.636 130.135C164.19 130.313 163.795 130.6 163.488 130.969C162.008 132.294 160.239 133.196 158.589 134.249C157.814 134.831 156.895 135.317 156.398 136.172C156.885 135.296 157.798 134.804 158.535 134.211C160.165 133.143 161.928 132.187 163.343 130.873C163.665 130.483 164.08 130.182 164.551 129.997C165.044 129.892 165.553 129.892 166.046 129.997C167.024 130.178 167.831 130.814 168.83 130.905C171.725 131.145 174.706 130.189 177.527 129.735L183.371 128.073L183.291 128.143C185.303 123.737 187.381 119.364 189.525 115.022C190.898 112.351 192.127 109.45 194.424 107.41C195.852 106.223 197.574 105.446 199.408 105.161C201.455 104.589 204.142 104.012 206.428 103.611L206.449 103.617Z" fill="white"/>
<path opacity="0.3" d="M197.107 181.613C194.671 190.722 192.886 199.993 191.765 209.355C191.401 212.384 190.942 215.739 188.597 217.683C186.796 219.174 184.323 219.452 181.983 219.623C177.613 219.932 172.875 219.959 169.21 217.673C169.68 218.971 170.957 220.515 173.014 221.722C175.396 223.116 180.631 224.062 182.175 224.495C183.719 224.927 186.086 226.546 187.518 227.283C190.135 228.619 192.272 228.464 193.463 227.871C193.67 227.738 193.847 227.564 193.984 227.36C194.121 227.156 194.215 226.926 194.259 226.685C194.575 225.617 194.548 225.387 194.43 225.36C194.768 224.336 195.001 223.28 195.125 222.208C195.44 219.003 196.193 218.068 195.627 217.726C195.932 216.957 196.391 215.664 196.85 214.334C196.901 214.323 196.951 214.308 197 214.291C197 214.291 199.367 208.212 202.299 200.257C202.497 199.723 202.684 199.189 202.866 198.686C200.878 195.284 199.863 193.275 199.212 190.7C198.56 188.125 197.855 185.668 197.107 181.613ZM235.223 131.93C235.015 129.303 234.486 126.71 233.647 124.211C232.985 122.143 229.977 112.084 227.723 107.949C225.469 103.814 223.107 102.944 218.882 102.607C218.245 102.539 217.604 102.512 216.964 102.527C216.964 102.527 216.964 102.73 216.964 102.831L216.43 98.9476C218.727 96.4742 220.281 94.8876 221.836 92.7453C225.575 87.6008 225.575 82.5204 223.177 81.0673C223.316 79.2403 222.327 76.4997 218.582 74.9184C217.385 74.3989 216.13 74.0258 214.843 73.8073C213.584 73.9546 212.342 74.2248 211.135 74.6139C209.474 75.1481 207.823 75.9655 206.766 77.3545C205.847 78.5725 205.467 80.1004 205.109 81.5802C203.961 86.3294 202.812 91.1694 203.192 96.0361C203.209 96.8669 203.414 97.6831 203.79 98.4241C204.028 98.7974 204.339 99.1187 204.704 99.3684C205.07 99.6182 205.482 99.7912 205.916 99.8772C205.916 99.8772 208.219 100.027 209.373 100.048C209.533 101.031 209.763 102.506 209.907 103.489C209.995 103.814 209.98 104.16 209.864 104.477C209.741 104.657 209.583 104.809 209.4 104.926C209.216 105.043 209.01 105.121 208.796 105.155C204.618 106.304 199.746 106.405 196.808 109.589C195.773 110.839 194.944 112.246 194.35 113.756L189.767 123.848C188.773 126.043 187.71 128.324 185.813 129.81C182.389 132.481 177.501 131.765 173.281 132.807C170.22 133.565 167.495 135.269 164.466 136.113C163.772 136.311 163.077 136.498 162.372 136.648C161.667 136.797 160.887 136.728 160.15 136.84C159.869 136.868 159.604 136.984 159.392 137.171C159.18 137.358 159.032 137.606 158.969 137.882C158.95 138.176 158.999 138.47 159.113 138.742C159.257 139.101 159.5 139.412 159.813 139.639C160.141 139.703 160.455 139.822 160.742 139.992C161.181 140.291 161.416 140.836 161.88 141.06C162.133 141.173 162.405 141.237 162.682 141.247C163.167 141.342 163.658 141.408 164.151 141.445C164.738 141.445 164.995 141.167 165.481 140.911L165.86 140.686C167.313 139.805 168.302 138.832 171.037 138.651L171.603 138.619C172.843 138.555 175.401 138.443 178.238 138.309C178.356 138.453 178.425 138.523 178.425 138.523C178.425 138.523 181.422 138.443 186.529 138.266C191.636 138.09 192.005 136.904 193.127 134.687L193.469 134.014V134.067C195.109 130.862 198.026 125.13 198.987 123.255C198.987 123.255 198.635 138.747 198.672 145.473C198.742 158.011 200.707 170.448 202.663 182.831C203.149 185.876 204.442 188.771 205.526 191.672C206.723 194.877 207.957 198.083 209.266 201.235C211.808 207.484 214.886 213.502 218.465 219.222C219.324 220.423 220.041 221.719 220.602 223.084C221.275 225.013 221.238 227.107 221.173 229.142C221.215 230.82 220.971 232.493 220.452 234.089C219.384 236.942 215.671 237.214 213.363 235.532C213.237 235.925 213.217 236.346 213.304 236.75C213.227 237.021 213.213 237.306 213.262 237.583C213.311 237.861 213.422 238.124 213.588 238.352C214.565 239.549 218.433 240.858 221.264 240.062L221.403 240.019C223.706 239.485 227.616 237.786 228.348 236.456C228.818 235.606 228.781 234.746 228.562 232.935C228.343 231.124 229.096 229.415 229.475 228.421C230.367 226.188 230.768 224.329 230.106 223.683C229.92 223.367 229.623 223.132 229.272 223.026C229.059 222.224 228.562 222 227.926 221.551C227.28 221.118 226.686 220.611 226.158 220.039C226.055 219.851 225.917 219.685 225.752 219.548C225.41 218.725 225.079 217.635 224.646 216.209H224.785C224.785 216.209 221.307 203.516 220.308 200.311C218.663 195.059 218.027 192.794 215.527 189.263C215.527 189.263 215.981 176.094 216.542 165.34L221.649 157.45C222.641 156.294 223.455 154.995 224.064 153.598C224.047 153.628 224.033 153.658 224.021 153.689C224.121 153.719 224.226 153.732 224.331 153.727C225.463 153.727 226.27 152.658 227.109 152.076C227.18 152.011 227.266 151.966 227.359 151.943C227.453 151.921 227.55 151.922 227.643 151.948L227.702 151.91C228.604 151.477 228.658 153.513 228.642 153.946C228.568 154.974 228.318 155.982 227.905 156.927C227.274 158.497 226.478 160.078 226.553 161.767C226.553 161.884 226.569 162.001 226.601 162.114C226.975 161.927 227.135 161.318 227.312 160.997C227.58 160.626 227.934 160.324 228.343 160.116C228.766 159.763 229.165 159.383 229.539 158.978C229.935 158.636 230.544 158.689 231.003 158.342C231.463 157.995 231.393 157.552 231.682 157.199C231.97 156.846 232.413 156.745 232.707 156.382C233.167 155.822 233.471 155.151 233.589 154.437C233.792 152.925 234.182 151.461 234.176 149.939C234.171 148.416 234.176 147.092 234.256 145.665C234.401 143.405 234.86 139.757 235.042 136.722C235.129 136.655 235.204 136.571 235.261 136.477C235.357 134.962 235.345 133.443 235.223 131.93ZM229.55 143.721C229.24 144.869 228.353 145.745 227.675 146.718C226.318 148.662 225.757 151.082 224.341 152.989C224.427 152.786 224.518 152.578 224.603 152.359C225.278 150.434 225.526 148.385 225.33 146.354C225.477 146.222 225.615 146.079 225.741 145.927C225.741 145.927 225.704 142.807 225.437 139.88C225.079 135.921 224.304 132.636 224.56 130.686C224.865 128.367 225.191 125.931 225.479 123.65C226.3 125.27 227.014 126.942 227.616 128.656C229.059 132.849 229.416 137.315 229.646 141.712C229.719 142.384 229.687 143.064 229.55 143.726V143.721Z" fill="black"/>
<path d="M43.8865 109.421C43.7299 109.513 43.6255 109.526 43.5471 109.421C43.4857 109.379 43.4288 109.331 43.3775 109.278L39.8011 104.253V111.288C39.7954 111.42 39.7597 111.55 39.6967 111.666C39.6428 111.78 39.5565 111.875 39.4487 111.94L38.4175 112.541C38.3816 112.567 38.3382 112.582 38.2935 112.582C38.2489 112.582 38.2055 112.567 38.1695 112.541C38.1338 112.508 38.1059 112.467 38.0878 112.422C38.0697 112.377 38.062 112.328 38.0651 112.28V101.25C38.0708 101.118 38.1065 100.989 38.1695 100.872C38.2234 100.758 38.3097 100.663 38.4175 100.598L39.3182 100.076C39.4617 99.9974 39.5662 99.9844 39.6445 100.076L39.8142 100.219L43.3905 105.244V98.2092C43.396 98.0726 43.4317 97.9389 43.4949 97.8177C43.5488 97.7039 43.6351 97.6085 43.7429 97.5436L44.7741 96.9431C44.81 96.9166 44.8534 96.9023 44.8981 96.9023C44.9427 96.9023 44.9861 96.9166 45.0221 96.9431C45.0578 96.9761 45.0858 97.0167 45.1038 97.0618C45.1219 97.107 45.1296 97.1557 45.1265 97.2042V108.233C45.1228 108.366 45.0869 108.496 45.0221 108.612C44.9642 108.727 44.879 108.825 44.7741 108.899L43.8865 109.421Z" fill="#37474F"/>
<path d="M46.8122 100.245C46.8393 99.5854 46.9311 98.9296 47.0863 98.2875C47.2409 97.6337 47.4777 97.0022 47.7911 96.408C48.0968 95.8097 48.4832 95.2563 48.9397 94.7634C49.41 94.2435 49.9609 93.8028 50.5713 93.4581C51.0625 93.1412 51.6214 92.9444 52.2028 92.8838C52.6116 92.8385 53.0223 92.9505 53.3515 93.1971C53.6871 93.4762 53.9325 93.8487 54.0563 94.2674C54.2307 94.7989 54.3274 95.3528 54.3435 95.912C54.3435 96.1208 54.3435 96.3558 54.3435 96.6168V98.2092C54.3435 98.4703 54.3435 98.7182 54.3435 98.9401C54.3163 99.6001 54.2245 100.256 54.0693 100.898C53.9089 101.546 53.6723 102.172 53.3645 102.764C53.053 103.366 52.6623 103.924 52.2028 104.422C51.7309 104.94 51.1803 105.381 50.5713 105.727C50.0796 106.046 49.5214 106.246 48.9397 106.315C48.5312 106.357 48.1215 106.246 47.7911 106.001C47.4498 105.727 47.2033 105.353 47.0863 104.931C46.9199 104.403 46.8277 103.854 46.8122 103.3C46.8122 103.078 46.8122 102.856 46.8122 102.595C46.8122 102.334 46.8122 102.06 46.8122 101.786C46.8122 101.511 46.8122 101.237 46.8122 100.963C46.8122 100.689 46.7469 100.467 46.8122 100.245ZM52.6075 96.9823C52.6342 96.6938 52.5952 96.403 52.4935 96.1318C52.3918 95.8605 52.2299 95.6158 52.0201 95.416C51.7883 95.3032 51.5294 95.2581 51.2732 95.2858C51.0169 95.3135 50.7736 95.4129 50.5713 95.5726C49.9646 95.9382 49.4684 96.4614 49.1355 97.0867C48.7627 97.7778 48.5571 98.5467 48.5351 99.3317C48.5351 99.7755 48.5351 100.258 48.5351 100.781C48.5351 101.303 48.5351 101.786 48.5351 102.216C48.5082 102.502 48.5484 102.79 48.6527 103.058C48.7569 103.325 48.9223 103.564 49.1355 103.756C49.3637 103.875 49.6217 103.923 49.8771 103.895C50.1325 103.867 50.374 103.764 50.5713 103.6C51.1585 103.24 51.6402 102.731 51.9679 102.125C52.336 101.437 52.5372 100.673 52.5553 99.893C52.5553 99.4492 52.5553 98.9662 52.5553 98.4311C52.5553 97.8959 52.6205 97.4 52.6075 96.9823Z" fill="#37474F"/>
<path d="M61.8075 87.1277C61.8435 87.1012 61.8869 87.0869 61.9315 87.0869C61.9762 87.0869 62.0196 87.1012 62.0555 87.1277C62.0929 87.1594 62.122 87.1997 62.1402 87.2452C62.1584 87.2908 62.1652 87.34 62.16 87.3888V88.6026C62.1543 88.7351 62.1186 88.8645 62.0555 88.9812C62.0017 89.0949 61.9154 89.1903 61.8075 89.2553L59.5103 90.5605V99.9191C59.5047 100.052 59.4689 100.181 59.4059 100.298C59.352 100.411 59.2657 100.507 59.1579 100.572L58.1268 101.172C58.0909 101.199 58.0474 101.213 58.0028 101.213C57.9581 101.213 57.9147 101.199 57.8788 101.172C57.8404 101.141 57.8107 101.101 57.7924 101.055C57.7741 101.01 57.7679 100.96 57.7743 100.911V91.5655L55.4771 92.8708C55.4412 92.8973 55.3978 92.9116 55.3531 92.9116C55.3085 92.9116 55.265 92.8973 55.2291 92.8708C55.1934 92.8378 55.1654 92.7972 55.1474 92.7521C55.1293 92.7069 55.1216 92.6583 55.1247 92.6097V91.3958C55.1284 91.2589 55.1641 91.1248 55.2291 91.0043C55.283 90.8905 55.3693 90.7951 55.4771 90.7302L61.8075 87.1277Z" fill="#37474F"/>
<path d="M71.8459 81.3325C71.8798 81.3071 71.921 81.2933 71.9634 81.2933C72.0058 81.2933 72.047 81.3071 72.0809 81.3325C72.1192 81.3634 72.1489 81.4036 72.1672 81.4494C72.1855 81.4951 72.1917 81.5447 72.1853 81.5935V82.8074C72.1878 82.941 72.1515 83.0725 72.0809 83.1859C72.0276 83.2997 71.9468 83.3983 71.8459 83.4731L67.7605 85.8225V89.1378L71.5849 86.932C71.6199 86.9033 71.6637 86.8877 71.7089 86.8877C71.7541 86.8877 71.7979 86.9033 71.8329 86.932C71.8697 86.9669 71.8981 87.0097 71.9162 87.0572C71.9343 87.1046 71.9415 87.1555 71.9373 87.2061V88.4069C71.9336 88.5438 71.8979 88.6779 71.8329 88.7985C71.779 88.9123 71.6927 89.0076 71.5849 89.0726L67.7605 91.2784V95.1942C67.7549 95.3266 67.7191 95.4561 67.6561 95.5727C67.6064 95.6851 67.5247 95.7804 67.4211 95.8468L66.3769 96.4472C66.3431 96.4726 66.3018 96.4863 66.2595 96.4863C66.2171 96.4863 66.1759 96.4726 66.142 96.4472C66.1027 96.4172 66.0722 96.377 66.0538 96.3311C66.0354 96.2851 66.0298 96.235 66.0376 96.1861V85.1568C66.0348 85.0191 66.071 84.8833 66.142 84.7653C66.1917 84.6528 66.2734 84.5575 66.3769 84.4912L71.8459 81.3325Z" fill="#37474F"/>
<path d="M73.269 84.9741C73.2961 84.314 73.3879 83.6583 73.5431 83.0162C73.6991 82.3647 73.9313 81.7338 74.2348 81.1366C74.5526 80.5417 74.938 79.9855 75.3835 79.479C75.8606 78.9612 76.4155 78.5209 77.0281 78.1738C77.5173 77.8603 78.0702 77.6597 78.6466 77.5864C79.0606 77.5504 79.4735 77.6664 79.8082 77.9127C80.1358 78.199 80.3794 78.569 80.5131 78.983C80.6827 79.5153 80.775 80.0691 80.7872 80.6276C80.7872 80.8364 80.7872 81.0714 80.7872 81.3324V82.9509C80.7872 83.212 80.7872 83.46 80.7872 83.6819C80.76 84.3419 80.6682 84.9976 80.5131 85.6397C80.357 86.287 80.1248 86.9136 79.8213 87.5062C79.5097 88.1081 79.119 88.6656 78.6596 89.1639C78.185 89.6791 77.6349 90.1192 77.0281 90.4691C76.5311 90.7862 75.9689 90.987 75.3835 91.0565C74.9752 91.0954 74.5668 90.984 74.2348 90.7432C73.9016 90.4644 73.6604 90.0913 73.5431 89.6729C73.3767 89.1444 73.2845 88.5953 73.269 88.0414C73.269 87.8195 73.269 87.5845 73.269 87.3235V85.705C73.2429 85.4309 73.2559 85.1568 73.269 84.9741ZM79.0642 81.711C79.0913 81.4213 79.0512 81.1293 78.947 80.8577C78.8429 80.586 78.6776 80.342 78.4638 80.1447C78.2357 80.0266 77.9777 79.9784 77.7223 80.0063C77.4669 80.0342 77.2254 80.1368 77.0281 80.3013C76.4157 80.6598 75.9178 81.1849 75.5923 81.8154C75.2181 82.506 75.0124 83.2752 74.9919 84.0604C74.9919 84.5042 74.9919 84.9871 74.9919 85.5092C74.9919 86.0313 74.9919 86.5142 74.9919 86.945C74.9649 87.2307 75.0052 87.5188 75.1094 87.7863C75.2137 88.0537 75.3791 88.293 75.5923 88.4852C75.8205 88.6033 76.0784 88.6514 76.3338 88.6235C76.5892 88.5957 76.8307 88.493 77.0281 88.3285C77.633 87.9666 78.1291 87.448 78.4638 86.8275C78.8365 86.141 79.0422 85.3764 79.0642 84.5955C79.0642 84.1518 79.0642 83.6688 79.0642 83.1337C79.0642 82.5985 79.0773 82.1286 79.0642 81.711Z" fill="#37474F"/>
<path d="M89.4007 71.2038C89.4357 71.1752 89.4795 71.1595 89.5247 71.1595C89.5699 71.1595 89.6137 71.1752 89.6487 71.2038C89.6839 71.2394 89.7105 71.2827 89.7263 71.3302C89.7422 71.3777 89.7469 71.4283 89.74 71.4779V78.474C89.7466 79.1591 89.6721 79.8426 89.5182 80.5102C89.3642 81.1581 89.1319 81.7849 88.8264 82.3767C88.5144 82.9632 88.1284 83.5071 87.6778 83.9952C87.2076 84.5046 86.667 84.9441 86.0723 85.3004C85.5851 85.6083 85.0377 85.8086 84.4669 85.8878C84.0631 85.9456 83.6524 85.8476 83.3183 85.6137C82.985 85.3318 82.7478 84.9532 82.6395 84.5303C82.4745 83.9536 82.3997 83.3548 82.4176 82.7552V75.7591C82.4168 75.6274 82.4482 75.4974 82.509 75.3806C82.5669 75.266 82.652 75.1674 82.757 75.0934L83.8012 74.493C83.8351 74.4676 83.8763 74.4539 83.9187 74.4539C83.961 74.4539 84.0023 74.4676 84.0361 74.493C84.0729 74.528 84.1014 74.5708 84.1195 74.6182C84.1376 74.6656 84.1448 74.7165 84.1406 74.7671V81.6719C84.1299 82.0469 84.1784 82.4213 84.2841 82.7813C84.3472 83.0145 84.4847 83.2207 84.6757 83.3687C84.8605 83.4775 85.0788 83.5147 85.2892 83.4731C85.5661 83.4208 85.8314 83.3191 86.0723 83.1729C86.3576 83.0066 86.6208 82.8048 86.8555 82.5725C87.1037 82.3308 87.3149 82.0537 87.482 81.7502C87.658 81.4195 87.7938 81.0689 87.8866 80.706C87.9859 80.2781 88.034 79.8399 88.0302 79.4007V72.483C88.0358 72.3505 88.0716 72.2211 88.1346 72.1044C88.1848 71.9882 88.272 71.8919 88.3826 71.8303L89.4007 71.2038Z" fill="#37474F"/>
<path d="M97.493 78.4739C97.4414 78.5037 97.3829 78.5194 97.3233 78.5194C97.2637 78.5194 97.2052 78.5037 97.1536 78.4739L96.9839 78.3303L93.4076 73.4096V80.4318C93.4039 80.5687 93.3681 80.7028 93.3031 80.8234C93.2529 80.9396 93.1658 81.0359 93.0551 81.0975L92.024 81.6979C91.9874 81.7226 91.9442 81.7358 91.9 81.7358C91.8558 81.7358 91.8126 81.7226 91.776 81.6979C91.7402 81.6649 91.7123 81.6243 91.6942 81.5792C91.6762 81.534 91.6684 81.4854 91.6716 81.4368V70.4075C91.6772 70.2751 91.713 70.1457 91.776 70.029C91.8338 69.9179 91.9192 69.8235 92.024 69.7549L92.9246 69.2328C93.0682 69.1415 93.1726 69.1415 93.2509 69.2328C93.3124 69.2746 93.3692 69.3227 93.4206 69.3764L96.997 74.4016V67.275C97.0006 67.1381 97.0364 67.0039 97.1014 66.8834C97.1553 66.7696 97.2416 66.6743 97.3494 66.6093L98.3805 66.0089C98.4164 65.9824 98.4599 65.9681 98.5045 65.9681C98.5492 65.9681 98.5926 65.9824 98.6285 66.0089C98.6643 66.0419 98.6922 66.0824 98.7103 66.1276C98.7284 66.1727 98.7361 66.2214 98.7329 66.2699V77.3253C98.7273 77.4578 98.6916 77.5872 98.6285 77.7038C98.5746 77.8176 98.4884 77.913 98.3805 77.9779L97.493 78.4739Z" fill="#37474F"/>
<path d="M104.176 62.6283C104.681 62.3224 105.239 62.1143 105.821 62.0149C106.228 61.9601 106.642 62.0577 106.982 62.289C107.328 62.5618 107.579 62.9361 107.7 63.3593C107.887 63.933 107.988 64.5311 108 65.1344C108 65.9567 108 66.8051 108 67.6666C107.975 68.38 107.874 69.0887 107.7 69.7811C107.55 70.4404 107.313 71.0768 106.995 71.6737C106.686 72.258 106.3 72.7981 105.847 73.2791C105.379 73.7911 104.838 74.2309 104.241 74.5844L101.017 76.4378C100.984 76.4654 100.943 76.4806 100.9 76.4806C100.857 76.4806 100.815 76.4654 100.782 76.4378C100.743 76.4049 100.713 76.3624 100.694 76.3144C100.676 76.2664 100.671 76.2145 100.678 76.1637V65.1214C100.676 64.9878 100.712 64.8563 100.782 64.7428C100.832 64.6268 100.913 64.5272 101.017 64.4557L104.176 62.6283ZM106.277 66.1264C106.271 65.8157 106.219 65.5077 106.121 65.2127C106.051 64.9828 105.915 64.7786 105.729 64.6254C105.635 64.5543 105.528 64.5026 105.414 64.4735C105.299 64.4444 105.18 64.4383 105.064 64.4557C104.725 64.5076 104.401 64.6275 104.111 64.8081L102.401 65.8001V73.4749L104.176 72.4438C104.515 72.2522 104.823 72.0102 105.09 71.7259C105.348 71.4552 105.563 71.1472 105.729 70.8122C105.904 70.4825 106.036 70.1315 106.121 69.768C106.212 69.4048 106.265 69.0329 106.277 68.6586C106.369 67.7971 106.369 66.9617 106.33 66.1264H106.277Z" fill="#37474F"/>
</svg>
