<svg width="24" height="24" viewBox="0 0 24 24" fill="none" xmlns="http://www.w3.org/2000/svg">
<rect x="0.35" y="0.35" width="23.3" height="23.3" rx="4.65" fill="currentColor"/>
<rect x="0.35" y="0.35" width="23.3" height="23.3" rx="4.65" stroke="#A8A8A8" stroke-width="0.7"/>
<path d="M17.3997 10.1463C16.193 10.1463 15.6997 9.29297 16.2997 8.2463C16.6463 7.63963 16.4397 6.8663 15.833 6.51963L14.6797 5.85963C14.153 5.5463 13.473 5.73297 13.1597 6.25963L13.0863 6.3863C12.4863 7.43297 11.4997 7.43297 10.893 6.3863L10.8197 6.25963C10.5197 5.73297 9.83967 5.5463 9.31301 5.85963L8.15967 6.51963C7.55301 6.8663 7.34634 7.6463 7.69301 8.25297C8.29967 9.29297 7.80634 10.1463 6.59967 10.1463C5.90634 10.1463 5.33301 10.713 5.33301 11.413V12.5863C5.33301 13.2796 5.89967 13.853 6.59967 13.853C7.80634 13.853 8.29967 14.7063 7.69301 15.753C7.34634 16.3596 7.55301 17.133 8.15967 17.4796L9.31301 18.1396C9.83967 18.453 10.5197 18.2663 10.833 17.7396L10.9063 17.613C11.5063 16.5663 12.493 16.5663 13.0997 17.613L13.173 17.7396C13.4863 18.2663 14.1663 18.453 14.693 18.1396L15.8463 17.4796C16.453 17.133 16.6597 16.353 16.313 15.753C15.7063 14.7063 16.1997 13.853 17.4063 13.853C18.0997 13.853 18.673 13.2863 18.673 12.5863V11.413C18.6663 10.7196 18.0997 10.1463 17.3997 10.1463ZM11.9997 14.1663C10.8063 14.1663 9.83301 13.193 9.83301 11.9996C9.83301 10.8063 10.8063 9.83297 11.9997 9.83297C13.193 9.83297 14.1663 10.8063 14.1663 11.9996C14.1663 13.193 13.193 14.1663 11.9997 14.1663Z" fill="#545454"/>
</svg>
