<svg width="16" height="16" viewBox="0 0 16 16" fill="none" xmlns="http://www.w3.org/2000/svg">
<path fill-rule="evenodd" clip-rule="evenodd" d="M14.6666 7.99998C14.6666 11.6819 11.6819 14.6666 7.99998 14.6666C4.31808 14.6666 1.33331 11.6819 1.33331 7.99998C1.33331 4.31808 4.31808 1.33331 7.99998 1.33331C11.6819 1.33331 14.6666 4.31808 14.6666 7.99998ZM6.25491 7.37926C6.33625 7.4142 6.40981 7.46499 6.47131 7.52866L7.33331 8.39066L9.52864 6.19533C9.59014 6.13165 9.66371 6.08086 9.74504 6.04593C9.82638 6.01099 9.91386 5.9926 10.0024 5.99183C10.0909 5.99106 10.1787 6.00793 10.2606 6.04145C10.3425 6.07497 10.417 6.12447 10.4796 6.18706C10.5422 6.24966 10.5917 6.32409 10.6252 6.40602C10.6587 6.48796 10.6756 6.57574 10.6748 6.66426C10.674 6.75278 10.6557 6.84026 10.6207 6.9216C10.5858 7.00293 10.535 7.0765 10.4713 7.13799L7.80464 9.80466C7.67963 9.92964 7.51009 9.99985 7.33331 9.99985C7.15654 9.99985 6.987 9.92964 6.86198 9.80466L5.52864 8.47133C5.46497 8.40983 5.41418 8.33627 5.37924 8.25493C5.3443 8.17359 5.32591 8.08611 5.32514 7.99759C5.32437 7.90907 5.34124 7.82129 5.37476 7.73936C5.40828 7.65743 5.45779 7.58299 5.52038 7.5204C5.58298 7.4578 5.65741 7.4083 5.73934 7.37478C5.82127 7.34126 5.90906 7.32439 5.99758 7.32516C6.0861 7.32593 6.17358 7.34432 6.25491 7.37926Z" fill="#00875A"/>
</svg>
