<svg width="32" height="32" viewBox="0 0 32 32" fill="none" xmlns="http://www.w3.org/2000/svg">
<path fill-rule="evenodd" clip-rule="evenodd" d="M14.944 12.4267L12.3866 15.004C12.1387 15.2538 11.9996 15.5914 11.9996 15.9433C11.9996 16.2953 12.1387 16.6329 12.3866 16.8827C12.5084 17.0059 12.6534 17.1037 12.8133 17.1705C12.9732 17.2373 13.1447 17.2717 13.318 17.2717C13.4912 17.2717 13.6627 17.2373 13.8226 17.1705C13.9825 17.1037 14.1275 17.0059 14.2493 16.8827L15.9693 15.148L17.7506 16.944C17.8723 17.0673 18.0173 17.1653 18.1771 17.2322C18.3369 17.2991 18.5084 17.3336 18.6817 17.3337C18.8549 17.3338 19.0265 17.2996 19.1864 17.2329C19.3463 17.1662 19.4914 17.0685 19.6133 16.9453C19.8604 16.6955 19.999 16.3583 19.9993 16.0069C19.9995 15.6556 19.8613 15.3182 19.6146 15.068L16.9946 12.428C16.8607 12.2921 16.7012 12.1841 16.5252 12.1103C16.3492 12.0366 16.1604 11.9985 15.9696 11.9984C15.7788 11.9983 15.5899 12.0361 15.4138 12.1096C15.2377 12.1831 15.078 12.2909 14.944 12.4267Z" fill="#B3BAC5"/>
<path fill-rule="evenodd" clip-rule="evenodd" d="M14.6666 13.3427L14.668 26.6573C14.668 27.4 15.2653 28.0013 16.0013 28C16.7386 28 17.3346 27.4 17.3346 26.6573L17.3333 13.3413C17.3333 12.6013 16.736 12 16 12C15.264 12 14.6653 12.6013 14.6666 13.3427Z" fill="#B3BAC5"/>
<path fill-rule="evenodd" clip-rule="evenodd" d="M10.584 7.308C10.2415 7.25196 9.895 7.22387 9.54796 7.224C5.80796 7.22533 2.66663 10.16 2.66663 13.9987C2.66663 17.8773 5.84663 21.3333 9.46663 21.3333H13.308V18.676H9.46663C7.25729 18.676 5.31329 16.4587 5.31329 13.9987C5.31329 11.628 7.27196 9.88267 9.45196 9.88267H9.46796C9.98663 9.88267 10.3826 9.95067 10.7613 10.0827L10.988 10.1667C11.7946 10.4973 12.1546 9.83867 12.1546 9.83867L12.3546 9.48267C13.328 7.68667 15.2893 6.688 17.3093 6.65733C18.6493 6.67067 19.9387 7.171 20.9369 8.06499C21.9352 8.95899 22.5741 10.1856 22.7346 11.516L22.796 11.9693C22.796 11.9693 22.8906 12.6693 23.6826 12.6693C23.7 12.6693 23.6986 12.676 23.7133 12.676H24.052C25.5666 12.676 26.6866 13.9547 26.6866 15.5533C26.6866 17.1627 25.3706 18.676 23.9266 18.676H18.6413V21.3333H23.9266C26.8066 21.3333 29.3333 18.6067 29.3333 15.5533C29.3333 12.888 27.584 10.6693 25.1493 10.1213C24.2066 6.512 21.0786 4.052 17.3013 4C14.668 4.028 12.1 5.20133 10.584 7.308Z" fill="#B3BAC5"/>
</svg>
