<svg width="24" height="24" viewBox="0 0 24 24" fill="none" xmlns="http://www.w3.org/2000/svg">
<rect x="0.2625" y="0.2625" width="23.475" height="23.475" rx="3.4875" fill="white"/>
<rect x="0.2625" y="0.2625" width="23.475" height="23.475" rx="3.4875" stroke="#A8A8A8" stroke-width="0.525"/>
<path d="M16.5 17.145H15.93C15.33 17.145 14.76 17.3775 14.34 17.7975L13.0575 19.065C12.4725 19.6425 11.52 19.6425 10.935 19.065L9.6525 17.7975C9.2325 17.3775 8.655 17.145 8.0625 17.145H7.5C6.255 17.145 5.25 16.1475 5.25 14.9175V6.7275C5.25 5.4975 6.255 4.5 7.5 4.5H16.5C17.745 4.5 18.75 5.4975 18.75 6.7275V14.91C18.75 16.14 17.745 17.145 16.5 17.145Z" stroke="#3F3F3F" stroke-width="1.125" stroke-miterlimit="10" stroke-linecap="round" stroke-linejoin="round"/>
<path d="M12.0528 9.71211C12.0228 9.71211 11.9778 9.71211 11.9403 9.71211C11.1528 9.68211 10.5303 9.04461 10.5303 8.24961C10.5303 7.43961 11.1828 6.78711 11.9928 6.78711C12.8028 6.78711 13.4553 7.44711 13.4553 8.24961C13.4628 9.04461 12.8403 9.68961 12.0528 9.71211Z" stroke="#3F3F3F" stroke-width="1.125" stroke-linecap="round" stroke-linejoin="round"/>
<path d="M9.93758 11.9697C8.94008 12.6372 8.94008 13.7247 9.93758 14.3922C11.0701 15.1497 12.9301 15.1497 14.0626 14.3922C15.0601 13.7247 15.0601 12.6372 14.0626 11.9697C12.9301 11.2197 11.0776 11.2197 9.93758 11.9697Z" stroke="#3F3F3F" stroke-width="1.125" stroke-linecap="round" stroke-linejoin="round"/>
</svg>
