<svg width="26" height="27" viewBox="0 0 26 27" fill="none" xmlns="http://www.w3.org/2000/svg">
<g filter="url(#filter0_d_6610_30576)">
<rect x="1" y="1" width="24" height="24" rx="3" fill="url(#paint0_linear_6610_30576)"/>
</g>
<path d="M12.9045 12.7229C13.9068 12.7229 14.7746 12.3635 15.4837 11.6543C16.1928 10.9452 16.5523 10.0776 16.5523 9.07522C16.5523 8.07322 16.1928 7.20549 15.4836 6.49617C14.7744 5.78719 13.9067 5.42773 12.9045 5.42773C11.9022 5.42773 11.0346 5.78719 10.3255 6.49628C9.61641 7.20537 9.25684 8.07311 9.25684 9.07522C9.25684 10.0776 9.61641 10.9453 10.3256 11.6544C11.0348 12.3634 11.9026 12.7229 12.9045 12.7229Z" fill="white"/>
<path d="M19.2871 17.0731C19.2667 16.778 19.2253 16.4561 19.1644 16.1162C19.1029 15.7737 19.0238 15.45 18.929 15.1541C18.8312 14.8482 18.6981 14.5462 18.5335 14.2568C18.3628 13.9564 18.1622 13.6948 17.9371 13.4795C17.7017 13.2543 17.4136 13.0733 17.0803 12.9412C16.7483 12.8098 16.3803 12.7433 15.9866 12.7433C15.832 12.7433 15.6825 12.8067 15.3938 12.9947C15.2161 13.1106 15.0082 13.2446 14.7762 13.3929C14.5778 13.5193 14.309 13.6377 13.9771 13.7449C13.6532 13.8497 13.3244 13.9029 12.9998 13.9029C12.6753 13.9029 12.3465 13.8497 12.0223 13.7449C11.6907 13.6378 11.422 13.5194 11.2238 13.393C10.994 13.2461 10.786 13.1121 10.6057 12.9946C10.3173 12.8066 10.1676 12.7432 10.013 12.7432C9.61926 12.7432 9.25137 12.8098 8.91942 12.9413C8.58642 13.0732 8.29814 13.2542 8.06255 13.4796C7.83759 13.695 7.63689 13.9565 7.46635 14.2568C7.30193 14.5462 7.16882 14.8481 7.07084 15.1542C6.97621 15.4501 6.89707 15.7737 6.8356 16.1162C6.77471 16.4557 6.73334 16.7777 6.71289 17.0735C6.69278 17.3633 6.68262 17.664 6.68262 17.9678C6.68262 18.7583 6.93392 19.3983 7.42949 19.8703C7.91893 20.3361 8.56655 20.5724 9.35409 20.5724H16.6463C17.4338 20.5724 18.0812 20.3362 18.5707 19.8703C19.0664 19.3987 19.3177 18.7586 19.3177 17.9677C19.3176 17.6625 19.3073 17.3615 19.2871 17.0731Z" fill="white"/>
<path d="M19.2871 17.0731C19.2667 16.778 19.2253 16.4561 19.1644 16.1162C19.1029 15.7737 19.0238 15.45 18.929 15.1541C18.8312 14.8482 18.6981 14.5462 18.5335 14.2568C18.3628 13.9564 18.1622 13.6948 17.9371 13.4795C17.7017 13.2543 17.4136 13.0733 17.0803 12.9412C16.7483 12.8098 16.3803 12.7433 15.9866 12.7433C15.832 12.7433 15.6825 12.8067 15.3938 12.9947C15.2161 13.1106 15.0082 13.2446 14.7762 13.3929C14.5778 13.5193 14.309 13.6377 13.9771 13.7449C13.6532 13.8497 13.3244 13.9029 12.9998 13.9029C12.6753 13.9029 12.3465 13.8497 12.0223 13.7449C11.6907 13.6378 11.422 13.5194 11.2238 13.393C10.994 13.2461 10.786 13.1121 10.6057 12.9946C10.3173 12.8066 10.1676 12.7432 10.013 12.7432C9.61926 12.7432 9.25137 12.8098 8.91942 12.9413C8.58642 13.0732 8.29814 13.2542 8.06255 13.4796C7.83759 13.695 7.63689 13.9565 7.46635 14.2568C7.30193 14.5462 7.16882 14.8481 7.07084 15.1542C6.97621 15.4501 6.89707 15.7737 6.8356 16.1162C6.77471 16.4557 6.73334 16.7777 6.71289 17.0735C6.69278 17.3633 6.68262 17.664 6.68262 17.9678C6.68262 18.7583 6.93392 19.3983 7.42949 19.8703C7.91893 20.3361 8.56655 20.5724 9.35409 20.5724H16.6463C17.4338 20.5724 18.0812 20.3362 18.5707 19.8703C19.0664 19.3987 19.3177 18.7586 19.3177 17.9677C19.3176 17.6625 19.3073 17.3615 19.2871 17.0731Z" fill="url(#paint1_linear_6610_30576)"/>
<defs>
<filter id="filter0_d_6610_30576" x="0" y="0.5" width="26" height="26" filterUnits="userSpaceOnUse" color-interpolation-filters="sRGB">
<feFlood flood-opacity="0" result="BackgroundImageFix"/>
<feColorMatrix in="SourceAlpha" type="matrix" values="0 0 0 0 0 0 0 0 0 0 0 0 0 0 0 0 0 0 127 0" result="hardAlpha"/>
<feOffset dy="0.5"/>
<feGaussianBlur stdDeviation="0.5"/>
<feColorMatrix type="matrix" values="0 0 0 0 0 0 0 0 0 0 0 0 0 0 0 0 0 0 0.25 0"/>
<feBlend mode="normal" in2="BackgroundImageFix" result="effect1_dropShadow_6610_30576"/>
<feBlend mode="normal" in="SourceGraphic" in2="effect1_dropShadow_6610_30576" result="shape"/>
</filter>
<linearGradient id="paint0_linear_6610_30576" x1="8.22473" y1="12.0688" x2="13" y2="25" gradientUnits="userSpaceOnUse">
<stop stop-color="#0052CC"/>
<stop offset="0.990372" stop-color="#0747A6"/>
</linearGradient>
<linearGradient id="paint1_linear_6610_30576" x1="13.0002" y1="16.6578" x2="14.054" y2="22.3249" gradientUnits="userSpaceOnUse">
<stop stop-color="white"/>
<stop offset="0.990372" stop-color="#9AC2FF" stop-opacity="0.2"/>
</linearGradient>
</defs>
</svg>
